G04 #@! TF.GenerationSoftware,KiCad,Pcbnew,(6.0.5)*
G04 #@! TF.CreationDate,2023-02-02T23:15:04-06:00*
G04 #@! TF.ProjectId,PIC18BT_MCE_Board,50494331-3842-4545-9f4d-43455f426f61,rev?*
G04 #@! TF.SameCoordinates,Original*
G04 #@! TF.FileFunction,Copper,L2,Bot*
G04 #@! TF.FilePolarity,Positive*
%FSLAX46Y46*%
G04 Gerber Fmt 4.6, Leading zero omitted, Abs format (unit mm)*
G04 Created by KiCad (PCBNEW (6.0.5)) date 2023-02-02 23:15:04*
%MOMM*%
%LPD*%
G01*
G04 APERTURE LIST*
G04 #@! TA.AperFunction,ComponentPad*
%ADD10R,1.600000X1.600000*%
G04 #@! TD*
G04 #@! TA.AperFunction,ComponentPad*
%ADD11C,1.600000*%
G04 #@! TD*
G04 #@! TA.AperFunction,ComponentPad*
%ADD12C,1.700000*%
G04 #@! TD*
G04 #@! TA.AperFunction,ComponentPad*
%ADD13C,1.500000*%
G04 #@! TD*
G04 #@! TA.AperFunction,ComponentPad*
%ADD14C,2.000000*%
G04 #@! TD*
G04 #@! TA.AperFunction,ComponentPad*
%ADD15R,3.500000X3.500000*%
G04 #@! TD*
G04 #@! TA.AperFunction,ComponentPad*
%ADD16R,1.700000X1.700000*%
G04 #@! TD*
G04 #@! TA.AperFunction,ComponentPad*
%ADD17O,1.700000X1.700000*%
G04 #@! TD*
G04 #@! TA.AperFunction,SMDPad,CuDef*
%ADD18R,1.000000X2.000000*%
G04 #@! TD*
G04 #@! TA.AperFunction,SMDPad,CuDef*
%ADD19R,2.000000X1.000000*%
G04 #@! TD*
G04 #@! TA.AperFunction,ViaPad*
%ADD20C,0.800000*%
G04 #@! TD*
G04 #@! TA.AperFunction,Conductor*
%ADD21C,0.400000*%
G04 #@! TD*
G04 #@! TA.AperFunction,Conductor*
%ADD22C,0.250000*%
G04 #@! TD*
G04 #@! TA.AperFunction,Conductor*
%ADD23C,0.600000*%
G04 #@! TD*
G04 APERTURE END LIST*
D10*
X111752651Y-102400000D03*
D11*
X108252651Y-102400000D03*
D12*
X143510000Y-88900000D03*
X143510000Y-86360000D03*
X151130000Y-91440000D03*
X143510000Y-83820000D03*
X151130000Y-88900000D03*
X151130000Y-83820000D03*
X151130000Y-93980000D03*
X156210000Y-88900000D03*
X153670000Y-93980000D03*
X158750000Y-88900000D03*
X146050000Y-91440000D03*
X148590000Y-81280000D03*
X158750000Y-86360000D03*
X151130000Y-86360000D03*
D13*
X139590000Y-103540000D03*
X134690000Y-103540000D03*
D12*
X153665328Y-83805986D03*
X158750000Y-83820000D03*
X146050000Y-83820000D03*
X143510000Y-81280000D03*
X146050000Y-88900000D03*
X148590000Y-88900000D03*
X151130000Y-81280000D03*
X153665328Y-91425986D03*
D14*
X123330000Y-112000000D03*
X123330000Y-114540000D03*
X125870000Y-112000000D03*
X125870000Y-114540000D03*
X128410000Y-112000000D03*
X128410000Y-114540000D03*
X130950000Y-114540000D03*
X130950000Y-112000000D03*
X133490000Y-112000000D03*
X133490000Y-114540000D03*
X136030000Y-114540000D03*
X136030000Y-112000000D03*
X138570000Y-112000000D03*
X138570000Y-114540000D03*
X141110000Y-114540000D03*
X141110000Y-112000000D03*
X143650000Y-114540000D03*
X143650000Y-112000000D03*
X146190000Y-112000000D03*
X146190000Y-114540000D03*
X148730000Y-112000000D03*
X148730000Y-114540000D03*
X151270000Y-112000000D03*
X151270000Y-114540000D03*
X153810000Y-114540000D03*
X153810000Y-112000000D03*
X156350000Y-112000000D03*
X156350000Y-114540000D03*
X158890000Y-114540000D03*
X158890000Y-112000000D03*
X161430000Y-112000000D03*
X161430000Y-114540000D03*
X163970000Y-114540000D03*
X163970000Y-112000000D03*
X166510000Y-114540000D03*
X166510000Y-112000000D03*
X169050000Y-112000000D03*
X169050000Y-114540000D03*
X171590000Y-112000000D03*
X171590000Y-114540000D03*
X174130000Y-112000000D03*
X174130000Y-114540000D03*
X176670000Y-112000000D03*
X176670000Y-114540000D03*
X176670000Y-75460000D03*
X176670000Y-78000000D03*
X174130000Y-78000000D03*
X174130000Y-75460000D03*
X171590000Y-75460000D03*
X171590000Y-78000000D03*
X169050000Y-78000000D03*
X169050000Y-75460000D03*
X166510000Y-75460000D03*
X166510000Y-78000000D03*
X163970000Y-78000000D03*
X163970000Y-75460000D03*
X161430000Y-78000000D03*
X161430000Y-75460000D03*
X158890000Y-75460000D03*
X158890000Y-78000000D03*
X156350000Y-75460000D03*
X156350000Y-78000000D03*
X153810000Y-78000000D03*
X153810000Y-75460000D03*
X151270000Y-75460000D03*
X151270000Y-78000000D03*
X148730000Y-75460000D03*
X148730000Y-78000000D03*
X146190000Y-75460000D03*
X146190000Y-78000000D03*
X143650000Y-78000000D03*
X143650000Y-75460000D03*
X141110000Y-75460000D03*
X141110000Y-78000000D03*
X138570000Y-75460000D03*
X138570000Y-78000000D03*
X136030000Y-78000000D03*
X136030000Y-75460000D03*
X133490000Y-78000000D03*
X133490000Y-75460000D03*
X130950000Y-78000000D03*
X130950000Y-75460000D03*
X128410000Y-78000000D03*
X128410000Y-75460000D03*
X125870000Y-75460000D03*
X125870000Y-78000000D03*
X123330000Y-78000000D03*
X123330000Y-75460000D03*
D10*
X111634651Y-93726000D03*
D11*
X108134651Y-93726000D03*
D12*
X158750000Y-81280000D03*
X156210000Y-86360000D03*
X148590000Y-83820000D03*
X156210000Y-93980000D03*
X156210000Y-91440000D03*
X146050000Y-93980000D03*
X153665328Y-86345986D03*
D15*
X114600000Y-82200000D03*
X107600000Y-82200000D03*
X111600000Y-86900000D03*
D12*
X146050000Y-81280000D03*
X148590000Y-91440000D03*
X153670000Y-81280000D03*
X143510000Y-91440000D03*
X156210000Y-81280000D03*
D14*
X163800000Y-82775000D03*
X163800000Y-89275000D03*
X168300000Y-89275000D03*
X168300000Y-82775000D03*
D12*
X148590000Y-86360000D03*
X153665328Y-88885986D03*
D16*
X111835000Y-76120000D03*
D17*
X109295000Y-76120000D03*
D12*
X148590000Y-93980000D03*
X158750000Y-91440000D03*
X146050000Y-86360000D03*
X156210000Y-83820000D03*
D16*
X178370000Y-83120000D03*
D17*
X180910000Y-83120000D03*
X178370000Y-85660000D03*
X180910000Y-85660000D03*
X178370000Y-88200000D03*
X180910000Y-88200000D03*
D18*
X180630000Y-106450000D03*
X179130000Y-106450000D03*
X165630000Y-106450000D03*
X164130000Y-106450000D03*
X162630000Y-106450000D03*
D19*
X160880000Y-94700000D03*
D18*
X162630000Y-93450000D03*
X177630000Y-93450000D03*
X179130000Y-93450000D03*
X180630000Y-93450000D03*
X182130000Y-93450000D03*
X183630000Y-93450000D03*
D20*
X137950000Y-109480000D03*
X151840000Y-109640000D03*
X147000000Y-100140000D03*
X146050000Y-99250000D03*
X145120000Y-98390000D03*
X178060000Y-109320000D03*
X179000000Y-110120000D03*
X144250000Y-97590000D03*
X149210000Y-97550000D03*
X130970000Y-99780000D03*
X138910000Y-89250000D03*
X157590000Y-99030000D03*
X132290000Y-107390000D03*
X142180000Y-107370000D03*
X136060000Y-100520000D03*
X164110000Y-100240000D03*
X131250000Y-93120000D03*
X132310000Y-93960000D03*
X168860000Y-96730000D03*
X175020000Y-91270000D03*
X177630000Y-91250000D03*
X165110000Y-103170000D03*
D21*
X125870000Y-112000000D02*
X125870000Y-114540000D01*
X128410000Y-112000000D02*
X128410000Y-114540000D01*
X130950000Y-112000000D02*
X130950000Y-114540000D01*
X141110000Y-112000000D02*
X141110000Y-114540000D01*
D22*
X137950000Y-109480000D02*
X141130000Y-109480000D01*
D21*
X143650000Y-112000000D02*
X143650000Y-114540000D01*
D22*
X141130000Y-109480000D02*
X143650000Y-112000000D01*
D21*
X146190000Y-112000000D02*
X146190000Y-114540000D01*
X148730000Y-112000000D02*
X148730000Y-114540000D01*
X151270000Y-112000000D02*
X151270000Y-114540000D01*
D22*
X153810000Y-111610000D02*
X153810000Y-112000000D01*
X151840000Y-109640000D02*
X153810000Y-111610000D01*
D21*
X153810000Y-112000000D02*
X153810000Y-114540000D01*
D22*
X156350000Y-109490000D02*
X156350000Y-112000000D01*
X147000000Y-100140000D02*
X156350000Y-109490000D01*
D21*
X156350000Y-112000000D02*
X156350000Y-114540000D01*
D22*
X147280000Y-99250000D02*
X158890000Y-110860000D01*
X158900000Y-111990000D02*
X158890000Y-112000000D01*
D21*
X158890000Y-112000000D02*
X158890000Y-114540000D01*
D22*
X146050000Y-99250000D02*
X147280000Y-99250000D01*
X158890000Y-110860000D02*
X158890000Y-112000000D01*
X145120000Y-98390000D02*
X147410000Y-98390000D01*
X179130000Y-106450000D02*
X179130000Y-108250000D01*
X147410000Y-98390000D02*
X158850000Y-109830000D01*
X158850000Y-109830000D02*
X160870000Y-109830000D01*
D21*
X161430000Y-112000000D02*
X161430000Y-111646000D01*
D22*
X161430000Y-110390000D02*
X161430000Y-112000000D01*
X160870000Y-109830000D02*
X161430000Y-110390000D01*
X179130000Y-108250000D02*
X178060000Y-109320000D01*
D21*
X161430000Y-112000000D02*
X161430000Y-114540000D01*
D22*
X159310000Y-109080000D02*
X161720000Y-109080000D01*
X154259236Y-104312080D02*
X154259237Y-104312080D01*
X180630000Y-106450000D02*
X180630000Y-108490000D01*
X153764264Y-103110000D02*
X154047107Y-102827158D01*
X155319897Y-104099948D02*
X155037053Y-104382789D01*
X154471370Y-103251423D02*
X154471371Y-103251422D01*
X155393402Y-105163402D02*
X159310000Y-109080000D01*
X180630000Y-108490000D02*
X179000000Y-110120000D01*
X161720000Y-109080000D02*
X163970000Y-111330000D01*
X155319896Y-104099949D02*
X155319897Y-104099948D01*
X153834974Y-104170659D02*
X153834973Y-104170659D01*
X153834973Y-104170659D02*
X153976394Y-104312080D01*
X154471371Y-103251422D02*
X154188527Y-103534263D01*
X155037053Y-104807053D02*
X155393402Y-105163402D01*
X163970000Y-111330000D02*
X163970000Y-112000000D01*
X154259237Y-104312080D02*
X154895631Y-103675682D01*
X144250000Y-97590000D02*
X147820000Y-97590000D01*
X153764265Y-103109999D02*
X153764264Y-103110000D01*
D21*
X163970000Y-112000000D02*
X163970000Y-114540000D01*
D22*
X147820000Y-97590000D02*
X153340000Y-103110000D01*
X154188527Y-103534263D02*
X153834973Y-103887816D01*
X153764232Y-103109967D02*
G75*
G02*
X153340000Y-103110000I-212132J212067D01*
G01*
X155319934Y-103675647D02*
G75*
G03*
X154895631Y-103675682I-212134J-212153D01*
G01*
X155037075Y-104807031D02*
G75*
G02*
X155037054Y-104382790I212125J212131D01*
G01*
X154471380Y-103251433D02*
G75*
G03*
X154471371Y-102827158I-212180J212133D01*
G01*
X155319879Y-104099932D02*
G75*
G03*
X155319896Y-103675685I-212079J212132D01*
G01*
X154259235Y-104312079D02*
G75*
G02*
X153976395Y-104312079I-141420J141422D01*
G01*
X153835011Y-104170622D02*
G75*
G02*
X153834973Y-103887816I141389J141422D01*
G01*
X154471370Y-102827159D02*
G75*
G03*
X154047108Y-102827159I-212131J-212131D01*
G01*
D21*
X149210000Y-97550000D02*
X148450489Y-96790489D01*
D22*
X174130000Y-110670000D02*
X173540000Y-110080000D01*
X153310000Y-101650000D02*
X149210000Y-97550000D01*
X159810000Y-108390000D02*
X156365000Y-104945000D01*
D21*
X133959511Y-96790489D02*
X130970000Y-99780000D01*
D22*
X174130000Y-112000000D02*
X174130000Y-110670000D01*
D21*
X148450489Y-96790489D02*
X133959511Y-96790489D01*
D22*
X156365000Y-104945000D02*
X156365000Y-103405000D01*
X154610000Y-101650000D02*
X153310000Y-101650000D01*
D21*
X174130000Y-112000000D02*
X174130000Y-114540000D01*
D22*
X163860000Y-110080000D02*
X162170000Y-108390000D01*
X173540000Y-110080000D02*
X163860000Y-110080000D01*
D21*
X168300000Y-89275000D02*
X168300000Y-82775000D01*
D22*
X162170000Y-108390000D02*
X159810000Y-108390000D01*
X156365000Y-103405000D02*
X154610000Y-101650000D01*
D21*
X143650000Y-75460000D02*
X143650000Y-78000000D01*
X141110000Y-75460000D02*
X141110000Y-78000000D01*
X138570000Y-75460000D02*
X138570000Y-78000000D01*
X136030000Y-75460000D02*
X136030000Y-78000000D01*
X133490000Y-75460000D02*
X133490000Y-78000000D01*
X130950000Y-75460000D02*
X130950000Y-78000000D01*
D23*
X176670000Y-110560000D02*
X175245000Y-109135000D01*
X123330000Y-75460000D02*
X123330000Y-78000000D01*
X176670000Y-112000000D02*
X176670000Y-114540000D01*
X164130000Y-107990000D02*
X165275000Y-109135000D01*
X164130000Y-100260000D02*
X164110000Y-100240000D01*
X176670000Y-112000000D02*
X176670000Y-110560000D01*
X164130000Y-106450000D02*
X164130000Y-100260000D01*
X164130000Y-106450000D02*
X164130000Y-107990000D01*
X175245000Y-109135000D02*
X165275000Y-109135000D01*
D21*
X166510000Y-112000000D02*
X166510000Y-114540000D01*
X169050000Y-112000000D02*
X169050000Y-114540000D01*
X171590000Y-112000000D02*
X171590000Y-114540000D01*
X174130000Y-75460000D02*
X174130000Y-78000000D01*
X171590000Y-75460000D02*
X171590000Y-78000000D01*
X169050000Y-75460000D02*
X169050000Y-78000000D01*
X166510000Y-75460000D02*
X166510000Y-78000000D01*
X163970000Y-75460000D02*
X163970000Y-78000000D01*
X161430000Y-75460000D02*
X161430000Y-78000000D01*
X158890000Y-75460000D02*
X158890000Y-78000000D01*
X156350000Y-75460000D02*
X156350000Y-78000000D01*
X153810000Y-75460000D02*
X153810000Y-78000000D01*
X151270000Y-75460000D02*
X151270000Y-78000000D01*
X148730000Y-75460000D02*
X148730000Y-78000000D01*
X146190000Y-75460000D02*
X146190000Y-78000000D01*
D22*
X171002083Y-92340759D02*
X171002083Y-92340758D01*
D21*
X125870000Y-75460000D02*
X125870000Y-78000000D01*
D22*
X176340000Y-86920000D02*
X177600000Y-86920000D01*
X172078769Y-90981231D02*
X176140000Y-86920000D01*
X134970000Y-95450000D02*
X149610000Y-95450000D01*
X169800000Y-92835736D02*
X169517158Y-92552894D01*
X166440000Y-96620000D02*
X169800000Y-93260000D01*
X170860661Y-92765023D02*
X170860662Y-92765023D01*
X169941424Y-92128630D02*
X169941424Y-92128629D01*
X171497062Y-91562941D02*
X172078769Y-90981231D01*
X176140000Y-86920000D02*
X177600000Y-86920000D01*
X177600000Y-86920000D02*
X179650000Y-86920000D01*
X170860662Y-92765023D02*
X171002083Y-92623601D01*
X171002083Y-92340758D02*
X170365689Y-91704363D01*
X131250000Y-93120000D02*
X132640000Y-93120000D01*
X132640000Y-93120000D02*
X134970000Y-95450000D01*
X150780000Y-96620000D02*
X166440000Y-96620000D01*
X179650000Y-86920000D02*
X180910000Y-85660000D01*
X149610000Y-95450000D02*
X150780000Y-96620000D01*
X170789955Y-91280098D02*
X171072798Y-91562941D01*
X170789955Y-91280099D02*
X170789955Y-91280098D01*
X169941424Y-92128629D02*
X170577819Y-92765023D01*
X171497061Y-91562940D02*
G75*
G02*
X171072799Y-91562940I-212131J212131D01*
G01*
X169799968Y-92835768D02*
G75*
G02*
X169800000Y-93260000I-212068J-212132D01*
G01*
X169941423Y-92128631D02*
G75*
G03*
X169517159Y-92128631I-212132J-212130D01*
G01*
X170365658Y-91280068D02*
G75*
G03*
X170365689Y-91704363I212142J-212132D01*
G01*
X169517196Y-92128668D02*
G75*
G03*
X169517158Y-92552894I212104J-212132D01*
G01*
X171002063Y-92340779D02*
G75*
G02*
X171002083Y-92623601I-141363J-141421D01*
G01*
X170860660Y-92765022D02*
G75*
G02*
X170577820Y-92765022I-141420J141422D01*
G01*
X170789954Y-91280100D02*
G75*
G03*
X170365690Y-91280100I-212132J-212130D01*
G01*
X132310000Y-93960000D02*
X134450000Y-96100000D01*
X176750000Y-88200000D02*
X178370000Y-88200000D01*
X134450000Y-96100000D02*
X149010000Y-96100000D01*
X159930000Y-97600000D02*
X159930000Y-98000000D01*
X149010000Y-96100000D02*
X150210000Y-97300000D01*
X167000000Y-97300000D02*
X176100000Y-88200000D01*
X162588398Y-97300000D02*
X167000000Y-97300000D01*
X161130000Y-97300000D02*
X161130000Y-98000000D01*
X160530000Y-97600000D02*
X160530000Y-97200000D01*
D21*
X128410000Y-75460000D02*
X128410000Y-78000000D01*
D22*
X161130000Y-97200000D02*
X161130000Y-97300000D01*
X161730000Y-98000000D02*
X161730000Y-97600000D01*
X160530000Y-98000000D02*
X160530000Y-97600000D01*
X176100000Y-88200000D02*
X178370000Y-88200000D01*
X150210000Y-97300000D02*
X159630000Y-97300000D01*
X160630000Y-97100000D02*
X161030000Y-97100000D01*
X162030000Y-97300000D02*
X162588398Y-97300000D01*
X161430000Y-98300000D02*
G75*
G02*
X161130000Y-98000000I0J300000D01*
G01*
X160530000Y-98000000D02*
G75*
G02*
X160230000Y-98300000I-300000J0D01*
G01*
X161730000Y-98000000D02*
G75*
G02*
X161430000Y-98300000I-300000J0D01*
G01*
X162030000Y-97300000D02*
G75*
G03*
X161730000Y-97600000I0J-300000D01*
G01*
X160630000Y-97100000D02*
G75*
G03*
X160530000Y-97200000I0J-100000D01*
G01*
X160230000Y-98300000D02*
G75*
G02*
X159930000Y-98000000I0J300000D01*
G01*
X161130000Y-97200000D02*
G75*
G03*
X161030000Y-97100000I-100000J0D01*
G01*
X159930000Y-97600000D02*
G75*
G03*
X159630000Y-97300000I-300000J0D01*
G01*
X180630000Y-94790000D02*
X180130000Y-95290000D01*
X180630000Y-93450000D02*
X180630000Y-94790000D01*
X170300000Y-95290000D02*
X168860000Y-96730000D01*
X180130000Y-95290000D02*
X170300000Y-95290000D01*
X175900000Y-90390000D02*
X175020000Y-91270000D01*
X178310000Y-90390000D02*
X175900000Y-90390000D01*
X179130000Y-91210000D02*
X178310000Y-90390000D01*
X179130000Y-93450000D02*
X179130000Y-91210000D01*
X177630000Y-93450000D02*
X177630000Y-91250000D01*
X165630000Y-106450000D02*
X165630000Y-103690000D01*
X165630000Y-103690000D02*
X165110000Y-103170000D01*
D21*
X138570000Y-112000000D02*
X138570000Y-114540000D01*
X133490000Y-112000000D02*
X133490000Y-114540000D01*
X136030000Y-112000000D02*
X136030000Y-114540000D01*
G04 #@! TA.AperFunction,Conductor*
G36*
X110190046Y-74820502D02*
G01*
X110236539Y-74874158D01*
X110246643Y-74944432D01*
X110235366Y-74981337D01*
X110225173Y-75002423D01*
X110223589Y-75009284D01*
X110205549Y-75087426D01*
X110184774Y-75177411D01*
X110184500Y-75182163D01*
X110184501Y-77057836D01*
X110184774Y-77062589D01*
X110225173Y-77237577D01*
X110303336Y-77399266D01*
X110415380Y-77539620D01*
X110555734Y-77651664D01*
X110562077Y-77654730D01*
X110562078Y-77654731D01*
X110612126Y-77678925D01*
X110717423Y-77729827D01*
X110724284Y-77731411D01*
X110887212Y-77769026D01*
X110887215Y-77769026D01*
X110892411Y-77770226D01*
X110897163Y-77770500D01*
X110898987Y-77770500D01*
X111843037Y-77770499D01*
X112772836Y-77770499D01*
X112777589Y-77770226D01*
X112952577Y-77729827D01*
X113057874Y-77678925D01*
X113107922Y-77654731D01*
X113107923Y-77654730D01*
X113114266Y-77651664D01*
X113254620Y-77539620D01*
X113366664Y-77399266D01*
X113444827Y-77237577D01*
X113458680Y-77177573D01*
X113484026Y-77067788D01*
X113484026Y-77067785D01*
X113485226Y-77062589D01*
X113485500Y-77057837D01*
X113485499Y-75182164D01*
X113485226Y-75177411D01*
X113444827Y-75002423D01*
X113434634Y-74981337D01*
X113422995Y-74911301D01*
X113451068Y-74846091D01*
X113509940Y-74806409D01*
X113548075Y-74800500D01*
X117097501Y-74800500D01*
X117165622Y-74820502D01*
X117212115Y-74874158D01*
X117222219Y-74944432D01*
X117192725Y-75009012D01*
X117154750Y-75037936D01*
X117155022Y-75038431D01*
X117151839Y-75040181D01*
X117148562Y-75041744D01*
X116874974Y-75213366D01*
X116872140Y-75215636D01*
X116872135Y-75215640D01*
X116806914Y-75267892D01*
X116622924Y-75415296D01*
X116395754Y-75644858D01*
X116196474Y-75899008D01*
X116194581Y-75902097D01*
X116194579Y-75902100D01*
X116151650Y-75972154D01*
X116027727Y-76174379D01*
X115891748Y-76467320D01*
X115890608Y-76470767D01*
X115799663Y-76745760D01*
X115790340Y-76773949D01*
X115789604Y-76777504D01*
X115789603Y-76777507D01*
X115738057Y-77026416D01*
X115724848Y-77090201D01*
X115713385Y-77218635D01*
X115696773Y-77404774D01*
X115696138Y-77411885D01*
X115696233Y-77415515D01*
X115696233Y-77415517D01*
X115697623Y-77468601D01*
X115703131Y-77678925D01*
X115704592Y-77734737D01*
X115750098Y-78054477D01*
X115832053Y-78366869D01*
X115949369Y-78667770D01*
X115951073Y-78670988D01*
X116075320Y-78905649D01*
X116100493Y-78953193D01*
X116102545Y-78956178D01*
X116102550Y-78956187D01*
X116281364Y-79216363D01*
X116281370Y-79216370D01*
X116283421Y-79219355D01*
X116460921Y-79422827D01*
X116476487Y-79440671D01*
X116506195Y-79505153D01*
X116496325Y-79575460D01*
X116450011Y-79629270D01*
X116381538Y-79649500D01*
X112875613Y-79649501D01*
X112762164Y-79649501D01*
X112757411Y-79649774D01*
X112582423Y-79690173D01*
X112507940Y-79726179D01*
X112438485Y-79759755D01*
X112420734Y-79768336D01*
X112280380Y-79880380D01*
X112168336Y-80020734D01*
X112090173Y-80182423D01*
X112088589Y-80189284D01*
X112060472Y-80311074D01*
X112049774Y-80357411D01*
X112049500Y-80362163D01*
X112049501Y-84037836D01*
X112049774Y-84042589D01*
X112090173Y-84217577D01*
X112168336Y-84379266D01*
X112280380Y-84519620D01*
X112420734Y-84631664D01*
X112427077Y-84634730D01*
X112427078Y-84634731D01*
X112507940Y-84673821D01*
X112582423Y-84709827D01*
X112589284Y-84711411D01*
X112752212Y-84749026D01*
X112752215Y-84749026D01*
X112757411Y-84750226D01*
X112762163Y-84750500D01*
X112763987Y-84750500D01*
X114615751Y-84750499D01*
X116437836Y-84750499D01*
X116442589Y-84750226D01*
X116617577Y-84709827D01*
X116692060Y-84673821D01*
X116772922Y-84634731D01*
X116772923Y-84634730D01*
X116779266Y-84631664D01*
X116919620Y-84519620D01*
X117031664Y-84379266D01*
X117109827Y-84217577D01*
X117125902Y-84147950D01*
X117149026Y-84047788D01*
X117149026Y-84047785D01*
X117150226Y-84042589D01*
X117150500Y-84037837D01*
X117150499Y-80362164D01*
X117150226Y-80357411D01*
X117109827Y-80182423D01*
X117108892Y-80180490D01*
X117105233Y-80111527D01*
X117140397Y-80049851D01*
X117203324Y-80016977D01*
X117274035Y-80023343D01*
X117278497Y-80025297D01*
X117279070Y-80025616D01*
X117577448Y-80149208D01*
X117580942Y-80150203D01*
X117580944Y-80150204D01*
X117884554Y-80236690D01*
X117884559Y-80236691D01*
X117888055Y-80237687D01*
X118107264Y-80273584D01*
X118203192Y-80289293D01*
X118203196Y-80289293D01*
X118206772Y-80289879D01*
X118210398Y-80290050D01*
X118525749Y-80304921D01*
X118525750Y-80304921D01*
X118529376Y-80305092D01*
X118558582Y-80303101D01*
X118847960Y-80283374D01*
X118847968Y-80283373D01*
X118851591Y-80283126D01*
X118855167Y-80282463D01*
X118855169Y-80282463D01*
X119165580Y-80224932D01*
X119165584Y-80224931D01*
X119169145Y-80224271D01*
X119477830Y-80129307D01*
X119711353Y-80026797D01*
X119770232Y-80000951D01*
X119770236Y-80000949D01*
X119773555Y-79999492D01*
X119868863Y-79943799D01*
X120049259Y-79838384D01*
X120049261Y-79838383D01*
X120052399Y-79836549D01*
X120079877Y-79815918D01*
X120307761Y-79644819D01*
X120307765Y-79644816D01*
X120310668Y-79642636D01*
X120544936Y-79420323D01*
X120752101Y-79172557D01*
X120806251Y-79090122D01*
X120927427Y-78905649D01*
X120927432Y-78905640D01*
X120929414Y-78902623D01*
X121036736Y-78689238D01*
X121072900Y-78617334D01*
X121072903Y-78617326D01*
X121074527Y-78614098D01*
X121163765Y-78370246D01*
X121184269Y-78314216D01*
X121184270Y-78314212D01*
X121185517Y-78310805D01*
X121186362Y-78307283D01*
X121186365Y-78307275D01*
X121260064Y-78000295D01*
X121260065Y-78000291D01*
X121260911Y-77996766D01*
X121266803Y-77948081D01*
X121293058Y-77731112D01*
X121299710Y-77676143D01*
X121305246Y-77500000D01*
X121301042Y-77427091D01*
X121286864Y-77181193D01*
X121286863Y-77181188D01*
X121286655Y-77177573D01*
X121270786Y-77086651D01*
X121231752Y-76862993D01*
X121231750Y-76862986D01*
X121231128Y-76859420D01*
X121206865Y-76777507D01*
X121140434Y-76553242D01*
X121139402Y-76549757D01*
X121110129Y-76481126D01*
X121014114Y-76256023D01*
X121012692Y-76252689D01*
X120852677Y-75972154D01*
X120827535Y-75937927D01*
X120663622Y-75714786D01*
X120663620Y-75714783D01*
X120661479Y-75711869D01*
X120441632Y-75475285D01*
X120427436Y-75463160D01*
X120198805Y-75267892D01*
X120196049Y-75265538D01*
X119927986Y-75085407D01*
X119864112Y-75052439D01*
X119837040Y-75038466D01*
X119785681Y-74989448D01*
X119768976Y-74920444D01*
X119792228Y-74853364D01*
X119848056Y-74809503D01*
X119894830Y-74800500D01*
X121477747Y-74800500D01*
X121545868Y-74820502D01*
X121592361Y-74874158D01*
X121602465Y-74944432D01*
X121599873Y-74957503D01*
X121551881Y-75146470D01*
X121525070Y-75412736D01*
X121525294Y-75417403D01*
X121525294Y-75417408D01*
X121527189Y-75456850D01*
X121537909Y-75680041D01*
X121590118Y-75942512D01*
X121591698Y-75946912D01*
X121591698Y-75946913D01*
X121601892Y-75975305D01*
X121680549Y-76194383D01*
X121682765Y-76198507D01*
X121750982Y-76325465D01*
X121807215Y-76430121D01*
X121967335Y-76644547D01*
X121970654Y-76647837D01*
X121972927Y-76650452D01*
X122002521Y-76714987D01*
X121992527Y-76785277D01*
X121974706Y-76813683D01*
X121860075Y-76951512D01*
X121857652Y-76955505D01*
X121789519Y-77067785D01*
X121721244Y-77180298D01*
X121719437Y-77184606D01*
X121719437Y-77184607D01*
X121625650Y-77408264D01*
X121617755Y-77427091D01*
X121616604Y-77431623D01*
X121616603Y-77431626D01*
X121553797Y-77678925D01*
X121551881Y-77686470D01*
X121551412Y-77691128D01*
X121550279Y-77702381D01*
X121549864Y-77703402D01*
X121549940Y-77705742D01*
X121546659Y-77738328D01*
X121525070Y-77952736D01*
X121537909Y-78220041D01*
X121590118Y-78482512D01*
X121680549Y-78734383D01*
X121709401Y-78788080D01*
X121767692Y-78896564D01*
X121807215Y-78970121D01*
X121810010Y-78973864D01*
X121810012Y-78973867D01*
X121960455Y-79175334D01*
X121967335Y-79184547D01*
X121970642Y-79187825D01*
X121970647Y-79187831D01*
X122146143Y-79361801D01*
X122157390Y-79372950D01*
X122161156Y-79375712D01*
X122161158Y-79375713D01*
X122225414Y-79422827D01*
X122373205Y-79531192D01*
X122377340Y-79533368D01*
X122377344Y-79533370D01*
X122506918Y-79601542D01*
X122610039Y-79655797D01*
X122614458Y-79657340D01*
X122858273Y-79742484D01*
X122858279Y-79742486D01*
X122862690Y-79744026D01*
X122867283Y-79744898D01*
X123013892Y-79772733D01*
X123125606Y-79793943D01*
X123252616Y-79798933D01*
X123388345Y-79804266D01*
X123388350Y-79804266D01*
X123393013Y-79804449D01*
X123488943Y-79793943D01*
X123654382Y-79775825D01*
X123654387Y-79775824D01*
X123659035Y-79775315D01*
X123774567Y-79744898D01*
X123913309Y-79708370D01*
X123917829Y-79707180D01*
X124052084Y-79649500D01*
X124159407Y-79603391D01*
X124159410Y-79603389D01*
X124163710Y-79601542D01*
X124167690Y-79599079D01*
X124167694Y-79599077D01*
X124387302Y-79463179D01*
X124387306Y-79463176D01*
X124391275Y-79460720D01*
X124516022Y-79355114D01*
X124580938Y-79326365D01*
X124651091Y-79337277D01*
X124686143Y-79361801D01*
X124697390Y-79372950D01*
X124701156Y-79375712D01*
X124701158Y-79375713D01*
X124765414Y-79422827D01*
X124913205Y-79531192D01*
X124917340Y-79533368D01*
X124917344Y-79533370D01*
X125046918Y-79601542D01*
X125150039Y-79655797D01*
X125154458Y-79657340D01*
X125398273Y-79742484D01*
X125398279Y-79742486D01*
X125402690Y-79744026D01*
X125407283Y-79744898D01*
X125553892Y-79772733D01*
X125665606Y-79793943D01*
X125792616Y-79798933D01*
X125928345Y-79804266D01*
X125928350Y-79804266D01*
X125933013Y-79804449D01*
X126028943Y-79793943D01*
X126194382Y-79775825D01*
X126194387Y-79775824D01*
X126199035Y-79775315D01*
X126314567Y-79744898D01*
X126453309Y-79708370D01*
X126457829Y-79707180D01*
X126592084Y-79649500D01*
X126699407Y-79603391D01*
X126699410Y-79603389D01*
X126703710Y-79601542D01*
X126707690Y-79599079D01*
X126707694Y-79599077D01*
X126927302Y-79463179D01*
X126927306Y-79463176D01*
X126931275Y-79460720D01*
X127056022Y-79355114D01*
X127120938Y-79326365D01*
X127191091Y-79337277D01*
X127226143Y-79361801D01*
X127237390Y-79372950D01*
X127241156Y-79375712D01*
X127241158Y-79375713D01*
X127305414Y-79422827D01*
X127453205Y-79531192D01*
X127457340Y-79533368D01*
X127457344Y-79533370D01*
X127586918Y-79601542D01*
X127690039Y-79655797D01*
X127694458Y-79657340D01*
X127938273Y-79742484D01*
X127938279Y-79742486D01*
X127942690Y-79744026D01*
X127947283Y-79744898D01*
X128093892Y-79772733D01*
X128205606Y-79793943D01*
X128332616Y-79798933D01*
X128468345Y-79804266D01*
X128468350Y-79804266D01*
X128473013Y-79804449D01*
X128568943Y-79793943D01*
X128734382Y-79775825D01*
X128734387Y-79775824D01*
X128739035Y-79775315D01*
X128854567Y-79744898D01*
X128993309Y-79708370D01*
X128997829Y-79707180D01*
X129132084Y-79649500D01*
X129239407Y-79603391D01*
X129239410Y-79603389D01*
X129243710Y-79601542D01*
X129247690Y-79599079D01*
X129247694Y-79599077D01*
X129467302Y-79463179D01*
X129467306Y-79463176D01*
X129471275Y-79460720D01*
X129596022Y-79355114D01*
X129660938Y-79326365D01*
X129731091Y-79337277D01*
X129766143Y-79361801D01*
X129777390Y-79372950D01*
X129781156Y-79375712D01*
X129781158Y-79375713D01*
X129845414Y-79422827D01*
X129993205Y-79531192D01*
X129997340Y-79533368D01*
X129997344Y-79533370D01*
X130126918Y-79601542D01*
X130230039Y-79655797D01*
X130234458Y-79657340D01*
X130478273Y-79742484D01*
X130478279Y-79742486D01*
X130482690Y-79744026D01*
X130487283Y-79744898D01*
X130633892Y-79772733D01*
X130745606Y-79793943D01*
X130872616Y-79798933D01*
X131008345Y-79804266D01*
X131008350Y-79804266D01*
X131013013Y-79804449D01*
X131108943Y-79793943D01*
X131274382Y-79775825D01*
X131274387Y-79775824D01*
X131279035Y-79775315D01*
X131394567Y-79744898D01*
X131533309Y-79708370D01*
X131537829Y-79707180D01*
X131672084Y-79649500D01*
X131779407Y-79603391D01*
X131779410Y-79603389D01*
X131783710Y-79601542D01*
X131787690Y-79599079D01*
X131787694Y-79599077D01*
X132007302Y-79463179D01*
X132007306Y-79463176D01*
X132011275Y-79460720D01*
X132136022Y-79355114D01*
X132200938Y-79326365D01*
X132271091Y-79337277D01*
X132306143Y-79361801D01*
X132317390Y-79372950D01*
X132321156Y-79375712D01*
X132321158Y-79375713D01*
X132385414Y-79422827D01*
X132533205Y-79531192D01*
X132537340Y-79533368D01*
X132537344Y-79533370D01*
X132666918Y-79601542D01*
X132770039Y-79655797D01*
X132774458Y-79657340D01*
X133018273Y-79742484D01*
X133018279Y-79742486D01*
X133022690Y-79744026D01*
X133027283Y-79744898D01*
X133173892Y-79772733D01*
X133285606Y-79793943D01*
X133412616Y-79798933D01*
X133548345Y-79804266D01*
X133548350Y-79804266D01*
X133553013Y-79804449D01*
X133648943Y-79793943D01*
X133814382Y-79775825D01*
X133814387Y-79775824D01*
X133819035Y-79775315D01*
X133934567Y-79744898D01*
X134073309Y-79708370D01*
X134077829Y-79707180D01*
X134212084Y-79649500D01*
X134319407Y-79603391D01*
X134319410Y-79603389D01*
X134323710Y-79601542D01*
X134327690Y-79599079D01*
X134327694Y-79599077D01*
X134547302Y-79463179D01*
X134547306Y-79463176D01*
X134551275Y-79460720D01*
X134676022Y-79355114D01*
X134740938Y-79326365D01*
X134811091Y-79337277D01*
X134846143Y-79361801D01*
X134857390Y-79372950D01*
X134861156Y-79375712D01*
X134861158Y-79375713D01*
X134925414Y-79422827D01*
X135073205Y-79531192D01*
X135077340Y-79533368D01*
X135077344Y-79533370D01*
X135206918Y-79601542D01*
X135310039Y-79655797D01*
X135314458Y-79657340D01*
X135558273Y-79742484D01*
X135558279Y-79742486D01*
X135562690Y-79744026D01*
X135567283Y-79744898D01*
X135713892Y-79772733D01*
X135825606Y-79793943D01*
X135952616Y-79798933D01*
X136088345Y-79804266D01*
X136088350Y-79804266D01*
X136093013Y-79804449D01*
X136188943Y-79793943D01*
X136354382Y-79775825D01*
X136354387Y-79775824D01*
X136359035Y-79775315D01*
X136474567Y-79744898D01*
X136613309Y-79708370D01*
X136617829Y-79707180D01*
X136752084Y-79649500D01*
X136859407Y-79603391D01*
X136859410Y-79603389D01*
X136863710Y-79601542D01*
X136867690Y-79599079D01*
X136867694Y-79599077D01*
X137087302Y-79463179D01*
X137087306Y-79463176D01*
X137091275Y-79460720D01*
X137216022Y-79355114D01*
X137280938Y-79326365D01*
X137351091Y-79337277D01*
X137386143Y-79361801D01*
X137397390Y-79372950D01*
X137401156Y-79375712D01*
X137401158Y-79375713D01*
X137465414Y-79422827D01*
X137613205Y-79531192D01*
X137617340Y-79533368D01*
X137617344Y-79533370D01*
X137746918Y-79601542D01*
X137850039Y-79655797D01*
X137854458Y-79657340D01*
X138098273Y-79742484D01*
X138098279Y-79742486D01*
X138102690Y-79744026D01*
X138107283Y-79744898D01*
X138253892Y-79772733D01*
X138365606Y-79793943D01*
X138492616Y-79798933D01*
X138628345Y-79804266D01*
X138628350Y-79804266D01*
X138633013Y-79804449D01*
X138728943Y-79793943D01*
X138894382Y-79775825D01*
X138894387Y-79775824D01*
X138899035Y-79775315D01*
X139014567Y-79744898D01*
X139153309Y-79708370D01*
X139157829Y-79707180D01*
X139292084Y-79649500D01*
X139399407Y-79603391D01*
X139399410Y-79603389D01*
X139403710Y-79601542D01*
X139407690Y-79599079D01*
X139407694Y-79599077D01*
X139627302Y-79463179D01*
X139627306Y-79463176D01*
X139631275Y-79460720D01*
X139756022Y-79355114D01*
X139820938Y-79326365D01*
X139891091Y-79337277D01*
X139926143Y-79361801D01*
X139937390Y-79372950D01*
X139941156Y-79375712D01*
X139941158Y-79375713D01*
X140005414Y-79422827D01*
X140153205Y-79531192D01*
X140157340Y-79533368D01*
X140157344Y-79533370D01*
X140286918Y-79601542D01*
X140390039Y-79655797D01*
X140394458Y-79657340D01*
X140638273Y-79742484D01*
X140638279Y-79742486D01*
X140642690Y-79744026D01*
X140647283Y-79744898D01*
X140793892Y-79772733D01*
X140905606Y-79793943D01*
X141032616Y-79798933D01*
X141168345Y-79804266D01*
X141168350Y-79804266D01*
X141173013Y-79804449D01*
X141268943Y-79793943D01*
X141434382Y-79775825D01*
X141434387Y-79775824D01*
X141439035Y-79775315D01*
X141554567Y-79744898D01*
X141693309Y-79708370D01*
X141697829Y-79707180D01*
X141832084Y-79649500D01*
X141939407Y-79603391D01*
X141939410Y-79603389D01*
X141943710Y-79601542D01*
X141947690Y-79599079D01*
X141947694Y-79599077D01*
X142167302Y-79463179D01*
X142167306Y-79463176D01*
X142171275Y-79460720D01*
X142296022Y-79355114D01*
X142360938Y-79326365D01*
X142431091Y-79337277D01*
X142466143Y-79361801D01*
X142477390Y-79372950D01*
X142481156Y-79375712D01*
X142481158Y-79375713D01*
X142545414Y-79422827D01*
X142693205Y-79531192D01*
X142697340Y-79533368D01*
X142697344Y-79533370D01*
X142775152Y-79574307D01*
X142826125Y-79623727D01*
X142842287Y-79692859D01*
X142818508Y-79759755D01*
X142767146Y-79800295D01*
X142767355Y-79800705D01*
X142765303Y-79801751D01*
X142764704Y-79802223D01*
X142758372Y-79804846D01*
X142536860Y-79940588D01*
X142339311Y-80109311D01*
X142170588Y-80306860D01*
X142034846Y-80528372D01*
X141935427Y-80768390D01*
X141934272Y-80773202D01*
X141875934Y-81016193D01*
X141875933Y-81016199D01*
X141874779Y-81021006D01*
X141854396Y-81280000D01*
X141874779Y-81538994D01*
X141875933Y-81543801D01*
X141875934Y-81543807D01*
X141899737Y-81642951D01*
X141935427Y-81791610D01*
X141937320Y-81796181D01*
X141937321Y-81796183D01*
X142025591Y-82009284D01*
X142034846Y-82031628D01*
X142170588Y-82253140D01*
X142339311Y-82450689D01*
X142343067Y-82453897D01*
X142343072Y-82453902D01*
X142343408Y-82454189D01*
X142343500Y-82454330D01*
X142346575Y-82457405D01*
X142345929Y-82458051D01*
X142382217Y-82513639D01*
X142382725Y-82584634D01*
X142345905Y-82641925D01*
X142346575Y-82642595D01*
X142343496Y-82645674D01*
X142343408Y-82645811D01*
X142343072Y-82646098D01*
X142343067Y-82646103D01*
X142339311Y-82649311D01*
X142170588Y-82846860D01*
X142034846Y-83068372D01*
X142032953Y-83072942D01*
X142032951Y-83072946D01*
X141956501Y-83257512D01*
X141935427Y-83308390D01*
X141934272Y-83313202D01*
X141875934Y-83556193D01*
X141875933Y-83556199D01*
X141874779Y-83561006D01*
X141854396Y-83820000D01*
X141874779Y-84078994D01*
X141875933Y-84083801D01*
X141875934Y-84083807D01*
X141891334Y-84147950D01*
X141935427Y-84331610D01*
X141937320Y-84336181D01*
X141937321Y-84336183D01*
X142021588Y-84539620D01*
X142034846Y-84571628D01*
X142170588Y-84793140D01*
X142339311Y-84990689D01*
X142343067Y-84993897D01*
X142343072Y-84993902D01*
X142343408Y-84994189D01*
X142343500Y-84994330D01*
X142346575Y-84997405D01*
X142345929Y-84998051D01*
X142382217Y-85053639D01*
X142382725Y-85124634D01*
X142345905Y-85181925D01*
X142346575Y-85182595D01*
X142343496Y-85185674D01*
X142343408Y-85185811D01*
X142343072Y-85186098D01*
X142343067Y-85186103D01*
X142339311Y-85189311D01*
X142170588Y-85386860D01*
X142034846Y-85608372D01*
X142032953Y-85612942D01*
X142032951Y-85612946D01*
X141937321Y-85843817D01*
X141935427Y-85848390D01*
X141919661Y-85914060D01*
X141875934Y-86096193D01*
X141875933Y-86096199D01*
X141874779Y-86101006D01*
X141854396Y-86360000D01*
X141874779Y-86618994D01*
X141875933Y-86623801D01*
X141875934Y-86623807D01*
X141914220Y-86783276D01*
X141935427Y-86871610D01*
X141937320Y-86876181D01*
X141937321Y-86876183D01*
X141997700Y-87021949D01*
X142034846Y-87111628D01*
X142170588Y-87333140D01*
X142339311Y-87530689D01*
X142343067Y-87533897D01*
X142343072Y-87533902D01*
X142343408Y-87534189D01*
X142343500Y-87534330D01*
X142346575Y-87537405D01*
X142345929Y-87538051D01*
X142382217Y-87593639D01*
X142382725Y-87664634D01*
X142345905Y-87721925D01*
X142346575Y-87722595D01*
X142343496Y-87725674D01*
X142343408Y-87725811D01*
X142343072Y-87726098D01*
X142343067Y-87726103D01*
X142339311Y-87729311D01*
X142170588Y-87926860D01*
X142034846Y-88148372D01*
X142032953Y-88152942D01*
X142032951Y-88152946D01*
X142003968Y-88222918D01*
X141935427Y-88388390D01*
X141934272Y-88393202D01*
X141875934Y-88636193D01*
X141875933Y-88636199D01*
X141874779Y-88641006D01*
X141854396Y-88900000D01*
X141874779Y-89158994D01*
X141875933Y-89163801D01*
X141875934Y-89163807D01*
X141898065Y-89255988D01*
X141935427Y-89411610D01*
X141937320Y-89416181D01*
X141937321Y-89416183D01*
X142027946Y-89634969D01*
X142034846Y-89651628D01*
X142170588Y-89873140D01*
X142339311Y-90070689D01*
X142343067Y-90073897D01*
X142343072Y-90073902D01*
X142343408Y-90074189D01*
X142343500Y-90074330D01*
X142346575Y-90077405D01*
X142345929Y-90078051D01*
X142382217Y-90133639D01*
X142382725Y-90204634D01*
X142345905Y-90261925D01*
X142346575Y-90262595D01*
X142343496Y-90265674D01*
X142343408Y-90265811D01*
X142343072Y-90266098D01*
X142343067Y-90266103D01*
X142339311Y-90269311D01*
X142336103Y-90273067D01*
X142331824Y-90278077D01*
X142170588Y-90466860D01*
X142034846Y-90688372D01*
X142032953Y-90692942D01*
X142032951Y-90692946D01*
X141965937Y-90854732D01*
X141935427Y-90928390D01*
X141915777Y-91010239D01*
X141875934Y-91176193D01*
X141875933Y-91176199D01*
X141874779Y-91181006D01*
X141854396Y-91440000D01*
X141874779Y-91698994D01*
X141875933Y-91703801D01*
X141875934Y-91703807D01*
X141894861Y-91782641D01*
X141935427Y-91951610D01*
X141937320Y-91956181D01*
X141937321Y-91956183D01*
X142027751Y-92174498D01*
X142034846Y-92191628D01*
X142170588Y-92413140D01*
X142252508Y-92509056D01*
X142336101Y-92606930D01*
X142339311Y-92610689D01*
X142536860Y-92779412D01*
X142758372Y-92915154D01*
X142762942Y-92917047D01*
X142762946Y-92917049D01*
X142993817Y-93012679D01*
X142998390Y-93014573D01*
X143012894Y-93018055D01*
X143246193Y-93074066D01*
X143246199Y-93074067D01*
X143251006Y-93075221D01*
X143510000Y-93095604D01*
X143768994Y-93075221D01*
X143773801Y-93074067D01*
X143773807Y-93074066D01*
X144007106Y-93018055D01*
X144021610Y-93014573D01*
X144026183Y-93012679D01*
X144257054Y-92917049D01*
X144257058Y-92917047D01*
X144261628Y-92915154D01*
X144483140Y-92779412D01*
X144680689Y-92610689D01*
X144683897Y-92606933D01*
X144683902Y-92606928D01*
X144684189Y-92606592D01*
X144684330Y-92606500D01*
X144687405Y-92603425D01*
X144688051Y-92604071D01*
X144743639Y-92567783D01*
X144814634Y-92567275D01*
X144871925Y-92604095D01*
X144872595Y-92603425D01*
X144875674Y-92606504D01*
X144875811Y-92606592D01*
X144876098Y-92606928D01*
X144876103Y-92606933D01*
X144879311Y-92610689D01*
X145076860Y-92779412D01*
X145298372Y-92915154D01*
X145302942Y-92917047D01*
X145302946Y-92917049D01*
X145533817Y-93012679D01*
X145538390Y-93014573D01*
X145552894Y-93018055D01*
X145786193Y-93074066D01*
X145786199Y-93074067D01*
X145791006Y-93075221D01*
X146050000Y-93095604D01*
X146308994Y-93075221D01*
X146313801Y-93074067D01*
X146313807Y-93074066D01*
X146547106Y-93018055D01*
X146561610Y-93014573D01*
X146566183Y-93012679D01*
X146797054Y-92917049D01*
X146797058Y-92917047D01*
X146801628Y-92915154D01*
X147023140Y-92779412D01*
X147220689Y-92610689D01*
X147223897Y-92606933D01*
X147223902Y-92606928D01*
X147224189Y-92606592D01*
X147224330Y-92606500D01*
X147227405Y-92603425D01*
X147228051Y-92604071D01*
X147283639Y-92567783D01*
X147354634Y-92567275D01*
X147411925Y-92604095D01*
X147412595Y-92603425D01*
X147415674Y-92606504D01*
X147415811Y-92606592D01*
X147416098Y-92606928D01*
X147416103Y-92606933D01*
X147419311Y-92610689D01*
X147616860Y-92779412D01*
X147838372Y-92915154D01*
X147842942Y-92917047D01*
X147842946Y-92917049D01*
X148073817Y-93012679D01*
X148078390Y-93014573D01*
X148092894Y-93018055D01*
X148326193Y-93074066D01*
X148326199Y-93074067D01*
X148331006Y-93075221D01*
X148590000Y-93095604D01*
X148848994Y-93075221D01*
X148853801Y-93074067D01*
X148853807Y-93074066D01*
X149087106Y-93018055D01*
X149101610Y-93014573D01*
X149106183Y-93012679D01*
X149337054Y-92917049D01*
X149337058Y-92917047D01*
X149341628Y-92915154D01*
X149563140Y-92779412D01*
X149760689Y-92610689D01*
X149763897Y-92606933D01*
X149763902Y-92606928D01*
X149764189Y-92606592D01*
X149764330Y-92606500D01*
X149767405Y-92603425D01*
X149768051Y-92604071D01*
X149823639Y-92567783D01*
X149894634Y-92567275D01*
X149951925Y-92604095D01*
X149952595Y-92603425D01*
X149955674Y-92606504D01*
X149955811Y-92606592D01*
X149956098Y-92606928D01*
X149956103Y-92606933D01*
X149959311Y-92610689D01*
X150156860Y-92779412D01*
X150378372Y-92915154D01*
X150382942Y-92917047D01*
X150382946Y-92917049D01*
X150613817Y-93012679D01*
X150618390Y-93014573D01*
X150632894Y-93018055D01*
X150866193Y-93074066D01*
X150866199Y-93074067D01*
X150871006Y-93075221D01*
X151130000Y-93095604D01*
X151388994Y-93075221D01*
X151393801Y-93074067D01*
X151393807Y-93074066D01*
X151627106Y-93018055D01*
X151641610Y-93014573D01*
X151646183Y-93012679D01*
X151877054Y-92917049D01*
X151877058Y-92917047D01*
X151881628Y-92915154D01*
X152103140Y-92779412D01*
X152300689Y-92610689D01*
X152303900Y-92606930D01*
X152303904Y-92606926D01*
X152308218Y-92601875D01*
X152367668Y-92563066D01*
X152438663Y-92562560D01*
X152492627Y-92594319D01*
X152494639Y-92596675D01*
X152692188Y-92765398D01*
X152913700Y-92901140D01*
X152918270Y-92903033D01*
X152918274Y-92903035D01*
X153149145Y-92998665D01*
X153153718Y-93000559D01*
X153216901Y-93015728D01*
X153401521Y-93060052D01*
X153401527Y-93060053D01*
X153406334Y-93061207D01*
X153665328Y-93081590D01*
X153924322Y-93061207D01*
X153929129Y-93060053D01*
X153929135Y-93060052D01*
X154113755Y-93015728D01*
X154176938Y-93000559D01*
X154181511Y-92998665D01*
X154412382Y-92903035D01*
X154412386Y-92903033D01*
X154416956Y-92901140D01*
X154638468Y-92765398D01*
X154819609Y-92610689D01*
X154832253Y-92599890D01*
X154832255Y-92599888D01*
X154836017Y-92596675D01*
X154839234Y-92592908D01*
X154842568Y-92589574D01*
X154904879Y-92555546D01*
X154975695Y-92560609D01*
X155027476Y-92596833D01*
X155036100Y-92606930D01*
X155039311Y-92610689D01*
X155236860Y-92779412D01*
X155458372Y-92915154D01*
X155462942Y-92917047D01*
X155462946Y-92917049D01*
X155693817Y-93012679D01*
X155698390Y-93014573D01*
X155712894Y-93018055D01*
X155946193Y-93074066D01*
X155946199Y-93074067D01*
X155951006Y-93075221D01*
X156210000Y-93095604D01*
X156468994Y-93075221D01*
X156473801Y-93074067D01*
X156473807Y-93074066D01*
X156707106Y-93018055D01*
X156721610Y-93014573D01*
X156726183Y-93012679D01*
X156957054Y-92917049D01*
X156957058Y-92917047D01*
X156961628Y-92915154D01*
X157183140Y-92779412D01*
X157380689Y-92610689D01*
X157383897Y-92606933D01*
X157383902Y-92606928D01*
X157384189Y-92606592D01*
X157384330Y-92606500D01*
X157387405Y-92603425D01*
X157388051Y-92604071D01*
X157443639Y-92567783D01*
X157514634Y-92567275D01*
X157571925Y-92604095D01*
X157572595Y-92603425D01*
X157575674Y-92606504D01*
X157575811Y-92606592D01*
X157576098Y-92606928D01*
X157576103Y-92606933D01*
X157579311Y-92610689D01*
X157776860Y-92779412D01*
X157998372Y-92915154D01*
X158002942Y-92917047D01*
X158002946Y-92917049D01*
X158233817Y-93012679D01*
X158238390Y-93014573D01*
X158252894Y-93018055D01*
X158486193Y-93074066D01*
X158486199Y-93074067D01*
X158491006Y-93075221D01*
X158750000Y-93095604D01*
X159008994Y-93075221D01*
X159013801Y-93074067D01*
X159013807Y-93074066D01*
X159247106Y-93018055D01*
X159261610Y-93014573D01*
X159266183Y-93012679D01*
X159497054Y-92917049D01*
X159497058Y-92917047D01*
X159501628Y-92915154D01*
X159723140Y-92779412D01*
X159920689Y-92610689D01*
X159923900Y-92606930D01*
X160007492Y-92509056D01*
X160089412Y-92413140D01*
X160120651Y-92362163D01*
X161329500Y-92362163D01*
X161329501Y-94537836D01*
X161329774Y-94542589D01*
X161370173Y-94717577D01*
X161448336Y-94879266D01*
X161560380Y-95019620D01*
X161700734Y-95131664D01*
X161707077Y-95134730D01*
X161707078Y-95134731D01*
X161753397Y-95157122D01*
X161862423Y-95209827D01*
X161869284Y-95211411D01*
X162032212Y-95249026D01*
X162032215Y-95249026D01*
X162037411Y-95250226D01*
X162042163Y-95250500D01*
X162043987Y-95250500D01*
X162635038Y-95250499D01*
X163217836Y-95250499D01*
X163222589Y-95250226D01*
X163397577Y-95209827D01*
X163506603Y-95157122D01*
X163552922Y-95134731D01*
X163552923Y-95134730D01*
X163559266Y-95131664D01*
X163699620Y-95019620D01*
X163811664Y-94879266D01*
X163889827Y-94717577D01*
X163900918Y-94669535D01*
X163929026Y-94547788D01*
X163929026Y-94547785D01*
X163930226Y-94542589D01*
X163930500Y-94537837D01*
X163930499Y-92362164D01*
X163930226Y-92357411D01*
X163889827Y-92182423D01*
X163823764Y-92045764D01*
X163814731Y-92027078D01*
X163814730Y-92027077D01*
X163811664Y-92020734D01*
X163699620Y-91880380D01*
X163559266Y-91768336D01*
X163397577Y-91690173D01*
X163390716Y-91688589D01*
X163227788Y-91650974D01*
X163227785Y-91650974D01*
X163222589Y-91649774D01*
X163217837Y-91649500D01*
X163216013Y-91649500D01*
X162624962Y-91649501D01*
X162042164Y-91649501D01*
X162037411Y-91649774D01*
X161862423Y-91690173D01*
X161700734Y-91768336D01*
X161560380Y-91880380D01*
X161448336Y-92020734D01*
X161445270Y-92027077D01*
X161445269Y-92027078D01*
X161436236Y-92045764D01*
X161370173Y-92182423D01*
X161368589Y-92189284D01*
X161334773Y-92335759D01*
X161329774Y-92357411D01*
X161329500Y-92362163D01*
X160120651Y-92362163D01*
X160225154Y-92191628D01*
X160232250Y-92174498D01*
X160322679Y-91956183D01*
X160322680Y-91956181D01*
X160324573Y-91951610D01*
X160365139Y-91782641D01*
X160384066Y-91703807D01*
X160384067Y-91703801D01*
X160385221Y-91698994D01*
X160405604Y-91440000D01*
X160385221Y-91181006D01*
X160384067Y-91176199D01*
X160384066Y-91176193D01*
X160344223Y-91010239D01*
X160324573Y-90928390D01*
X160294063Y-90854732D01*
X160227049Y-90692946D01*
X160227047Y-90692942D01*
X160225154Y-90688372D01*
X160089412Y-90466860D01*
X159928176Y-90278077D01*
X159923897Y-90273067D01*
X159920689Y-90269311D01*
X159916933Y-90266103D01*
X159916928Y-90266098D01*
X159916592Y-90265811D01*
X159916500Y-90265670D01*
X159913425Y-90262595D01*
X159914071Y-90261949D01*
X159877783Y-90206361D01*
X159877275Y-90135366D01*
X159914095Y-90078075D01*
X159913425Y-90077405D01*
X159916504Y-90074326D01*
X159916592Y-90074189D01*
X159916928Y-90073902D01*
X159916933Y-90073897D01*
X159920689Y-90070689D01*
X160089412Y-89873140D01*
X160225154Y-89651628D01*
X160232055Y-89634969D01*
X160322679Y-89416183D01*
X160322680Y-89416181D01*
X160324573Y-89411610D01*
X160361935Y-89255988D01*
X160384066Y-89163807D01*
X160384067Y-89163801D01*
X160385221Y-89158994D01*
X160405604Y-88900000D01*
X160385221Y-88641006D01*
X160384067Y-88636199D01*
X160384066Y-88636193D01*
X160325728Y-88393202D01*
X160324573Y-88388390D01*
X160256032Y-88222918D01*
X160227049Y-88152946D01*
X160227047Y-88152942D01*
X160225154Y-88148372D01*
X160089412Y-87926860D01*
X159920689Y-87729311D01*
X159916933Y-87726103D01*
X159916928Y-87726098D01*
X159916592Y-87725811D01*
X159916500Y-87725670D01*
X159913425Y-87722595D01*
X159914071Y-87721949D01*
X159877783Y-87666361D01*
X159877275Y-87595366D01*
X159914095Y-87538075D01*
X159913425Y-87537405D01*
X159916504Y-87534326D01*
X159916592Y-87534189D01*
X159916928Y-87533902D01*
X159916933Y-87533897D01*
X159920689Y-87530689D01*
X160089412Y-87333140D01*
X160225154Y-87111628D01*
X160262301Y-87021949D01*
X160322679Y-86876183D01*
X160322680Y-86876181D01*
X160324573Y-86871610D01*
X160345780Y-86783276D01*
X160384066Y-86623807D01*
X160384067Y-86623801D01*
X160385221Y-86618994D01*
X160405604Y-86360000D01*
X160385221Y-86101006D01*
X160384067Y-86096199D01*
X160384066Y-86096193D01*
X160340339Y-85914060D01*
X160324573Y-85848390D01*
X160322679Y-85843817D01*
X160227049Y-85612946D01*
X160227047Y-85612942D01*
X160225154Y-85608372D01*
X160089412Y-85386860D01*
X159920689Y-85189311D01*
X159916933Y-85186103D01*
X159916928Y-85186098D01*
X159916592Y-85185811D01*
X159916500Y-85185670D01*
X159913425Y-85182595D01*
X159914071Y-85181949D01*
X159877783Y-85126361D01*
X159877275Y-85055366D01*
X159914095Y-84998075D01*
X159913425Y-84997405D01*
X159916504Y-84994326D01*
X159916592Y-84994189D01*
X159916928Y-84993902D01*
X159916933Y-84993897D01*
X159920689Y-84990689D01*
X160089412Y-84793140D01*
X160225154Y-84571628D01*
X160238413Y-84539620D01*
X160322679Y-84336183D01*
X160322680Y-84336181D01*
X160324573Y-84331610D01*
X160368666Y-84147950D01*
X160384066Y-84083807D01*
X160384067Y-84083801D01*
X160385221Y-84078994D01*
X160405604Y-83820000D01*
X160385221Y-83561006D01*
X160384067Y-83556199D01*
X160384066Y-83556193D01*
X160325728Y-83313202D01*
X160324573Y-83308390D01*
X160303499Y-83257512D01*
X160227049Y-83072946D01*
X160227047Y-83072942D01*
X160225154Y-83068372D01*
X160089412Y-82846860D01*
X159920689Y-82649311D01*
X159916933Y-82646103D01*
X159916928Y-82646098D01*
X159916592Y-82645811D01*
X159916500Y-82645670D01*
X159913425Y-82642595D01*
X159914071Y-82641949D01*
X159877783Y-82586361D01*
X159877275Y-82515366D01*
X159914095Y-82458075D01*
X159913425Y-82457405D01*
X159916504Y-82454326D01*
X159916592Y-82454189D01*
X159916928Y-82453902D01*
X159916933Y-82453897D01*
X159920689Y-82450689D01*
X160089412Y-82253140D01*
X160225154Y-82031628D01*
X160234410Y-82009284D01*
X160322679Y-81796183D01*
X160322680Y-81796181D01*
X160324573Y-81791610D01*
X160360263Y-81642951D01*
X160384066Y-81543807D01*
X160384067Y-81543801D01*
X160385221Y-81538994D01*
X160405604Y-81280000D01*
X160385221Y-81021006D01*
X160384067Y-81016199D01*
X160384066Y-81016193D01*
X160325728Y-80773202D01*
X160324573Y-80768390D01*
X160225154Y-80528372D01*
X160089412Y-80306860D01*
X159920689Y-80109311D01*
X159723140Y-79940588D01*
X159605610Y-79868566D01*
X159557979Y-79815918D01*
X159546372Y-79745877D01*
X159574475Y-79680679D01*
X159621708Y-79645365D01*
X159628060Y-79642636D01*
X159723710Y-79601542D01*
X159727690Y-79599079D01*
X159727694Y-79599077D01*
X159947302Y-79463179D01*
X159947306Y-79463176D01*
X159951275Y-79460720D01*
X160076022Y-79355114D01*
X160140938Y-79326365D01*
X160211091Y-79337277D01*
X160246143Y-79361801D01*
X160257390Y-79372950D01*
X160261156Y-79375712D01*
X160261158Y-79375713D01*
X160325414Y-79422827D01*
X160473205Y-79531192D01*
X160477340Y-79533368D01*
X160477344Y-79533370D01*
X160606918Y-79601542D01*
X160710039Y-79655797D01*
X160714458Y-79657340D01*
X160958273Y-79742484D01*
X160958279Y-79742486D01*
X160962690Y-79744026D01*
X160967283Y-79744898D01*
X161113892Y-79772733D01*
X161225606Y-79793943D01*
X161352616Y-79798933D01*
X161488345Y-79804266D01*
X161488350Y-79804266D01*
X161493013Y-79804449D01*
X161588943Y-79793943D01*
X161754382Y-79775825D01*
X161754387Y-79775824D01*
X161759035Y-79775315D01*
X161874567Y-79744898D01*
X162013309Y-79708370D01*
X162017829Y-79707180D01*
X162152084Y-79649500D01*
X162259407Y-79603391D01*
X162259410Y-79603389D01*
X162263710Y-79601542D01*
X162267690Y-79599079D01*
X162267694Y-79599077D01*
X162487302Y-79463179D01*
X162487306Y-79463176D01*
X162491275Y-79460720D01*
X162616022Y-79355114D01*
X162680938Y-79326365D01*
X162751091Y-79337277D01*
X162786143Y-79361801D01*
X162797390Y-79372950D01*
X162801156Y-79375712D01*
X162801158Y-79375713D01*
X162865414Y-79422827D01*
X163013205Y-79531192D01*
X163017340Y-79533368D01*
X163017344Y-79533370D01*
X163146918Y-79601542D01*
X163250039Y-79655797D01*
X163254458Y-79657340D01*
X163498273Y-79742484D01*
X163498279Y-79742486D01*
X163502690Y-79744026D01*
X163507283Y-79744898D01*
X163653892Y-79772733D01*
X163765606Y-79793943D01*
X163892616Y-79798933D01*
X164028345Y-79804266D01*
X164028350Y-79804266D01*
X164033013Y-79804449D01*
X164128943Y-79793943D01*
X164294382Y-79775825D01*
X164294387Y-79775824D01*
X164299035Y-79775315D01*
X164414567Y-79744898D01*
X164553309Y-79708370D01*
X164557829Y-79707180D01*
X164692084Y-79649500D01*
X164799407Y-79603391D01*
X164799410Y-79603389D01*
X164803710Y-79601542D01*
X164807690Y-79599079D01*
X164807694Y-79599077D01*
X165027302Y-79463179D01*
X165027306Y-79463176D01*
X165031275Y-79460720D01*
X165156022Y-79355114D01*
X165220938Y-79326365D01*
X165291091Y-79337277D01*
X165326143Y-79361801D01*
X165337390Y-79372950D01*
X165341156Y-79375712D01*
X165341158Y-79375713D01*
X165405414Y-79422827D01*
X165553205Y-79531192D01*
X165557340Y-79533368D01*
X165557344Y-79533370D01*
X165686918Y-79601542D01*
X165790039Y-79655797D01*
X165794458Y-79657340D01*
X166038273Y-79742484D01*
X166038279Y-79742486D01*
X166042690Y-79744026D01*
X166047283Y-79744898D01*
X166193892Y-79772733D01*
X166305606Y-79793943D01*
X166432616Y-79798933D01*
X166568345Y-79804266D01*
X166568350Y-79804266D01*
X166573013Y-79804449D01*
X166668943Y-79793943D01*
X166834382Y-79775825D01*
X166834387Y-79775824D01*
X166839035Y-79775315D01*
X166954567Y-79744898D01*
X167093309Y-79708370D01*
X167097829Y-79707180D01*
X167232084Y-79649500D01*
X167339407Y-79603391D01*
X167339410Y-79603389D01*
X167343710Y-79601542D01*
X167347690Y-79599079D01*
X167347694Y-79599077D01*
X167567302Y-79463179D01*
X167567306Y-79463176D01*
X167571275Y-79460720D01*
X167696022Y-79355114D01*
X167760938Y-79326365D01*
X167831091Y-79337277D01*
X167866143Y-79361801D01*
X167877390Y-79372950D01*
X167881156Y-79375712D01*
X167881158Y-79375713D01*
X167945414Y-79422827D01*
X168093205Y-79531192D01*
X168097340Y-79533368D01*
X168097344Y-79533370D01*
X168226918Y-79601542D01*
X168330039Y-79655797D01*
X168334458Y-79657340D01*
X168578273Y-79742484D01*
X168578279Y-79742486D01*
X168582690Y-79744026D01*
X168587283Y-79744898D01*
X168733892Y-79772733D01*
X168845606Y-79793943D01*
X168972616Y-79798933D01*
X169108345Y-79804266D01*
X169108350Y-79804266D01*
X169113013Y-79804449D01*
X169208943Y-79793943D01*
X169374382Y-79775825D01*
X169374387Y-79775824D01*
X169379035Y-79775315D01*
X169494567Y-79744898D01*
X169633309Y-79708370D01*
X169637829Y-79707180D01*
X169772084Y-79649500D01*
X169879407Y-79603391D01*
X169879410Y-79603389D01*
X169883710Y-79601542D01*
X169887690Y-79599079D01*
X169887694Y-79599077D01*
X170107302Y-79463179D01*
X170107306Y-79463176D01*
X170111275Y-79460720D01*
X170236022Y-79355114D01*
X170300938Y-79326365D01*
X170371091Y-79337277D01*
X170406143Y-79361801D01*
X170417390Y-79372950D01*
X170421156Y-79375712D01*
X170421158Y-79375713D01*
X170485414Y-79422827D01*
X170633205Y-79531192D01*
X170637340Y-79533368D01*
X170637344Y-79533370D01*
X170766918Y-79601542D01*
X170870039Y-79655797D01*
X170874458Y-79657340D01*
X171118273Y-79742484D01*
X171118279Y-79742486D01*
X171122690Y-79744026D01*
X171127283Y-79744898D01*
X171273892Y-79772733D01*
X171385606Y-79793943D01*
X171512616Y-79798933D01*
X171648345Y-79804266D01*
X171648350Y-79804266D01*
X171653013Y-79804449D01*
X171748943Y-79793943D01*
X171914382Y-79775825D01*
X171914387Y-79775824D01*
X171919035Y-79775315D01*
X172034567Y-79744898D01*
X172173309Y-79708370D01*
X172177829Y-79707180D01*
X172312084Y-79649500D01*
X172419407Y-79603391D01*
X172419410Y-79603389D01*
X172423710Y-79601542D01*
X172427690Y-79599079D01*
X172427694Y-79599077D01*
X172647302Y-79463179D01*
X172647306Y-79463176D01*
X172651275Y-79460720D01*
X172776022Y-79355114D01*
X172840938Y-79326365D01*
X172911091Y-79337277D01*
X172946143Y-79361801D01*
X172957390Y-79372950D01*
X172961156Y-79375712D01*
X172961158Y-79375713D01*
X173025414Y-79422827D01*
X173173205Y-79531192D01*
X173177340Y-79533368D01*
X173177344Y-79533370D01*
X173306918Y-79601542D01*
X173410039Y-79655797D01*
X173414458Y-79657340D01*
X173658273Y-79742484D01*
X173658279Y-79742486D01*
X173662690Y-79744026D01*
X173667283Y-79744898D01*
X173813892Y-79772733D01*
X173925606Y-79793943D01*
X174052616Y-79798933D01*
X174188345Y-79804266D01*
X174188350Y-79804266D01*
X174193013Y-79804449D01*
X174288943Y-79793943D01*
X174454382Y-79775825D01*
X174454387Y-79775824D01*
X174459035Y-79775315D01*
X174574567Y-79744898D01*
X174713309Y-79708370D01*
X174717829Y-79707180D01*
X174852084Y-79649500D01*
X174959407Y-79603391D01*
X174959410Y-79603389D01*
X174963710Y-79601542D01*
X174967690Y-79599079D01*
X174967694Y-79599077D01*
X175187302Y-79463179D01*
X175187306Y-79463176D01*
X175191275Y-79460720D01*
X175242288Y-79417534D01*
X175391960Y-79290828D01*
X175391961Y-79290827D01*
X175395526Y-79287809D01*
X175417920Y-79262274D01*
X175568894Y-79090122D01*
X175568898Y-79090117D01*
X175571976Y-79086607D01*
X175574506Y-79082674D01*
X175714219Y-78865465D01*
X175714222Y-78865460D01*
X175716747Y-78861534D01*
X175826661Y-78617534D01*
X175844540Y-78554141D01*
X175898032Y-78364473D01*
X175898033Y-78364470D01*
X175899302Y-78359969D01*
X175917103Y-78220041D01*
X175932677Y-78097625D01*
X175932677Y-78097621D01*
X175933075Y-78094495D01*
X175935549Y-78000000D01*
X175935040Y-77993156D01*
X175916064Y-77737788D01*
X175916063Y-77737784D01*
X175915717Y-77733123D01*
X175914278Y-77726761D01*
X175857686Y-77476666D01*
X175856655Y-77472109D01*
X175759662Y-77222691D01*
X175626868Y-76990350D01*
X175520906Y-76855938D01*
X175481540Y-76806002D01*
X175455075Y-76740122D01*
X175468428Y-76670393D01*
X175485755Y-76644922D01*
X175571976Y-76546607D01*
X175622975Y-76467320D01*
X175714219Y-76325465D01*
X175714222Y-76325460D01*
X175716747Y-76321534D01*
X175826661Y-76077534D01*
X175827931Y-76073031D01*
X175898032Y-75824473D01*
X175898033Y-75824470D01*
X175899302Y-75819969D01*
X175917103Y-75680041D01*
X175932677Y-75557625D01*
X175932677Y-75557621D01*
X175933075Y-75554495D01*
X175933260Y-75547456D01*
X175935466Y-75463160D01*
X175935549Y-75460000D01*
X175921273Y-75267892D01*
X175916064Y-75197788D01*
X175916063Y-75197784D01*
X175915717Y-75193123D01*
X175913233Y-75182143D01*
X175874118Y-75009284D01*
X175861678Y-74954307D01*
X175866153Y-74883453D01*
X175908224Y-74826264D01*
X175974535Y-74800900D01*
X175984571Y-74800500D01*
X180097501Y-74800500D01*
X180165622Y-74820502D01*
X180212115Y-74874158D01*
X180222219Y-74944432D01*
X180192725Y-75009012D01*
X180154750Y-75037936D01*
X180155022Y-75038431D01*
X180151839Y-75040181D01*
X180148562Y-75041744D01*
X179874974Y-75213366D01*
X179872140Y-75215636D01*
X179872135Y-75215640D01*
X179806914Y-75267892D01*
X179622924Y-75415296D01*
X179395754Y-75644858D01*
X179196474Y-75899008D01*
X179194581Y-75902097D01*
X179194579Y-75902100D01*
X179151650Y-75972154D01*
X179027727Y-76174379D01*
X178891748Y-76467320D01*
X178890608Y-76470767D01*
X178799663Y-76745760D01*
X178790340Y-76773949D01*
X178789604Y-76777504D01*
X178789603Y-76777507D01*
X178738057Y-77026416D01*
X178724848Y-77090201D01*
X178713385Y-77218635D01*
X178696773Y-77404774D01*
X178696138Y-77411885D01*
X178696233Y-77415515D01*
X178696233Y-77415517D01*
X178697623Y-77468601D01*
X178703131Y-77678925D01*
X178704592Y-77734737D01*
X178750098Y-78054477D01*
X178832053Y-78366869D01*
X178949369Y-78667770D01*
X178951073Y-78670988D01*
X179075320Y-78905649D01*
X179100493Y-78953193D01*
X179102545Y-78956178D01*
X179102550Y-78956187D01*
X179281364Y-79216363D01*
X179281370Y-79216370D01*
X179283421Y-79219355D01*
X179386291Y-79337277D01*
X179491344Y-79457702D01*
X179495728Y-79462728D01*
X179734601Y-79680086D01*
X179996874Y-79868548D01*
X180279070Y-80025616D01*
X180577448Y-80149208D01*
X180580942Y-80150203D01*
X180580944Y-80150204D01*
X180884554Y-80236690D01*
X180884559Y-80236691D01*
X180888055Y-80237687D01*
X181107264Y-80273584D01*
X181203192Y-80289293D01*
X181203196Y-80289293D01*
X181206772Y-80289879D01*
X181210398Y-80290050D01*
X181525749Y-80304921D01*
X181525750Y-80304921D01*
X181529376Y-80305092D01*
X181558582Y-80303101D01*
X181847960Y-80283374D01*
X181847968Y-80283373D01*
X181851591Y-80283126D01*
X181855167Y-80282463D01*
X181855169Y-80282463D01*
X182165580Y-80224932D01*
X182165584Y-80224931D01*
X182169145Y-80224271D01*
X182477830Y-80129307D01*
X182711353Y-80026797D01*
X182770232Y-80000951D01*
X182770236Y-80000949D01*
X182773555Y-79999492D01*
X182868863Y-79943799D01*
X183049259Y-79838384D01*
X183049261Y-79838383D01*
X183052399Y-79836549D01*
X183079877Y-79815918D01*
X183307761Y-79644819D01*
X183307765Y-79644816D01*
X183310668Y-79642636D01*
X183544936Y-79420323D01*
X183752101Y-79172557D01*
X183806251Y-79090122D01*
X183927427Y-78905649D01*
X183927432Y-78905640D01*
X183929414Y-78902623D01*
X183960936Y-78839949D01*
X184009412Y-78788080D01*
X184078237Y-78770653D01*
X184145557Y-78793202D01*
X184190000Y-78848567D01*
X184199500Y-78896564D01*
X184199500Y-91523500D01*
X184179498Y-91591621D01*
X184125842Y-91638114D01*
X184073500Y-91649500D01*
X183058402Y-91649501D01*
X183042164Y-91649501D01*
X183037411Y-91649774D01*
X182862423Y-91690173D01*
X182700734Y-91768336D01*
X182560380Y-91880380D01*
X182448336Y-92020734D01*
X182445270Y-92027077D01*
X182445269Y-92027078D01*
X182436236Y-92045764D01*
X182370173Y-92182423D01*
X182368589Y-92189284D01*
X182334773Y-92335759D01*
X182329774Y-92357411D01*
X182329500Y-92362163D01*
X182329501Y-94537836D01*
X182329774Y-94542589D01*
X182370173Y-94717577D01*
X182448336Y-94879266D01*
X182560380Y-95019620D01*
X182700734Y-95131664D01*
X182707077Y-95134730D01*
X182707078Y-95134731D01*
X182753397Y-95157122D01*
X182862423Y-95209827D01*
X182869284Y-95211411D01*
X183032212Y-95249026D01*
X183032215Y-95249026D01*
X183037411Y-95250226D01*
X183042163Y-95250500D01*
X183058678Y-95250500D01*
X184073500Y-95250499D01*
X184141621Y-95270501D01*
X184188114Y-95324157D01*
X184199500Y-95376499D01*
X184199500Y-111104988D01*
X184179498Y-111173109D01*
X184125842Y-111219602D01*
X184055568Y-111229706D01*
X183990988Y-111200212D01*
X183964053Y-111167416D01*
X183854474Y-110975305D01*
X183852677Y-110972154D01*
X183834874Y-110947918D01*
X183663622Y-110714786D01*
X183663620Y-110714783D01*
X183661479Y-110711869D01*
X183441632Y-110475285D01*
X183408453Y-110446947D01*
X183198805Y-110267892D01*
X183196049Y-110265538D01*
X182927986Y-110085407D01*
X182844763Y-110042452D01*
X182644216Y-109938942D01*
X182640996Y-109937280D01*
X182338883Y-109823121D01*
X182335362Y-109822237D01*
X182335357Y-109822235D01*
X182185433Y-109784577D01*
X182025651Y-109744443D01*
X181981421Y-109738620D01*
X181709055Y-109702762D01*
X181709047Y-109702761D01*
X181705451Y-109702288D01*
X181571081Y-109700177D01*
X181386170Y-109697272D01*
X181386166Y-109697272D01*
X181382528Y-109697215D01*
X181378913Y-109697576D01*
X181378908Y-109697576D01*
X181151132Y-109720311D01*
X181061163Y-109729291D01*
X181044137Y-109733003D01*
X181018374Y-109738620D01*
X180947556Y-109733588D01*
X180890700Y-109691068D01*
X180865858Y-109624560D01*
X180880917Y-109555179D01*
X180902438Y-109526417D01*
X181225909Y-109202946D01*
X181240941Y-109190107D01*
X181252692Y-109181569D01*
X181299369Y-109129729D01*
X181303910Y-109124945D01*
X181318725Y-109110130D01*
X181331920Y-109093836D01*
X181336204Y-109088821D01*
X181378447Y-109041905D01*
X181378450Y-109041901D01*
X181382870Y-109036992D01*
X181390133Y-109024412D01*
X181401326Y-109008127D01*
X181406308Y-109001974D01*
X181406310Y-109001972D01*
X181410465Y-108996840D01*
X181442118Y-108934717D01*
X181445266Y-108928919D01*
X181476843Y-108874226D01*
X181476844Y-108874224D01*
X181480144Y-108868508D01*
X181484630Y-108854700D01*
X181492195Y-108836437D01*
X181495792Y-108829377D01*
X181498788Y-108823497D01*
X181502236Y-108810631D01*
X181507978Y-108789199D01*
X181516843Y-108756115D01*
X181518715Y-108749797D01*
X181538222Y-108689761D01*
X181538222Y-108689760D01*
X181540262Y-108683482D01*
X181541779Y-108669049D01*
X181545382Y-108649607D01*
X181549141Y-108635578D01*
X181550073Y-108617805D01*
X181552791Y-108565938D01*
X181553308Y-108559364D01*
X181555156Y-108541778D01*
X181555156Y-108541776D01*
X181555500Y-108538504D01*
X181555500Y-108517536D01*
X181555673Y-108510942D01*
X181558978Y-108447889D01*
X181558978Y-108447884D01*
X181559323Y-108441297D01*
X181557051Y-108426951D01*
X181555500Y-108407242D01*
X181555500Y-108195309D01*
X181575502Y-108127188D01*
X181602891Y-108096838D01*
X181627414Y-108077262D01*
X181699620Y-108019620D01*
X181811664Y-107879266D01*
X181889827Y-107717577D01*
X181911221Y-107624911D01*
X181929026Y-107547788D01*
X181929026Y-107547785D01*
X181930226Y-107542589D01*
X181930500Y-107537837D01*
X181930499Y-105362164D01*
X181930226Y-105357411D01*
X181889827Y-105182423D01*
X181853821Y-105107940D01*
X181814731Y-105027078D01*
X181814730Y-105027077D01*
X181811664Y-105020734D01*
X181699620Y-104880380D01*
X181602891Y-104803162D01*
X181564774Y-104772733D01*
X181559266Y-104768336D01*
X181397577Y-104690173D01*
X181351655Y-104679571D01*
X181227788Y-104650974D01*
X181227785Y-104650974D01*
X181222589Y-104649774D01*
X181217837Y-104649500D01*
X181216013Y-104649500D01*
X180624962Y-104649501D01*
X180042164Y-104649501D01*
X180037411Y-104649774D01*
X180032215Y-104650974D01*
X180032212Y-104650974D01*
X179908343Y-104679571D01*
X179851657Y-104679571D01*
X179768264Y-104660319D01*
X179722589Y-104649774D01*
X179717837Y-104649500D01*
X179716013Y-104649500D01*
X179124962Y-104649501D01*
X178542164Y-104649501D01*
X178537411Y-104649774D01*
X178362423Y-104690173D01*
X178200734Y-104768336D01*
X178195226Y-104772733D01*
X178157109Y-104803162D01*
X178060380Y-104880380D01*
X177948336Y-105020734D01*
X177945270Y-105027077D01*
X177945269Y-105027078D01*
X177906179Y-105107940D01*
X177870173Y-105182423D01*
X177829774Y-105357411D01*
X177829500Y-105362163D01*
X177829501Y-107537836D01*
X177829774Y-107542589D01*
X177870173Y-107717577D01*
X177948336Y-107879266D01*
X177952733Y-107884774D01*
X177984984Y-107925174D01*
X178011852Y-107990891D01*
X177998925Y-108060700D01*
X177950308Y-108112439D01*
X177907851Y-108127963D01*
X177759148Y-108153515D01*
X177747957Y-108155438D01*
X177540957Y-108231804D01*
X177535996Y-108234756D01*
X177535995Y-108234756D01*
X177389599Y-108321853D01*
X177351341Y-108344614D01*
X177185457Y-108490090D01*
X177048863Y-108663360D01*
X176946131Y-108858620D01*
X176908807Y-108978824D01*
X176908219Y-108980718D01*
X176868916Y-109039843D01*
X176803887Y-109068334D01*
X176733777Y-109057144D01*
X176698791Y-109032449D01*
X176096417Y-108430075D01*
X176089485Y-108421865D01*
X176089249Y-108422069D01*
X176085334Y-108417533D01*
X176081863Y-108412640D01*
X176015370Y-108348987D01*
X176013406Y-108347064D01*
X175986070Y-108319728D01*
X175983761Y-108317821D01*
X175983751Y-108317812D01*
X175980426Y-108315066D01*
X175973533Y-108308936D01*
X175934497Y-108271568D01*
X175934496Y-108271568D01*
X175930169Y-108267425D01*
X175925135Y-108264175D01*
X175925133Y-108264173D01*
X175902273Y-108249413D01*
X175890389Y-108240715D01*
X175869412Y-108223392D01*
X175869413Y-108223392D01*
X175864790Y-108219575D01*
X175831235Y-108201242D01*
X175812110Y-108190793D01*
X175804190Y-108186082D01*
X175753754Y-108153515D01*
X175748186Y-108151271D01*
X175748184Y-108151270D01*
X175722961Y-108141105D01*
X175709648Y-108134812D01*
X175685766Y-108121764D01*
X175680506Y-108118890D01*
X175674798Y-108117063D01*
X175674796Y-108117062D01*
X175623336Y-108100590D01*
X175614649Y-108097454D01*
X175564547Y-108077262D01*
X175564545Y-108077261D01*
X175558981Y-108075019D01*
X175526400Y-108068657D01*
X175512137Y-108064995D01*
X175486220Y-108056699D01*
X175486219Y-108056699D01*
X175480506Y-108054870D01*
X175474554Y-108054155D01*
X175420904Y-108047710D01*
X175411784Y-108046273D01*
X175369322Y-108037981D01*
X175352878Y-108034770D01*
X175347357Y-108034500D01*
X175318479Y-108034500D01*
X175303451Y-108033601D01*
X175277956Y-108030538D01*
X175277952Y-108030538D01*
X175272009Y-108029824D01*
X175266033Y-108030247D01*
X175266030Y-108030247D01*
X175210415Y-108034185D01*
X175201516Y-108034500D01*
X166937482Y-108034500D01*
X166869361Y-108014498D01*
X166822868Y-107960842D01*
X166812764Y-107890568D01*
X166824042Y-107853661D01*
X166886761Y-107723919D01*
X166889827Y-107717577D01*
X166911221Y-107624911D01*
X166929026Y-107547788D01*
X166929026Y-107547785D01*
X166930226Y-107542589D01*
X166930500Y-107537837D01*
X166930499Y-105362164D01*
X166930226Y-105357411D01*
X166889827Y-105182423D01*
X166853821Y-105107940D01*
X166814731Y-105027078D01*
X166814730Y-105027077D01*
X166811664Y-105020734D01*
X166699620Y-104880380D01*
X166602890Y-104803161D01*
X166562132Y-104745031D01*
X166555500Y-104704691D01*
X166555500Y-103772758D01*
X166557051Y-103753047D01*
X166558291Y-103745219D01*
X166559323Y-103738703D01*
X166555673Y-103669058D01*
X166555500Y-103662464D01*
X166555500Y-103641496D01*
X166555156Y-103638222D01*
X166553308Y-103620636D01*
X166552791Y-103614062D01*
X166549487Y-103551017D01*
X166549486Y-103551014D01*
X166549141Y-103544422D01*
X166545382Y-103530393D01*
X166541779Y-103510951D01*
X166540952Y-103503084D01*
X166540262Y-103496518D01*
X166518713Y-103430196D01*
X166516841Y-103423878D01*
X166500496Y-103362877D01*
X166500496Y-103362876D01*
X166498788Y-103356503D01*
X166492195Y-103343563D01*
X166484630Y-103325299D01*
X166480144Y-103311492D01*
X166472232Y-103297788D01*
X166445266Y-103251081D01*
X166442118Y-103245283D01*
X166413463Y-103189044D01*
X166410465Y-103183160D01*
X166406308Y-103178026D01*
X166401326Y-103171873D01*
X166390131Y-103155585D01*
X166382870Y-103143008D01*
X166378450Y-103138099D01*
X166378447Y-103138095D01*
X166336204Y-103091179D01*
X166331930Y-103086176D01*
X166328933Y-103082476D01*
X166301372Y-103014698D01*
X166295983Y-102956045D01*
X166295983Y-102956044D01*
X166295454Y-102950289D01*
X166235565Y-102737936D01*
X166137980Y-102540053D01*
X166063447Y-102440241D01*
X166009420Y-102367891D01*
X166009420Y-102367890D01*
X166005967Y-102363267D01*
X165843949Y-102213499D01*
X165657350Y-102095764D01*
X165452421Y-102014006D01*
X165446764Y-102012881D01*
X165446758Y-102012879D01*
X165373336Y-101998275D01*
X165331918Y-101990036D01*
X165269009Y-101957130D01*
X165233877Y-101895435D01*
X165230500Y-101866458D01*
X165230500Y-100694944D01*
X165237187Y-100654443D01*
X165280475Y-100526921D01*
X165280476Y-100526916D01*
X165282331Y-100521452D01*
X165283159Y-100515743D01*
X165283160Y-100515738D01*
X165313458Y-100306772D01*
X165313991Y-100303098D01*
X165315643Y-100240000D01*
X165295454Y-100020289D01*
X165235565Y-99807936D01*
X165137980Y-99610053D01*
X165094931Y-99552403D01*
X165009420Y-99437891D01*
X165009420Y-99437890D01*
X165005967Y-99433267D01*
X164843949Y-99283499D01*
X164657350Y-99165764D01*
X164452421Y-99084006D01*
X164446761Y-99082880D01*
X164446757Y-99082879D01*
X164241691Y-99042089D01*
X164241688Y-99042089D01*
X164236024Y-99040962D01*
X164230249Y-99040886D01*
X164230245Y-99040886D01*
X164119504Y-99039437D01*
X164015406Y-99038074D01*
X164009709Y-99039053D01*
X164009708Y-99039053D01*
X163803654Y-99074459D01*
X163803653Y-99074459D01*
X163797957Y-99075438D01*
X163590957Y-99151804D01*
X163585996Y-99154756D01*
X163585995Y-99154756D01*
X163458517Y-99230598D01*
X163401341Y-99264614D01*
X163235457Y-99410090D01*
X163098863Y-99583360D01*
X162996131Y-99778620D01*
X162974720Y-99847576D01*
X162937140Y-99968604D01*
X162930703Y-99989333D01*
X162904770Y-100208440D01*
X162919200Y-100428604D01*
X162920621Y-100434200D01*
X162920622Y-100434205D01*
X162953333Y-100563002D01*
X162973511Y-100642452D01*
X162975928Y-100647694D01*
X162975928Y-100647695D01*
X163017926Y-100738795D01*
X163029500Y-100791546D01*
X163029500Y-104874938D01*
X163009498Y-104943059D01*
X163001972Y-104953546D01*
X162948336Y-105020734D01*
X162945270Y-105027077D01*
X162945269Y-105027078D01*
X162906179Y-105107940D01*
X162870173Y-105182423D01*
X162829774Y-105357411D01*
X162829500Y-105362163D01*
X162829500Y-105363987D01*
X162829501Y-107481707D01*
X162809499Y-107549828D01*
X162755843Y-107596321D01*
X162685569Y-107606425D01*
X162646302Y-107593975D01*
X162614703Y-107577875D01*
X162608919Y-107574734D01*
X162554226Y-107543157D01*
X162554224Y-107543156D01*
X162548508Y-107539856D01*
X162534700Y-107535370D01*
X162516437Y-107527805D01*
X162509377Y-107524208D01*
X162503497Y-107521212D01*
X162436115Y-107503157D01*
X162429804Y-107501287D01*
X162363482Y-107479738D01*
X162349049Y-107478221D01*
X162329607Y-107474618D01*
X162315578Y-107470859D01*
X162308986Y-107470514D01*
X162308983Y-107470513D01*
X162245938Y-107467209D01*
X162239364Y-107466692D01*
X162221778Y-107464844D01*
X162221776Y-107464844D01*
X162218504Y-107464500D01*
X162197536Y-107464500D01*
X162190942Y-107464327D01*
X162127889Y-107461022D01*
X162127884Y-107461022D01*
X162121297Y-107460677D01*
X162106951Y-107462949D01*
X162087242Y-107464500D01*
X160245545Y-107464500D01*
X160177424Y-107444498D01*
X160156450Y-107427595D01*
X157327405Y-104598550D01*
X157293379Y-104536238D01*
X157290500Y-104509455D01*
X157290500Y-103487759D01*
X157292051Y-103468048D01*
X157293291Y-103460220D01*
X157294323Y-103453704D01*
X157293092Y-103430203D01*
X157290673Y-103384059D01*
X157290500Y-103377465D01*
X157290500Y-103356496D01*
X157288308Y-103335639D01*
X157287791Y-103329064D01*
X157284487Y-103266016D01*
X157284486Y-103266012D01*
X157284141Y-103259422D01*
X157280382Y-103245393D01*
X157276779Y-103225951D01*
X157275952Y-103218084D01*
X157275262Y-103211518D01*
X157253713Y-103145196D01*
X157251841Y-103138878D01*
X157235496Y-103077877D01*
X157235496Y-103077876D01*
X157233788Y-103071503D01*
X157227195Y-103058563D01*
X157219630Y-103040299D01*
X157215144Y-103026492D01*
X157208335Y-103014698D01*
X157180266Y-102966081D01*
X157177118Y-102960283D01*
X157148463Y-102904044D01*
X157145465Y-102898160D01*
X157141308Y-102893026D01*
X157136326Y-102886873D01*
X157125131Y-102870585D01*
X157117870Y-102858008D01*
X157113450Y-102853099D01*
X157113447Y-102853095D01*
X157071204Y-102806179D01*
X157066920Y-102801164D01*
X157055801Y-102787434D01*
X157053725Y-102784870D01*
X157038910Y-102770055D01*
X157034369Y-102765271D01*
X156992107Y-102718334D01*
X156992105Y-102718333D01*
X156987692Y-102713431D01*
X156975941Y-102704893D01*
X156960909Y-102692054D01*
X155322947Y-101054091D01*
X155310109Y-101039062D01*
X155305447Y-101032646D01*
X155301569Y-101027308D01*
X155249729Y-100980631D01*
X155244945Y-100976090D01*
X155230130Y-100961275D01*
X155216793Y-100950475D01*
X155213836Y-100948080D01*
X155208821Y-100943796D01*
X155161905Y-100901553D01*
X155161901Y-100901550D01*
X155156992Y-100897130D01*
X155144412Y-100889867D01*
X155128127Y-100878674D01*
X155121974Y-100873692D01*
X155121972Y-100873690D01*
X155116840Y-100869535D01*
X155057971Y-100839540D01*
X155054717Y-100837882D01*
X155048919Y-100834734D01*
X154994226Y-100803157D01*
X154994224Y-100803156D01*
X154988508Y-100799856D01*
X154974700Y-100795370D01*
X154956437Y-100787805D01*
X154949377Y-100784208D01*
X154943497Y-100781212D01*
X154876115Y-100763157D01*
X154869804Y-100761287D01*
X154803482Y-100739738D01*
X154789049Y-100738221D01*
X154769607Y-100734618D01*
X154755578Y-100730859D01*
X154748986Y-100730514D01*
X154748983Y-100730513D01*
X154685938Y-100727209D01*
X154679364Y-100726692D01*
X154661778Y-100724844D01*
X154661776Y-100724844D01*
X154658504Y-100724500D01*
X154637536Y-100724500D01*
X154630942Y-100724327D01*
X154567889Y-100721022D01*
X154567884Y-100721022D01*
X154561297Y-100720677D01*
X154546951Y-100722949D01*
X154527242Y-100724500D01*
X153745545Y-100724500D01*
X153677424Y-100704498D01*
X153656450Y-100687595D01*
X151409450Y-98440595D01*
X151375424Y-98378283D01*
X151380489Y-98307468D01*
X151423036Y-98250632D01*
X151489556Y-98225821D01*
X151498545Y-98225500D01*
X158924485Y-98225500D01*
X158992606Y-98245502D01*
X159039099Y-98299158D01*
X159047004Y-98322086D01*
X159060877Y-98379871D01*
X159062769Y-98384438D01*
X159062771Y-98384445D01*
X159123131Y-98530168D01*
X159134695Y-98558086D01*
X159235484Y-98722558D01*
X159360761Y-98869239D01*
X159507442Y-98994516D01*
X159671914Y-99095305D01*
X159676484Y-99097198D01*
X159676488Y-99097200D01*
X159845555Y-99167229D01*
X159845562Y-99167231D01*
X159850129Y-99169123D01*
X159915557Y-99184831D01*
X160032884Y-99212999D01*
X160032890Y-99213000D01*
X160037697Y-99214154D01*
X160178808Y-99225260D01*
X160182037Y-99225557D01*
X160230000Y-99230598D01*
X160277963Y-99225557D01*
X160281192Y-99225260D01*
X160422303Y-99214154D01*
X160427110Y-99213000D01*
X160427116Y-99212999D01*
X160544443Y-99184831D01*
X160609871Y-99169123D01*
X160614438Y-99167231D01*
X160614445Y-99167229D01*
X160781782Y-99097916D01*
X160852372Y-99090327D01*
X160878218Y-99097916D01*
X161045555Y-99167229D01*
X161045562Y-99167231D01*
X161050129Y-99169123D01*
X161115557Y-99184831D01*
X161232884Y-99212999D01*
X161232890Y-99213000D01*
X161237697Y-99214154D01*
X161378808Y-99225260D01*
X161382037Y-99225557D01*
X161430000Y-99230598D01*
X161477963Y-99225557D01*
X161481192Y-99225260D01*
X161622303Y-99214154D01*
X161627110Y-99213000D01*
X161627116Y-99212999D01*
X161744443Y-99184831D01*
X161809871Y-99169123D01*
X161814438Y-99167231D01*
X161814445Y-99167229D01*
X161983512Y-99097200D01*
X161983516Y-99097198D01*
X161988086Y-99095305D01*
X162152558Y-98994516D01*
X162299239Y-98869239D01*
X162424516Y-98722558D01*
X162525305Y-98558086D01*
X162536869Y-98530168D01*
X162597229Y-98384445D01*
X162597231Y-98384438D01*
X162599123Y-98379871D01*
X162612996Y-98322086D01*
X162648348Y-98260517D01*
X162711375Y-98227834D01*
X162735515Y-98225500D01*
X166917242Y-98225500D01*
X166936951Y-98227051D01*
X166951297Y-98229323D01*
X166957884Y-98228978D01*
X166957889Y-98228978D01*
X167020942Y-98225673D01*
X167027536Y-98225500D01*
X167048504Y-98225500D01*
X167051776Y-98225156D01*
X167051778Y-98225156D01*
X167069364Y-98223308D01*
X167075938Y-98222791D01*
X167138983Y-98219487D01*
X167138986Y-98219486D01*
X167145578Y-98219141D01*
X167159607Y-98215382D01*
X167179049Y-98211779D01*
X167193482Y-98210262D01*
X167259804Y-98188713D01*
X167266115Y-98186843D01*
X167333497Y-98168788D01*
X167339377Y-98165792D01*
X167346437Y-98162195D01*
X167364701Y-98154630D01*
X167378508Y-98150144D01*
X167384224Y-98146844D01*
X167384226Y-98146843D01*
X167438919Y-98115266D01*
X167444717Y-98112118D01*
X167500956Y-98083463D01*
X167506840Y-98080465D01*
X167511974Y-98076308D01*
X167518127Y-98071326D01*
X167534412Y-98060133D01*
X167546992Y-98052870D01*
X167551901Y-98048450D01*
X167551905Y-98048447D01*
X167598821Y-98006204D01*
X167603836Y-98001920D01*
X167612475Y-97994924D01*
X167620130Y-97988725D01*
X167634945Y-97973910D01*
X167639729Y-97969369D01*
X167686666Y-97927107D01*
X167686667Y-97927105D01*
X167691569Y-97922692D01*
X167700109Y-97910938D01*
X167712946Y-97895909D01*
X167933359Y-97675496D01*
X167995669Y-97641472D01*
X168066485Y-97646536D01*
X168099865Y-97665598D01*
X168101264Y-97666961D01*
X168106063Y-97670168D01*
X168106066Y-97670170D01*
X168190261Y-97726427D01*
X168284717Y-97789540D01*
X168290020Y-97791818D01*
X168290023Y-97791820D01*
X168459533Y-97864647D01*
X168487436Y-97876635D01*
X168567088Y-97894658D01*
X168696995Y-97924054D01*
X168697001Y-97924055D01*
X168702632Y-97925329D01*
X168708403Y-97925556D01*
X168708405Y-97925556D01*
X168776211Y-97928220D01*
X168923098Y-97933991D01*
X169037841Y-97917354D01*
X169135738Y-97903160D01*
X169135743Y-97903159D01*
X169141452Y-97902331D01*
X169146916Y-97900476D01*
X169146921Y-97900475D01*
X169344907Y-97833268D01*
X169344912Y-97833266D01*
X169350379Y-97831410D01*
X169356658Y-97827894D01*
X169430875Y-97786330D01*
X169542884Y-97723602D01*
X169712518Y-97582518D01*
X169853602Y-97412884D01*
X169961410Y-97220379D01*
X169963266Y-97214912D01*
X169963268Y-97214907D01*
X170030475Y-97016921D01*
X170030476Y-97016916D01*
X170032331Y-97011452D01*
X170033159Y-97005743D01*
X170033160Y-97005738D01*
X170050903Y-96883365D01*
X170080473Y-96818819D01*
X170086504Y-96812350D01*
X170646449Y-96252405D01*
X170708761Y-96218379D01*
X170735544Y-96215500D01*
X180047242Y-96215500D01*
X180066951Y-96217051D01*
X180081297Y-96219323D01*
X180087884Y-96218978D01*
X180087889Y-96218978D01*
X180150942Y-96215673D01*
X180157536Y-96215500D01*
X180178504Y-96215500D01*
X180181776Y-96215156D01*
X180181778Y-96215156D01*
X180199364Y-96213308D01*
X180205938Y-96212791D01*
X180268983Y-96209487D01*
X180268986Y-96209486D01*
X180275578Y-96209141D01*
X180289607Y-96205382D01*
X180309049Y-96201779D01*
X180323482Y-96200262D01*
X180389804Y-96178713D01*
X180396115Y-96176843D01*
X180463497Y-96158788D01*
X180469377Y-96155792D01*
X180476437Y-96152195D01*
X180494701Y-96144630D01*
X180508508Y-96140144D01*
X180514224Y-96136844D01*
X180514226Y-96136843D01*
X180568919Y-96105266D01*
X180574717Y-96102118D01*
X180630956Y-96073463D01*
X180636840Y-96070465D01*
X180641974Y-96066308D01*
X180648127Y-96061326D01*
X180664412Y-96050133D01*
X180676992Y-96042870D01*
X180681901Y-96038450D01*
X180681905Y-96038447D01*
X180728821Y-95996204D01*
X180733836Y-95991920D01*
X180747566Y-95980801D01*
X180750130Y-95978725D01*
X180764945Y-95963910D01*
X180769729Y-95959369D01*
X180816666Y-95917107D01*
X180816667Y-95917105D01*
X180821569Y-95912692D01*
X180830107Y-95900941D01*
X180842946Y-95885909D01*
X181225909Y-95502946D01*
X181240941Y-95490107D01*
X181252692Y-95481569D01*
X181299369Y-95429729D01*
X181303910Y-95424945D01*
X181318725Y-95410130D01*
X181331920Y-95393836D01*
X181336204Y-95388821D01*
X181378447Y-95341905D01*
X181378450Y-95341901D01*
X181382870Y-95336992D01*
X181390133Y-95324412D01*
X181401326Y-95308127D01*
X181406308Y-95301974D01*
X181406310Y-95301972D01*
X181410465Y-95296840D01*
X181442118Y-95234717D01*
X181445266Y-95228919D01*
X181459638Y-95204026D01*
X181513918Y-95153586D01*
X181552922Y-95134731D01*
X181552923Y-95134730D01*
X181559266Y-95131664D01*
X181699620Y-95019620D01*
X181811664Y-94879266D01*
X181889827Y-94717577D01*
X181900918Y-94669535D01*
X181929026Y-94547788D01*
X181929026Y-94547785D01*
X181930226Y-94542589D01*
X181930500Y-94537837D01*
X181930499Y-92362164D01*
X181930226Y-92357411D01*
X181889827Y-92182423D01*
X181823764Y-92045764D01*
X181814731Y-92027078D01*
X181814730Y-92027077D01*
X181811664Y-92020734D01*
X181699620Y-91880380D01*
X181559266Y-91768336D01*
X181397577Y-91690173D01*
X181390716Y-91688589D01*
X181227788Y-91650974D01*
X181227785Y-91650974D01*
X181222589Y-91649774D01*
X181217837Y-91649500D01*
X181201251Y-91649500D01*
X180181500Y-91649501D01*
X180113379Y-91629499D01*
X180066886Y-91575843D01*
X180055500Y-91523501D01*
X180055500Y-91292758D01*
X180057051Y-91273047D01*
X180058291Y-91265219D01*
X180059323Y-91258703D01*
X180055673Y-91189058D01*
X180055500Y-91182464D01*
X180055500Y-91161496D01*
X180055156Y-91158222D01*
X180053308Y-91140636D01*
X180052791Y-91134062D01*
X180049487Y-91071017D01*
X180049486Y-91071014D01*
X180049141Y-91064422D01*
X180045382Y-91050393D01*
X180041779Y-91030951D01*
X180040952Y-91023084D01*
X180040262Y-91016518D01*
X180018713Y-90950196D01*
X180016841Y-90943878D01*
X180013981Y-90933202D01*
X179998788Y-90876503D01*
X179992195Y-90863563D01*
X179984630Y-90845299D01*
X179980144Y-90831492D01*
X179976843Y-90825774D01*
X179945266Y-90771081D01*
X179942118Y-90765283D01*
X179913463Y-90709044D01*
X179910465Y-90703160D01*
X179906308Y-90698026D01*
X179901326Y-90691873D01*
X179890131Y-90675585D01*
X179882870Y-90663008D01*
X179878450Y-90658099D01*
X179878447Y-90658095D01*
X179836204Y-90611179D01*
X179831920Y-90606164D01*
X179820801Y-90592434D01*
X179818725Y-90589870D01*
X179803910Y-90575055D01*
X179799369Y-90570271D01*
X179757107Y-90523334D01*
X179757105Y-90523333D01*
X179752692Y-90518431D01*
X179740941Y-90509893D01*
X179725909Y-90497054D01*
X179099713Y-89870858D01*
X179065687Y-89808546D01*
X179070752Y-89737731D01*
X179113299Y-89680895D01*
X179122973Y-89674330D01*
X179207805Y-89622345D01*
X179343140Y-89539412D01*
X179540689Y-89370689D01*
X179543897Y-89366933D01*
X179543902Y-89366928D01*
X179544189Y-89366592D01*
X179544330Y-89366500D01*
X179547405Y-89363425D01*
X179548051Y-89364071D01*
X179603639Y-89327783D01*
X179674634Y-89327275D01*
X179731925Y-89364095D01*
X179732595Y-89363425D01*
X179735674Y-89366504D01*
X179735811Y-89366592D01*
X179736098Y-89366928D01*
X179736103Y-89366933D01*
X179739311Y-89370689D01*
X179936860Y-89539412D01*
X180158372Y-89675154D01*
X180162942Y-89677047D01*
X180162946Y-89677049D01*
X180393817Y-89772679D01*
X180398390Y-89774573D01*
X180450473Y-89787077D01*
X180646193Y-89834066D01*
X180646199Y-89834067D01*
X180651006Y-89835221D01*
X180910000Y-89855604D01*
X181168994Y-89835221D01*
X181173801Y-89834067D01*
X181173807Y-89834066D01*
X181369527Y-89787077D01*
X181421610Y-89774573D01*
X181426183Y-89772679D01*
X181657054Y-89677049D01*
X181657058Y-89677047D01*
X181661628Y-89675154D01*
X181883140Y-89539412D01*
X182080689Y-89370689D01*
X182249412Y-89173140D01*
X182385154Y-88951628D01*
X182408582Y-88895070D01*
X182482679Y-88716183D01*
X182482680Y-88716181D01*
X182484573Y-88711610D01*
X182535931Y-88497691D01*
X182544066Y-88463807D01*
X182544067Y-88463801D01*
X182545221Y-88458994D01*
X182565604Y-88200000D01*
X182545221Y-87941006D01*
X182544067Y-87936199D01*
X182544066Y-87936193D01*
X182485728Y-87693202D01*
X182484573Y-87688390D01*
X182445326Y-87593639D01*
X182387049Y-87452946D01*
X182387047Y-87452942D01*
X182385154Y-87448372D01*
X182249412Y-87226860D01*
X182080689Y-87029311D01*
X182076933Y-87026103D01*
X182076928Y-87026098D01*
X182076592Y-87025811D01*
X182076500Y-87025670D01*
X182073425Y-87022595D01*
X182074071Y-87021949D01*
X182037783Y-86966361D01*
X182037275Y-86895366D01*
X182074095Y-86838075D01*
X182073425Y-86837405D01*
X182076504Y-86834326D01*
X182076592Y-86834189D01*
X182076928Y-86833902D01*
X182076933Y-86833897D01*
X182080689Y-86830689D01*
X182249412Y-86633140D01*
X182385154Y-86411628D01*
X182408582Y-86355070D01*
X182482679Y-86176183D01*
X182482680Y-86176181D01*
X182484573Y-86171610D01*
X182518262Y-86031285D01*
X182544066Y-85923807D01*
X182544067Y-85923801D01*
X182545221Y-85918994D01*
X182565604Y-85660000D01*
X182545221Y-85401006D01*
X182544067Y-85396199D01*
X182544066Y-85396193D01*
X182485728Y-85153202D01*
X182484573Y-85148390D01*
X182445326Y-85053639D01*
X182387049Y-84912946D01*
X182387047Y-84912942D01*
X182385154Y-84908372D01*
X182249412Y-84686860D01*
X182080689Y-84489311D01*
X182076933Y-84486103D01*
X182076928Y-84486098D01*
X182076592Y-84485811D01*
X182076500Y-84485670D01*
X182073425Y-84482595D01*
X182074071Y-84481949D01*
X182037783Y-84426361D01*
X182037275Y-84355366D01*
X182074095Y-84298075D01*
X182073425Y-84297405D01*
X182076504Y-84294326D01*
X182076592Y-84294189D01*
X182076928Y-84293902D01*
X182076933Y-84293897D01*
X182080689Y-84290689D01*
X182249412Y-84093140D01*
X182385154Y-83871628D01*
X182408582Y-83815070D01*
X182482679Y-83636183D01*
X182482680Y-83636181D01*
X182484573Y-83631610D01*
X182540947Y-83396798D01*
X182544066Y-83383807D01*
X182544067Y-83383801D01*
X182545221Y-83378994D01*
X182565604Y-83120000D01*
X182545221Y-82861006D01*
X182544067Y-82856199D01*
X182544066Y-82856193D01*
X182485728Y-82613202D01*
X182484573Y-82608390D01*
X182445326Y-82513639D01*
X182387049Y-82372946D01*
X182387047Y-82372942D01*
X182385154Y-82368372D01*
X182249412Y-82146860D01*
X182080689Y-81949311D01*
X181883140Y-81780588D01*
X181661628Y-81644846D01*
X181657058Y-81642953D01*
X181657054Y-81642951D01*
X181426183Y-81547321D01*
X181426181Y-81547320D01*
X181421610Y-81545427D01*
X181305882Y-81517643D01*
X181173807Y-81485934D01*
X181173801Y-81485933D01*
X181168994Y-81484779D01*
X180910000Y-81464396D01*
X180651006Y-81484779D01*
X180646199Y-81485933D01*
X180646193Y-81485934D01*
X180514118Y-81517643D01*
X180398390Y-81545427D01*
X180393819Y-81547320D01*
X180393817Y-81547321D01*
X180162946Y-81642951D01*
X180162942Y-81642953D01*
X180158372Y-81644846D01*
X180018589Y-81730505D01*
X179975865Y-81756686D01*
X179907331Y-81775224D01*
X179839654Y-81753767D01*
X179811559Y-81727863D01*
X179789620Y-81700380D01*
X179649266Y-81588336D01*
X179487577Y-81510173D01*
X179480716Y-81508589D01*
X179317788Y-81470974D01*
X179317785Y-81470974D01*
X179312589Y-81469774D01*
X179307837Y-81469500D01*
X179306013Y-81469500D01*
X178361963Y-81469501D01*
X177432164Y-81469501D01*
X177427411Y-81469774D01*
X177252423Y-81510173D01*
X177090734Y-81588336D01*
X176950380Y-81700380D01*
X176838336Y-81840734D01*
X176760173Y-82002423D01*
X176758589Y-82009284D01*
X176753431Y-82031628D01*
X176719774Y-82177411D01*
X176719500Y-82182163D01*
X176719500Y-82183987D01*
X176719501Y-83124930D01*
X176719501Y-84057836D01*
X176719774Y-84062589D01*
X176760173Y-84237577D01*
X176785848Y-84290689D01*
X176833857Y-84390000D01*
X176838336Y-84399266D01*
X176950380Y-84539620D01*
X177090734Y-84651664D01*
X177252423Y-84729827D01*
X177259284Y-84731411D01*
X177422212Y-84769026D01*
X177422215Y-84769026D01*
X177427411Y-84770226D01*
X177432163Y-84770500D01*
X177977118Y-84770500D01*
X179303382Y-84770499D01*
X179371503Y-84790501D01*
X179417996Y-84844157D01*
X179428100Y-84914431D01*
X179419791Y-84944717D01*
X179374674Y-85053639D01*
X179335427Y-85148390D01*
X179334272Y-85153202D01*
X179275934Y-85396193D01*
X179275933Y-85396199D01*
X179274779Y-85401006D01*
X179254396Y-85660000D01*
X179254784Y-85664930D01*
X179270027Y-85858614D01*
X179255431Y-85928094D01*
X179205588Y-85978654D01*
X179144415Y-85994500D01*
X176222758Y-85994500D01*
X176203049Y-85992949D01*
X176188703Y-85990677D01*
X176182116Y-85991022D01*
X176182111Y-85991022D01*
X176119058Y-85994327D01*
X176112464Y-85994500D01*
X176091496Y-85994500D01*
X176088224Y-85994844D01*
X176088222Y-85994844D01*
X176070636Y-85996692D01*
X176064062Y-85997209D01*
X176001017Y-86000513D01*
X176001014Y-86000514D01*
X175994422Y-86000859D01*
X175980393Y-86004618D01*
X175960951Y-86008221D01*
X175946518Y-86009738D01*
X175880196Y-86031287D01*
X175873885Y-86033157D01*
X175806503Y-86051212D01*
X175800623Y-86054208D01*
X175793563Y-86057805D01*
X175775300Y-86065370D01*
X175761492Y-86069856D01*
X175755776Y-86073156D01*
X175755774Y-86073157D01*
X175701081Y-86104734D01*
X175695283Y-86107882D01*
X175633160Y-86139535D01*
X175628028Y-86143690D01*
X175628026Y-86143692D01*
X175621873Y-86148674D01*
X175605588Y-86159867D01*
X175593008Y-86167130D01*
X175588099Y-86171550D01*
X175588095Y-86171553D01*
X175541179Y-86213796D01*
X175536164Y-86218080D01*
X175527525Y-86225076D01*
X175519870Y-86231275D01*
X175505055Y-86246090D01*
X175500271Y-86250631D01*
X175448431Y-86297308D01*
X175439891Y-86309063D01*
X175427060Y-86324085D01*
X171458637Y-90292508D01*
X171365557Y-90385589D01*
X171341506Y-90409640D01*
X171279194Y-90443666D01*
X171208378Y-90438601D01*
X171186584Y-90427981D01*
X171135910Y-90396928D01*
X171131340Y-90395035D01*
X171131336Y-90395033D01*
X170962258Y-90324998D01*
X170962257Y-90324998D01*
X170957695Y-90323108D01*
X170925366Y-90315347D01*
X170774939Y-90279232D01*
X170774933Y-90279231D01*
X170770126Y-90278077D01*
X170577822Y-90262942D01*
X170385518Y-90278077D01*
X170380711Y-90279231D01*
X170380705Y-90279232D01*
X170230278Y-90315347D01*
X170197949Y-90323108D01*
X170193387Y-90324998D01*
X170193386Y-90324998D01*
X170024308Y-90395033D01*
X170024304Y-90395035D01*
X170019734Y-90396928D01*
X170015510Y-90399516D01*
X170015507Y-90399518D01*
X169993778Y-90412834D01*
X169925245Y-90431373D01*
X169857568Y-90409917D01*
X169812235Y-90355278D01*
X169803638Y-90284804D01*
X169821972Y-90237240D01*
X169884215Y-90140471D01*
X169884217Y-90140468D01*
X169886747Y-90136534D01*
X169996661Y-89892534D01*
X170030464Y-89772679D01*
X170068032Y-89639473D01*
X170068033Y-89639470D01*
X170069302Y-89634969D01*
X170087103Y-89495041D01*
X170102677Y-89372625D01*
X170102677Y-89372621D01*
X170103075Y-89369495D01*
X170103217Y-89364095D01*
X170105466Y-89278160D01*
X170105549Y-89275000D01*
X170097980Y-89173140D01*
X170086064Y-89012788D01*
X170086063Y-89012784D01*
X170085717Y-89008123D01*
X170075161Y-88961470D01*
X170027686Y-88751666D01*
X170026655Y-88747109D01*
X169929662Y-88497691D01*
X169796868Y-88265350D01*
X169631190Y-88055189D01*
X169436269Y-87871825D01*
X169354680Y-87815225D01*
X169310111Y-87759963D01*
X169300500Y-87711698D01*
X169300500Y-84343531D01*
X169320502Y-84275410D01*
X169354378Y-84242109D01*
X169353519Y-84240927D01*
X169357302Y-84238179D01*
X169361275Y-84235720D01*
X169390811Y-84210716D01*
X169561960Y-84065828D01*
X169561961Y-84065827D01*
X169565526Y-84062809D01*
X169733188Y-83871628D01*
X169738894Y-83865122D01*
X169738898Y-83865117D01*
X169741976Y-83861607D01*
X169744506Y-83857674D01*
X169884219Y-83640465D01*
X169884222Y-83640460D01*
X169886747Y-83636534D01*
X169996661Y-83392534D01*
X170069302Y-83134969D01*
X170087103Y-82995041D01*
X170102677Y-82872625D01*
X170102677Y-82872621D01*
X170103075Y-82869495D01*
X170103298Y-82861006D01*
X170105466Y-82778160D01*
X170105549Y-82775000D01*
X170095939Y-82645674D01*
X170086064Y-82512788D01*
X170086063Y-82512784D01*
X170085717Y-82508123D01*
X170075161Y-82461470D01*
X170027686Y-82251666D01*
X170026655Y-82247109D01*
X169989309Y-82151074D01*
X169931355Y-82002044D01*
X169931354Y-82002042D01*
X169929662Y-81997691D01*
X169796868Y-81765350D01*
X169631190Y-81555189D01*
X169436269Y-81371825D01*
X169216385Y-81219286D01*
X169212194Y-81217219D01*
X168980559Y-81102989D01*
X168980556Y-81102988D01*
X168976371Y-81100924D01*
X168721497Y-81019338D01*
X168576134Y-80995665D01*
X168461976Y-80977073D01*
X168461975Y-80977073D01*
X168457364Y-80976322D01*
X168323569Y-80974571D01*
X168194451Y-80972880D01*
X168194448Y-80972880D01*
X168189774Y-80972819D01*
X167924605Y-81008907D01*
X167920118Y-81010215D01*
X167920117Y-81010215D01*
X167888817Y-81019338D01*
X167667683Y-81083792D01*
X167663430Y-81085752D01*
X167663429Y-81085753D01*
X167611512Y-81109687D01*
X167424652Y-81195831D01*
X167420743Y-81198394D01*
X167204764Y-81339996D01*
X167204759Y-81340000D01*
X167200851Y-81342562D01*
X167101024Y-81431661D01*
X167009624Y-81513239D01*
X167001197Y-81520760D01*
X166830075Y-81726512D01*
X166827652Y-81730505D01*
X166696824Y-81946103D01*
X166691244Y-81955298D01*
X166689437Y-81959606D01*
X166689437Y-81959607D01*
X166595347Y-82183987D01*
X166587755Y-82202091D01*
X166586604Y-82206623D01*
X166586603Y-82206626D01*
X166545525Y-82368372D01*
X166521881Y-82461470D01*
X166495070Y-82727736D01*
X166507909Y-82995041D01*
X166560118Y-83257512D01*
X166650549Y-83509383D01*
X166652765Y-83513507D01*
X166720982Y-83640465D01*
X166777215Y-83745121D01*
X166780010Y-83748864D01*
X166780012Y-83748867D01*
X166874834Y-83875848D01*
X166937335Y-83959547D01*
X166940642Y-83962825D01*
X166940647Y-83962831D01*
X167067848Y-84088926D01*
X167127390Y-84147950D01*
X167248006Y-84236389D01*
X167291113Y-84292799D01*
X167299500Y-84338000D01*
X167299500Y-87709828D01*
X167279498Y-87777949D01*
X167242585Y-87815200D01*
X167204764Y-87839996D01*
X167204759Y-87840000D01*
X167200851Y-87842562D01*
X167001197Y-88020760D01*
X166998204Y-88024359D01*
X166848025Y-88204930D01*
X166830075Y-88226512D01*
X166691244Y-88455298D01*
X166587755Y-88702091D01*
X166586604Y-88706623D01*
X166586603Y-88706626D01*
X166523309Y-88955848D01*
X166521881Y-88961470D01*
X166495070Y-89227736D01*
X166495294Y-89232403D01*
X166495294Y-89232408D01*
X166499851Y-89327275D01*
X166507909Y-89495041D01*
X166560118Y-89757512D01*
X166561698Y-89761912D01*
X166561698Y-89761913D01*
X166566658Y-89775728D01*
X166650549Y-90009383D01*
X166652765Y-90013507D01*
X166756389Y-90206361D01*
X166777215Y-90245121D01*
X166780010Y-90248864D01*
X166780012Y-90248867D01*
X166913760Y-90427977D01*
X166937335Y-90459547D01*
X166940642Y-90462825D01*
X166940647Y-90462831D01*
X167101283Y-90622070D01*
X167127390Y-90647950D01*
X167131156Y-90650712D01*
X167131158Y-90650713D01*
X167287412Y-90765283D01*
X167343205Y-90806192D01*
X167347340Y-90808368D01*
X167347344Y-90808370D01*
X167476844Y-90876503D01*
X167580039Y-90930797D01*
X167617498Y-90943878D01*
X167828273Y-91017484D01*
X167828279Y-91017486D01*
X167832690Y-91019026D01*
X167837283Y-91019898D01*
X168071794Y-91064422D01*
X168095606Y-91068943D01*
X168222616Y-91073933D01*
X168358345Y-91079266D01*
X168358350Y-91079266D01*
X168363013Y-91079449D01*
X168458943Y-91068943D01*
X168624382Y-91050825D01*
X168624387Y-91050824D01*
X168629035Y-91050315D01*
X168702585Y-91030951D01*
X168883309Y-90983370D01*
X168887829Y-90982180D01*
X169118965Y-90882877D01*
X169129407Y-90878391D01*
X169129410Y-90878389D01*
X169133710Y-90876542D01*
X169137690Y-90874079D01*
X169137694Y-90874077D01*
X169303477Y-90771487D01*
X169371929Y-90752649D01*
X169439699Y-90773810D01*
X169485270Y-90828251D01*
X169494174Y-90898687D01*
X169482743Y-90933702D01*
X169482464Y-90934158D01*
X169480568Y-90938736D01*
X169480566Y-90938740D01*
X169411266Y-91106070D01*
X169366721Y-91161353D01*
X169343075Y-91174266D01*
X169284436Y-91198556D01*
X169175777Y-91243564D01*
X169175773Y-91243566D01*
X169171203Y-91245459D01*
X169166979Y-91248047D01*
X169166976Y-91248049D01*
X169094019Y-91292758D01*
X169006730Y-91346249D01*
X169002969Y-91349462D01*
X169002968Y-91349462D01*
X168899243Y-91438052D01*
X168896720Y-91440150D01*
X168859169Y-91470554D01*
X168859146Y-91470582D01*
X168859123Y-91470601D01*
X168827482Y-91509675D01*
X168825367Y-91512218D01*
X168738064Y-91614422D01*
X168738060Y-91614427D01*
X168734852Y-91618183D01*
X168732269Y-91622397D01*
X168732267Y-91622400D01*
X168714754Y-91650974D01*
X168634055Y-91782641D01*
X168623745Y-91807526D01*
X168562120Y-91956268D01*
X168562118Y-91956275D01*
X168560226Y-91960841D01*
X168515182Y-92148397D01*
X168511522Y-92194844D01*
X168500419Y-92335759D01*
X168500419Y-92335766D01*
X168500031Y-92340690D01*
X168515147Y-92532986D01*
X168560158Y-92720549D01*
X168562049Y-92725115D01*
X168562050Y-92725119D01*
X168606893Y-92833411D01*
X168633955Y-92898763D01*
X168665053Y-92949521D01*
X168683583Y-93018055D01*
X168662119Y-93085729D01*
X168646707Y-93104438D01*
X166093550Y-95657595D01*
X166031238Y-95691621D01*
X166004455Y-95694500D01*
X151215545Y-95694500D01*
X151147424Y-95674498D01*
X151126450Y-95657595D01*
X150322947Y-94854092D01*
X150310110Y-94839064D01*
X150301569Y-94827308D01*
X150271151Y-94799919D01*
X150249729Y-94780631D01*
X150244945Y-94776090D01*
X150230130Y-94761275D01*
X150222475Y-94755076D01*
X150213836Y-94748080D01*
X150208821Y-94743796D01*
X150161905Y-94701553D01*
X150161901Y-94701550D01*
X150156992Y-94697130D01*
X150144412Y-94689867D01*
X150128127Y-94678674D01*
X150121974Y-94673692D01*
X150121972Y-94673690D01*
X150116840Y-94669535D01*
X150054717Y-94637882D01*
X150048919Y-94634734D01*
X149994226Y-94603157D01*
X149994224Y-94603156D01*
X149988508Y-94599856D01*
X149974700Y-94595370D01*
X149956437Y-94587805D01*
X149949377Y-94584208D01*
X149943497Y-94581212D01*
X149876115Y-94563157D01*
X149869804Y-94561287D01*
X149828258Y-94547788D01*
X149809761Y-94541778D01*
X149809760Y-94541778D01*
X149803482Y-94539738D01*
X149789049Y-94538221D01*
X149769607Y-94534618D01*
X149755578Y-94530859D01*
X149748986Y-94530514D01*
X149748983Y-94530513D01*
X149685938Y-94527209D01*
X149679364Y-94526692D01*
X149661778Y-94524844D01*
X149661776Y-94524844D01*
X149658504Y-94524500D01*
X149637536Y-94524500D01*
X149630942Y-94524327D01*
X149567889Y-94521022D01*
X149567884Y-94521022D01*
X149561297Y-94520677D01*
X149546951Y-94522949D01*
X149527242Y-94524500D01*
X135405545Y-94524500D01*
X135337424Y-94504498D01*
X135316450Y-94487595D01*
X133352946Y-92524091D01*
X133340104Y-92509056D01*
X133335761Y-92503078D01*
X133331569Y-92497308D01*
X133324815Y-92491226D01*
X133279729Y-92450631D01*
X133274945Y-92446090D01*
X133260130Y-92431275D01*
X133252475Y-92425076D01*
X133243836Y-92418080D01*
X133238821Y-92413796D01*
X133191905Y-92371553D01*
X133191901Y-92371550D01*
X133186992Y-92367130D01*
X133174412Y-92359867D01*
X133158127Y-92348674D01*
X133151974Y-92343692D01*
X133151972Y-92343690D01*
X133146840Y-92339535D01*
X133084717Y-92307882D01*
X133078919Y-92304734D01*
X133024226Y-92273157D01*
X133024224Y-92273156D01*
X133018508Y-92269856D01*
X133004700Y-92265370D01*
X132986437Y-92257805D01*
X132979377Y-92254208D01*
X132973497Y-92251212D01*
X132964246Y-92248733D01*
X132936389Y-92241269D01*
X132906115Y-92233157D01*
X132899804Y-92231287D01*
X132833482Y-92209738D01*
X132819049Y-92208221D01*
X132799607Y-92204618D01*
X132785578Y-92200859D01*
X132778986Y-92200514D01*
X132778983Y-92200513D01*
X132715938Y-92197209D01*
X132709364Y-92196692D01*
X132691778Y-92194844D01*
X132691776Y-92194844D01*
X132688504Y-92194500D01*
X132667536Y-92194500D01*
X132660942Y-92194327D01*
X132597889Y-92191022D01*
X132597884Y-92191022D01*
X132591297Y-92190677D01*
X132576951Y-92192949D01*
X132557242Y-92194500D01*
X132066253Y-92194500D01*
X131998132Y-92174498D01*
X131989548Y-92168462D01*
X131988194Y-92167423D01*
X131983949Y-92163499D01*
X131797350Y-92045764D01*
X131592421Y-91964006D01*
X131586761Y-91962880D01*
X131586757Y-91962879D01*
X131381691Y-91922089D01*
X131381688Y-91922089D01*
X131376024Y-91920962D01*
X131370249Y-91920886D01*
X131370245Y-91920886D01*
X131259504Y-91919437D01*
X131155406Y-91918074D01*
X131149709Y-91919053D01*
X131149708Y-91919053D01*
X130943654Y-91954459D01*
X130943653Y-91954459D01*
X130937957Y-91955438D01*
X130730957Y-92031804D01*
X130725996Y-92034756D01*
X130725995Y-92034756D01*
X130573380Y-92125553D01*
X130541341Y-92144614D01*
X130375457Y-92290090D01*
X130238863Y-92463360D01*
X130136131Y-92658620D01*
X130070703Y-92869333D01*
X130044770Y-93088440D01*
X130059200Y-93308604D01*
X130113511Y-93522452D01*
X130205883Y-93722821D01*
X130333222Y-93903002D01*
X130491264Y-94056961D01*
X130496060Y-94060166D01*
X130496063Y-94060168D01*
X130629617Y-94149405D01*
X130674717Y-94179540D01*
X130680020Y-94181818D01*
X130680023Y-94181820D01*
X130770212Y-94220568D01*
X130877436Y-94266635D01*
X131092632Y-94315329D01*
X131092347Y-94316588D01*
X131151385Y-94342705D01*
X131184438Y-94386153D01*
X131265883Y-94562821D01*
X131393222Y-94743002D01*
X131551264Y-94896961D01*
X131556060Y-94900166D01*
X131556063Y-94900168D01*
X131629029Y-94948922D01*
X131734717Y-95019540D01*
X131740020Y-95021818D01*
X131740023Y-95021820D01*
X131898989Y-95090117D01*
X131937436Y-95106635D01*
X132152632Y-95155329D01*
X132158405Y-95155556D01*
X132160107Y-95155780D01*
X132225033Y-95184505D01*
X132232752Y-95191607D01*
X133099017Y-96057872D01*
X133133043Y-96120184D01*
X133127978Y-96190999D01*
X133099017Y-96236062D01*
X130760746Y-98574334D01*
X130692989Y-98609419D01*
X130681625Y-98611371D01*
X130663653Y-98614459D01*
X130663650Y-98614460D01*
X130657957Y-98615438D01*
X130450957Y-98691804D01*
X130445996Y-98694756D01*
X130445995Y-98694756D01*
X130338519Y-98758698D01*
X130261341Y-98804614D01*
X130095457Y-98950090D01*
X129958863Y-99123360D01*
X129856131Y-99318620D01*
X129790703Y-99529333D01*
X129764770Y-99748440D01*
X129779200Y-99968604D01*
X129780621Y-99974200D01*
X129780622Y-99974205D01*
X129832090Y-100176857D01*
X129833511Y-100182452D01*
X129835928Y-100187694D01*
X129835928Y-100187695D01*
X129874046Y-100270379D01*
X129925883Y-100382821D01*
X130053222Y-100563002D01*
X130211264Y-100716961D01*
X130216060Y-100720166D01*
X130216063Y-100720168D01*
X130336999Y-100800974D01*
X130394717Y-100839540D01*
X130400020Y-100841818D01*
X130400023Y-100841820D01*
X130588354Y-100922733D01*
X130597436Y-100926635D01*
X130673277Y-100943796D01*
X130806995Y-100974054D01*
X130807001Y-100974055D01*
X130812632Y-100975329D01*
X130818403Y-100975556D01*
X130818405Y-100975556D01*
X130886211Y-100978220D01*
X131033098Y-100983991D01*
X131142275Y-100968161D01*
X131245738Y-100953160D01*
X131245743Y-100953159D01*
X131251452Y-100952331D01*
X131256916Y-100950476D01*
X131256921Y-100950475D01*
X131454907Y-100883268D01*
X131454912Y-100883266D01*
X131460379Y-100881410D01*
X131474161Y-100873692D01*
X131543725Y-100834734D01*
X131652884Y-100773602D01*
X131664549Y-100763901D01*
X131818086Y-100636204D01*
X131822518Y-100632518D01*
X131919644Y-100515738D01*
X131959908Y-100467326D01*
X131959910Y-100467323D01*
X131963602Y-100462884D01*
X132051029Y-100306772D01*
X132068586Y-100275422D01*
X132068587Y-100275420D01*
X132071410Y-100270379D01*
X132073266Y-100264912D01*
X132073268Y-100264907D01*
X132140472Y-100066929D01*
X132140472Y-100066927D01*
X132142331Y-100061452D01*
X132143161Y-100055729D01*
X132144508Y-100050117D01*
X132146086Y-100050496D01*
X132172491Y-99992867D01*
X132178517Y-99986403D01*
X134337026Y-97827894D01*
X134399338Y-97793868D01*
X134426121Y-97790989D01*
X142964345Y-97790989D01*
X143032466Y-97810991D01*
X143078959Y-97864647D01*
X143086468Y-97885973D01*
X143108802Y-97973910D01*
X143113511Y-97992452D01*
X143115928Y-97997694D01*
X143115928Y-97997695D01*
X143187148Y-98152182D01*
X143205883Y-98192821D01*
X143333222Y-98373002D01*
X143491264Y-98526961D01*
X143496060Y-98530166D01*
X143496063Y-98530168D01*
X143562163Y-98574334D01*
X143674717Y-98649540D01*
X143680020Y-98651818D01*
X143680023Y-98651820D01*
X143768439Y-98689806D01*
X143877436Y-98736635D01*
X143883062Y-98737908D01*
X143883065Y-98737909D01*
X143906532Y-98743219D01*
X143968559Y-98777762D01*
X143993149Y-98813359D01*
X144075883Y-98992821D01*
X144203222Y-99173002D01*
X144361264Y-99326961D01*
X144366060Y-99330166D01*
X144366063Y-99330168D01*
X144479971Y-99406278D01*
X144544717Y-99449540D01*
X144550020Y-99451818D01*
X144550023Y-99451820D01*
X144717599Y-99523816D01*
X144747436Y-99536635D01*
X144817122Y-99552404D01*
X144879147Y-99586946D01*
X144909873Y-99641509D01*
X144910160Y-99641407D01*
X144910743Y-99643052D01*
X144911437Y-99644285D01*
X144913511Y-99652452D01*
X145005883Y-99852821D01*
X145133222Y-100033002D01*
X145291264Y-100186961D01*
X145296060Y-100190166D01*
X145296063Y-100190168D01*
X145376186Y-100243704D01*
X145474717Y-100309540D01*
X145480020Y-100311818D01*
X145480023Y-100311820D01*
X145633075Y-100377576D01*
X145677436Y-100396635D01*
X145760257Y-100415375D01*
X145822282Y-100449918D01*
X145854571Y-100507252D01*
X145862090Y-100536857D01*
X145863511Y-100542452D01*
X145955883Y-100742821D01*
X146083222Y-100923002D01*
X146241264Y-101076961D01*
X146246060Y-101080166D01*
X146246063Y-101080168D01*
X146373362Y-101165226D01*
X146424717Y-101199540D01*
X146430020Y-101201818D01*
X146430023Y-101201820D01*
X146622129Y-101284355D01*
X146627436Y-101286635D01*
X146842632Y-101335329D01*
X146848405Y-101335556D01*
X146850107Y-101335780D01*
X146915033Y-101364505D01*
X146922752Y-101371607D01*
X155387595Y-109836450D01*
X155421621Y-109898762D01*
X155424500Y-109925545D01*
X155424500Y-110385655D01*
X155404498Y-110453776D01*
X155367585Y-110491027D01*
X155254764Y-110564996D01*
X155254759Y-110564999D01*
X155250851Y-110567562D01*
X155247359Y-110570679D01*
X155164734Y-110644424D01*
X155100593Y-110674862D01*
X155030178Y-110665790D01*
X154994500Y-110642196D01*
X154949670Y-110600024D01*
X154949667Y-110600022D01*
X154946269Y-110596825D01*
X154726385Y-110444286D01*
X154722194Y-110442219D01*
X154490559Y-110327989D01*
X154490554Y-110327987D01*
X154486371Y-110325924D01*
X154428759Y-110307482D01*
X154308594Y-110269017D01*
X154231497Y-110244338D01*
X154086134Y-110220665D01*
X153971976Y-110202073D01*
X153971975Y-110202073D01*
X153967364Y-110201322D01*
X153896037Y-110200388D01*
X153757988Y-110198581D01*
X153690135Y-110177689D01*
X153670542Y-110161687D01*
X153067407Y-109558552D01*
X153033381Y-109496240D01*
X153031031Y-109480986D01*
X153028571Y-109454206D01*
X153025454Y-109420289D01*
X152965565Y-109207936D01*
X152867980Y-109010053D01*
X152846075Y-108980718D01*
X152739420Y-108837891D01*
X152739420Y-108837890D01*
X152735967Y-108833267D01*
X152638586Y-108743249D01*
X152578189Y-108687418D01*
X152578186Y-108687416D01*
X152573949Y-108683499D01*
X152387350Y-108565764D01*
X152182421Y-108484006D01*
X152176761Y-108482880D01*
X152176757Y-108482879D01*
X151971691Y-108442089D01*
X151971688Y-108442089D01*
X151966024Y-108440962D01*
X151960249Y-108440886D01*
X151960245Y-108440886D01*
X151849504Y-108439437D01*
X151745406Y-108438074D01*
X151739709Y-108439053D01*
X151739708Y-108439053D01*
X151533654Y-108474459D01*
X151533653Y-108474459D01*
X151527957Y-108475438D01*
X151320957Y-108551804D01*
X151315996Y-108554756D01*
X151315995Y-108554756D01*
X151140470Y-108659183D01*
X151131341Y-108664614D01*
X150965457Y-108810090D01*
X150828863Y-108983360D01*
X150726131Y-109178620D01*
X150660703Y-109389333D01*
X150634770Y-109608440D01*
X150649200Y-109828604D01*
X150650621Y-109834200D01*
X150650622Y-109834205D01*
X150702090Y-110036857D01*
X150703511Y-110042452D01*
X150705928Y-110047694D01*
X150705928Y-110047695D01*
X150742733Y-110127531D01*
X150753088Y-110197768D01*
X150723825Y-110262454D01*
X150663566Y-110301248D01*
X150637683Y-110308792D01*
X150633430Y-110310752D01*
X150633429Y-110310753D01*
X150581512Y-110334687D01*
X150394652Y-110420831D01*
X150390743Y-110423394D01*
X150174764Y-110564996D01*
X150174759Y-110565000D01*
X150170851Y-110567562D01*
X150167359Y-110570679D01*
X150084734Y-110644424D01*
X150020593Y-110674862D01*
X149950178Y-110665790D01*
X149914500Y-110642196D01*
X149869670Y-110600024D01*
X149869667Y-110600022D01*
X149866269Y-110596825D01*
X149646385Y-110444286D01*
X149642194Y-110442219D01*
X149410559Y-110327989D01*
X149410554Y-110327987D01*
X149406371Y-110325924D01*
X149348759Y-110307482D01*
X149228594Y-110269017D01*
X149151497Y-110244338D01*
X149006134Y-110220665D01*
X148891976Y-110202073D01*
X148891975Y-110202073D01*
X148887364Y-110201322D01*
X148753569Y-110199570D01*
X148624451Y-110197880D01*
X148624448Y-110197880D01*
X148619774Y-110197819D01*
X148354605Y-110233907D01*
X148350118Y-110235215D01*
X148350117Y-110235215D01*
X148318817Y-110244338D01*
X148097683Y-110308792D01*
X148093430Y-110310752D01*
X148093429Y-110310753D01*
X148041512Y-110334687D01*
X147854652Y-110420831D01*
X147850743Y-110423394D01*
X147634764Y-110564996D01*
X147634759Y-110565000D01*
X147630851Y-110567562D01*
X147627359Y-110570679D01*
X147544734Y-110644424D01*
X147480593Y-110674862D01*
X147410178Y-110665790D01*
X147374500Y-110642196D01*
X147329670Y-110600024D01*
X147329667Y-110600022D01*
X147326269Y-110596825D01*
X147106385Y-110444286D01*
X147102194Y-110442219D01*
X146870559Y-110327989D01*
X146870554Y-110327987D01*
X146866371Y-110325924D01*
X146808759Y-110307482D01*
X146688594Y-110269017D01*
X146611497Y-110244338D01*
X146466134Y-110220665D01*
X146351976Y-110202073D01*
X146351975Y-110202073D01*
X146347364Y-110201322D01*
X146213569Y-110199570D01*
X146084451Y-110197880D01*
X146084448Y-110197880D01*
X146079774Y-110197819D01*
X145814605Y-110233907D01*
X145810118Y-110235215D01*
X145810117Y-110235215D01*
X145778817Y-110244338D01*
X145557683Y-110308792D01*
X145553430Y-110310752D01*
X145553429Y-110310753D01*
X145501512Y-110334687D01*
X145314652Y-110420831D01*
X145310743Y-110423394D01*
X145094764Y-110564996D01*
X145094759Y-110565000D01*
X145090851Y-110567562D01*
X145087359Y-110570679D01*
X145004734Y-110644424D01*
X144940593Y-110674862D01*
X144870178Y-110665790D01*
X144834500Y-110642196D01*
X144789670Y-110600024D01*
X144789667Y-110600022D01*
X144786269Y-110596825D01*
X144566385Y-110444286D01*
X144562194Y-110442219D01*
X144330559Y-110327989D01*
X144330554Y-110327987D01*
X144326371Y-110325924D01*
X144268759Y-110307482D01*
X144148594Y-110269017D01*
X144071497Y-110244338D01*
X143926134Y-110220665D01*
X143811976Y-110202073D01*
X143811975Y-110202073D01*
X143807364Y-110201322D01*
X143673569Y-110199570D01*
X143544451Y-110197880D01*
X143544448Y-110197880D01*
X143539774Y-110197819D01*
X143425537Y-110213366D01*
X143279239Y-110233276D01*
X143279235Y-110233277D01*
X143274605Y-110233907D01*
X143273417Y-110234253D01*
X143203529Y-110228922D01*
X143159026Y-110200171D01*
X141842947Y-108884092D01*
X141830110Y-108869064D01*
X141821569Y-108857308D01*
X141808198Y-108845268D01*
X141769729Y-108810631D01*
X141764945Y-108806090D01*
X141750130Y-108791275D01*
X141742475Y-108785076D01*
X141733836Y-108778080D01*
X141728821Y-108773796D01*
X141681905Y-108731553D01*
X141681901Y-108731550D01*
X141676992Y-108727130D01*
X141664412Y-108719867D01*
X141648127Y-108708674D01*
X141641974Y-108703692D01*
X141641972Y-108703690D01*
X141636840Y-108699535D01*
X141574717Y-108667882D01*
X141568919Y-108664734D01*
X141514226Y-108633157D01*
X141514224Y-108633156D01*
X141508508Y-108629856D01*
X141494700Y-108625370D01*
X141476437Y-108617805D01*
X141469377Y-108614208D01*
X141463497Y-108611212D01*
X141396115Y-108593157D01*
X141389804Y-108591287D01*
X141323482Y-108569738D01*
X141309049Y-108568221D01*
X141289607Y-108564618D01*
X141275578Y-108560859D01*
X141268986Y-108560514D01*
X141268983Y-108560513D01*
X141205938Y-108557209D01*
X141199364Y-108556692D01*
X141181778Y-108554844D01*
X141181776Y-108554844D01*
X141178504Y-108554500D01*
X141157536Y-108554500D01*
X141150942Y-108554327D01*
X141087889Y-108551022D01*
X141087884Y-108551022D01*
X141081297Y-108550677D01*
X141066951Y-108552949D01*
X141047242Y-108554500D01*
X138766253Y-108554500D01*
X138698132Y-108534498D01*
X138689548Y-108528462D01*
X138688194Y-108527423D01*
X138683949Y-108523499D01*
X138497350Y-108405764D01*
X138292421Y-108324006D01*
X138286761Y-108322880D01*
X138286757Y-108322879D01*
X138081691Y-108282089D01*
X138081688Y-108282089D01*
X138076024Y-108280962D01*
X138070249Y-108280886D01*
X138070245Y-108280886D01*
X137959504Y-108279437D01*
X137855406Y-108278074D01*
X137849709Y-108279053D01*
X137849708Y-108279053D01*
X137643654Y-108314459D01*
X137643653Y-108314459D01*
X137637957Y-108315438D01*
X137430957Y-108391804D01*
X137425996Y-108394756D01*
X137425995Y-108394756D01*
X137265754Y-108490090D01*
X137241341Y-108504614D01*
X137075457Y-108650090D01*
X136938863Y-108823360D01*
X136836131Y-109018620D01*
X136770703Y-109229333D01*
X136744770Y-109448440D01*
X136759200Y-109668604D01*
X136760621Y-109674200D01*
X136760622Y-109674205D01*
X136798443Y-109823121D01*
X136813511Y-109882452D01*
X136815928Y-109887694D01*
X136815928Y-109887695D01*
X136887837Y-110043676D01*
X136905883Y-110082821D01*
X136909216Y-110087537D01*
X136989999Y-110201843D01*
X137012980Y-110269017D01*
X136995995Y-110337952D01*
X136944438Y-110386762D01*
X136874677Y-110399949D01*
X136831377Y-110387570D01*
X136706371Y-110325924D01*
X136648759Y-110307482D01*
X136528594Y-110269017D01*
X136451497Y-110244338D01*
X136306134Y-110220665D01*
X136191976Y-110202073D01*
X136191975Y-110202073D01*
X136187364Y-110201322D01*
X136053569Y-110199570D01*
X135924451Y-110197880D01*
X135924448Y-110197880D01*
X135919774Y-110197819D01*
X135654605Y-110233907D01*
X135650118Y-110235215D01*
X135650117Y-110235215D01*
X135618817Y-110244338D01*
X135397683Y-110308792D01*
X135393430Y-110310752D01*
X135393429Y-110310753D01*
X135341512Y-110334687D01*
X135154652Y-110420831D01*
X135150743Y-110423394D01*
X134934764Y-110564996D01*
X134934759Y-110565000D01*
X134930851Y-110567562D01*
X134927359Y-110570679D01*
X134844734Y-110644424D01*
X134780593Y-110674862D01*
X134710178Y-110665790D01*
X134674500Y-110642196D01*
X134629670Y-110600024D01*
X134629667Y-110600022D01*
X134626269Y-110596825D01*
X134406385Y-110444286D01*
X134402194Y-110442219D01*
X134170559Y-110327989D01*
X134170554Y-110327987D01*
X134166371Y-110325924D01*
X134108759Y-110307482D01*
X133988594Y-110269017D01*
X133911497Y-110244338D01*
X133766134Y-110220665D01*
X133651976Y-110202073D01*
X133651975Y-110202073D01*
X133647364Y-110201322D01*
X133513569Y-110199570D01*
X133384451Y-110197880D01*
X133384448Y-110197880D01*
X133379774Y-110197819D01*
X133114605Y-110233907D01*
X133110118Y-110235215D01*
X133110117Y-110235215D01*
X133078817Y-110244338D01*
X132857683Y-110308792D01*
X132853430Y-110310752D01*
X132853429Y-110310753D01*
X132801512Y-110334687D01*
X132614652Y-110420831D01*
X132610743Y-110423394D01*
X132394764Y-110564996D01*
X132394759Y-110565000D01*
X132390851Y-110567562D01*
X132387359Y-110570679D01*
X132304734Y-110644424D01*
X132240593Y-110674862D01*
X132170178Y-110665790D01*
X132134500Y-110642196D01*
X132089670Y-110600024D01*
X132089667Y-110600022D01*
X132086269Y-110596825D01*
X131866385Y-110444286D01*
X131862194Y-110442219D01*
X131630559Y-110327989D01*
X131630554Y-110327987D01*
X131626371Y-110325924D01*
X131568759Y-110307482D01*
X131448594Y-110269017D01*
X131371497Y-110244338D01*
X131226134Y-110220665D01*
X131111976Y-110202073D01*
X131111975Y-110202073D01*
X131107364Y-110201322D01*
X130973569Y-110199570D01*
X130844451Y-110197880D01*
X130844448Y-110197880D01*
X130839774Y-110197819D01*
X130574605Y-110233907D01*
X130570118Y-110235215D01*
X130570117Y-110235215D01*
X130538817Y-110244338D01*
X130317683Y-110308792D01*
X130313430Y-110310752D01*
X130313429Y-110310753D01*
X130261512Y-110334687D01*
X130074652Y-110420831D01*
X130070743Y-110423394D01*
X129854764Y-110564996D01*
X129854759Y-110565000D01*
X129850851Y-110567562D01*
X129847359Y-110570679D01*
X129764734Y-110644424D01*
X129700593Y-110674862D01*
X129630178Y-110665790D01*
X129594500Y-110642196D01*
X129549670Y-110600024D01*
X129549667Y-110600022D01*
X129546269Y-110596825D01*
X129326385Y-110444286D01*
X129322194Y-110442219D01*
X129090559Y-110327989D01*
X129090554Y-110327987D01*
X129086371Y-110325924D01*
X129028759Y-110307482D01*
X128908594Y-110269017D01*
X128831497Y-110244338D01*
X128686134Y-110220665D01*
X128571976Y-110202073D01*
X128571975Y-110202073D01*
X128567364Y-110201322D01*
X128433569Y-110199570D01*
X128304451Y-110197880D01*
X128304448Y-110197880D01*
X128299774Y-110197819D01*
X128034605Y-110233907D01*
X128030118Y-110235215D01*
X128030117Y-110235215D01*
X127998817Y-110244338D01*
X127777683Y-110308792D01*
X127773430Y-110310752D01*
X127773429Y-110310753D01*
X127721512Y-110334687D01*
X127534652Y-110420831D01*
X127530743Y-110423394D01*
X127314764Y-110564996D01*
X127314759Y-110565000D01*
X127310851Y-110567562D01*
X127307359Y-110570679D01*
X127224734Y-110644424D01*
X127160593Y-110674862D01*
X127090178Y-110665790D01*
X127054500Y-110642196D01*
X127009670Y-110600024D01*
X127009667Y-110600022D01*
X127006269Y-110596825D01*
X126786385Y-110444286D01*
X126782194Y-110442219D01*
X126550559Y-110327989D01*
X126550554Y-110327987D01*
X126546371Y-110325924D01*
X126488759Y-110307482D01*
X126368594Y-110269017D01*
X126291497Y-110244338D01*
X126146134Y-110220665D01*
X126031976Y-110202073D01*
X126031975Y-110202073D01*
X126027364Y-110201322D01*
X125893569Y-110199570D01*
X125764451Y-110197880D01*
X125764448Y-110197880D01*
X125759774Y-110197819D01*
X125494605Y-110233907D01*
X125490118Y-110235215D01*
X125490117Y-110235215D01*
X125458817Y-110244338D01*
X125237683Y-110308792D01*
X125233430Y-110310752D01*
X125233429Y-110310753D01*
X125181512Y-110334687D01*
X124994652Y-110420831D01*
X124990743Y-110423394D01*
X124774764Y-110564996D01*
X124774759Y-110565000D01*
X124770851Y-110567562D01*
X124687231Y-110642196D01*
X124609169Y-110711869D01*
X124571197Y-110745760D01*
X124400075Y-110951512D01*
X124397652Y-110955505D01*
X124264836Y-111174379D01*
X124261244Y-111180298D01*
X124259437Y-111184606D01*
X124259437Y-111184607D01*
X124167964Y-111402746D01*
X124157755Y-111427091D01*
X124156604Y-111431623D01*
X124156603Y-111431626D01*
X124094967Y-111674319D01*
X124091881Y-111686470D01*
X124065070Y-111952736D01*
X124077909Y-112220041D01*
X124130118Y-112482512D01*
X124220549Y-112734383D01*
X124222765Y-112738507D01*
X124290982Y-112865465D01*
X124347215Y-112970121D01*
X124350010Y-112973864D01*
X124350012Y-112973867D01*
X124389559Y-113026826D01*
X124507335Y-113184547D01*
X124510654Y-113187837D01*
X124512927Y-113190452D01*
X124542521Y-113254987D01*
X124532527Y-113325277D01*
X124514706Y-113353683D01*
X124400075Y-113491512D01*
X124397652Y-113495505D01*
X124280092Y-113689238D01*
X124261244Y-113720298D01*
X124259437Y-113724606D01*
X124259437Y-113724607D01*
X124164931Y-113949979D01*
X124157755Y-113967091D01*
X124156604Y-113971623D01*
X124156603Y-113971626D01*
X124105573Y-114172557D01*
X124091881Y-114226470D01*
X124065070Y-114492736D01*
X124077909Y-114760041D01*
X124130118Y-115022512D01*
X124133138Y-115030924D01*
X124137332Y-115101793D01*
X124102545Y-115163683D01*
X124039819Y-115196940D01*
X124014550Y-115199500D01*
X119896644Y-115199500D01*
X119828523Y-115179498D01*
X119782030Y-115125842D01*
X119771926Y-115055568D01*
X119801420Y-114990988D01*
X119833074Y-114964712D01*
X120049259Y-114838384D01*
X120049261Y-114838383D01*
X120052399Y-114836549D01*
X120055308Y-114834365D01*
X120307761Y-114644819D01*
X120307765Y-114644816D01*
X120310668Y-114642636D01*
X120544936Y-114420323D01*
X120752101Y-114172557D01*
X120854502Y-114016666D01*
X120927427Y-113905649D01*
X120927432Y-113905640D01*
X120929414Y-113902623D01*
X121001971Y-113758360D01*
X121072900Y-113617334D01*
X121072903Y-113617326D01*
X121074527Y-113614098D01*
X121141097Y-113432187D01*
X121184269Y-113314216D01*
X121184270Y-113314212D01*
X121185517Y-113310805D01*
X121186362Y-113307283D01*
X121186365Y-113307275D01*
X121260064Y-113000295D01*
X121260065Y-113000291D01*
X121260911Y-112996766D01*
X121263682Y-112973867D01*
X121299374Y-112678922D01*
X121299374Y-112678916D01*
X121299710Y-112676143D01*
X121305246Y-112500000D01*
X121305085Y-112497204D01*
X121286864Y-112181193D01*
X121286863Y-112181188D01*
X121286655Y-112177573D01*
X121268621Y-112074245D01*
X121231752Y-111862993D01*
X121231750Y-111862986D01*
X121231128Y-111859420D01*
X121206865Y-111777507D01*
X121140434Y-111553242D01*
X121139402Y-111549757D01*
X121106283Y-111472109D01*
X121014114Y-111256023D01*
X121012692Y-111252689D01*
X120852677Y-110972154D01*
X120834874Y-110947918D01*
X120663622Y-110714786D01*
X120663620Y-110714783D01*
X120661479Y-110711869D01*
X120441632Y-110475285D01*
X120408453Y-110446947D01*
X120198805Y-110267892D01*
X120196049Y-110265538D01*
X119927986Y-110085407D01*
X119844763Y-110042452D01*
X119644216Y-109938942D01*
X119640996Y-109937280D01*
X119338883Y-109823121D01*
X119335362Y-109822237D01*
X119335357Y-109822235D01*
X119185433Y-109784577D01*
X119025651Y-109744443D01*
X118981421Y-109738620D01*
X118709055Y-109702762D01*
X118709047Y-109702761D01*
X118705451Y-109702288D01*
X118571081Y-109700177D01*
X118386170Y-109697272D01*
X118386166Y-109697272D01*
X118382528Y-109697215D01*
X118378913Y-109697576D01*
X118378908Y-109697576D01*
X118151132Y-109720311D01*
X118061163Y-109729291D01*
X117745614Y-109798092D01*
X117742187Y-109799265D01*
X117742181Y-109799267D01*
X117443495Y-109901530D01*
X117443490Y-109901532D01*
X117440064Y-109902705D01*
X117436796Y-109904264D01*
X117436788Y-109904267D01*
X117364091Y-109938942D01*
X117148562Y-110041744D01*
X116874974Y-110213366D01*
X116872140Y-110215636D01*
X116872135Y-110215640D01*
X116731901Y-110327989D01*
X116622924Y-110415296D01*
X116620371Y-110417876D01*
X116443287Y-110596825D01*
X116395754Y-110644858D01*
X116196474Y-110899008D01*
X116194581Y-110902097D01*
X116194579Y-110902100D01*
X116161853Y-110955505D01*
X116027727Y-111174379D01*
X115891748Y-111467320D01*
X115890608Y-111470767D01*
X115791480Y-111770503D01*
X115790340Y-111773949D01*
X115789604Y-111777504D01*
X115789603Y-111777507D01*
X115742873Y-112003160D01*
X115724848Y-112090201D01*
X115696138Y-112411885D01*
X115697623Y-112468601D01*
X115704592Y-112734737D01*
X115705103Y-112738327D01*
X115705103Y-112738328D01*
X115711036Y-112780018D01*
X115750098Y-113054477D01*
X115832053Y-113366869D01*
X115949369Y-113667770D01*
X115951073Y-113670988D01*
X116075320Y-113905649D01*
X116100493Y-113953193D01*
X116102545Y-113956178D01*
X116102550Y-113956187D01*
X116281364Y-114216363D01*
X116281370Y-114216370D01*
X116283421Y-114219355D01*
X116330326Y-114273123D01*
X116489983Y-114456142D01*
X116495728Y-114462728D01*
X116734601Y-114680086D01*
X116996874Y-114868548D01*
X117053327Y-114899969D01*
X117167299Y-114963405D01*
X117217093Y-115014011D01*
X117231623Y-115083505D01*
X117206275Y-115149823D01*
X117149097Y-115191908D01*
X117106021Y-115199500D01*
X108058647Y-115199500D01*
X108042856Y-115198507D01*
X108038985Y-115198018D01*
X108011247Y-115194514D01*
X108004239Y-115195201D01*
X108004237Y-115195201D01*
X107985441Y-115197044D01*
X107965539Y-115197415D01*
X107742487Y-115183923D01*
X107727383Y-115182089D01*
X107626942Y-115163683D01*
X107481119Y-115136960D01*
X107466358Y-115133322D01*
X107227324Y-115058836D01*
X107213100Y-115053441D01*
X106984787Y-114950687D01*
X106971317Y-114943617D01*
X106757065Y-114814096D01*
X106744544Y-114805454D01*
X106547456Y-114651045D01*
X106536068Y-114640955D01*
X106359045Y-114463932D01*
X106348955Y-114452544D01*
X106194546Y-114255456D01*
X106185903Y-114242934D01*
X106175950Y-114226470D01*
X106056383Y-114028683D01*
X106049313Y-114015213D01*
X105946559Y-113786900D01*
X105941164Y-113772675D01*
X105926185Y-113724607D01*
X105866678Y-113533642D01*
X105863038Y-113518874D01*
X105857366Y-113487918D01*
X105817911Y-113272617D01*
X105816077Y-113257513D01*
X105806534Y-113099750D01*
X105803644Y-113051975D01*
X105804502Y-113030366D01*
X105804397Y-113030358D01*
X105804613Y-113027546D01*
X105804642Y-113026826D01*
X105804701Y-113026404D01*
X105805251Y-113022493D01*
X105805479Y-113006180D01*
X105805545Y-113005624D01*
X105805493Y-113005133D01*
X105805565Y-113000000D01*
X105801285Y-112961843D01*
X105800500Y-112947798D01*
X105800500Y-101512163D01*
X110152151Y-101512163D01*
X110152152Y-103287836D01*
X110152425Y-103292589D01*
X110182735Y-103423878D01*
X110191126Y-103460220D01*
X110192824Y-103467577D01*
X110270987Y-103629266D01*
X110383031Y-103769620D01*
X110523385Y-103881664D01*
X110685074Y-103959827D01*
X110691935Y-103961411D01*
X110854863Y-103999026D01*
X110854866Y-103999026D01*
X110860062Y-104000226D01*
X110864814Y-104000500D01*
X110866638Y-104000500D01*
X111760260Y-104000499D01*
X112640487Y-104000499D01*
X112645240Y-104000226D01*
X112820228Y-103959827D01*
X112981917Y-103881664D01*
X113122271Y-103769620D01*
X113234315Y-103629266D01*
X113277468Y-103540000D01*
X133134706Y-103540000D01*
X133153854Y-103783302D01*
X133155009Y-103788111D01*
X133205987Y-104000447D01*
X133210828Y-104020612D01*
X133212718Y-104025175D01*
X133212720Y-104025181D01*
X133302328Y-104241515D01*
X133304223Y-104246089D01*
X133431741Y-104454179D01*
X133590241Y-104639759D01*
X133775821Y-104798259D01*
X133983911Y-104925777D01*
X133988481Y-104927670D01*
X133988485Y-104927672D01*
X134204819Y-105017280D01*
X134204825Y-105017282D01*
X134209388Y-105019172D01*
X134214188Y-105020324D01*
X134214193Y-105020326D01*
X134322702Y-105046377D01*
X134446698Y-105076146D01*
X134690000Y-105095294D01*
X134933302Y-105076146D01*
X135057298Y-105046377D01*
X135165807Y-105020326D01*
X135165812Y-105020324D01*
X135170612Y-105019172D01*
X135175175Y-105017282D01*
X135175181Y-105017280D01*
X135391515Y-104927672D01*
X135391519Y-104927670D01*
X135396089Y-104925777D01*
X135604179Y-104798259D01*
X135789759Y-104639759D01*
X135948259Y-104454179D01*
X136075777Y-104246089D01*
X136077672Y-104241515D01*
X136167280Y-104025181D01*
X136167282Y-104025175D01*
X136169172Y-104020612D01*
X136174014Y-104000447D01*
X136224991Y-103788111D01*
X136226146Y-103783302D01*
X136245294Y-103540000D01*
X138034706Y-103540000D01*
X138053854Y-103783302D01*
X138055009Y-103788111D01*
X138105987Y-104000447D01*
X138110828Y-104020612D01*
X138112718Y-104025175D01*
X138112720Y-104025181D01*
X138202328Y-104241515D01*
X138204223Y-104246089D01*
X138331741Y-104454179D01*
X138490241Y-104639759D01*
X138675821Y-104798259D01*
X138883911Y-104925777D01*
X138888481Y-104927670D01*
X138888485Y-104927672D01*
X139104819Y-105017280D01*
X139104825Y-105017282D01*
X139109388Y-105019172D01*
X139114188Y-105020324D01*
X139114193Y-105020326D01*
X139222702Y-105046377D01*
X139346698Y-105076146D01*
X139590000Y-105095294D01*
X139833302Y-105076146D01*
X139957298Y-105046377D01*
X140065807Y-105020326D01*
X140065812Y-105020324D01*
X140070612Y-105019172D01*
X140075175Y-105017282D01*
X140075181Y-105017280D01*
X140291515Y-104927672D01*
X140291519Y-104927670D01*
X140296089Y-104925777D01*
X140504179Y-104798259D01*
X140689759Y-104639759D01*
X140848259Y-104454179D01*
X140975777Y-104246089D01*
X140977672Y-104241515D01*
X141067280Y-104025181D01*
X141067282Y-104025175D01*
X141069172Y-104020612D01*
X141074014Y-104000447D01*
X141124991Y-103788111D01*
X141126146Y-103783302D01*
X141145294Y-103540000D01*
X141126146Y-103296698D01*
X141089248Y-103143008D01*
X141070326Y-103064193D01*
X141070324Y-103064188D01*
X141069172Y-103059388D01*
X141067282Y-103054825D01*
X141067280Y-103054819D01*
X140977672Y-102838485D01*
X140977670Y-102838481D01*
X140975777Y-102833911D01*
X140848259Y-102625821D01*
X140689759Y-102440241D01*
X140504179Y-102281741D01*
X140296089Y-102154223D01*
X140291519Y-102152330D01*
X140291515Y-102152328D01*
X140075181Y-102062720D01*
X140075175Y-102062718D01*
X140070612Y-102060828D01*
X140065812Y-102059676D01*
X140065807Y-102059674D01*
X139957298Y-102033623D01*
X139833302Y-102003854D01*
X139590000Y-101984706D01*
X139346698Y-102003854D01*
X139222702Y-102033623D01*
X139114193Y-102059674D01*
X139114188Y-102059676D01*
X139109388Y-102060828D01*
X139104825Y-102062718D01*
X139104819Y-102062720D01*
X138888485Y-102152328D01*
X138888481Y-102152330D01*
X138883911Y-102154223D01*
X138675821Y-102281741D01*
X138490241Y-102440241D01*
X138331741Y-102625821D01*
X138204223Y-102833911D01*
X138202330Y-102838481D01*
X138202328Y-102838485D01*
X138112720Y-103054819D01*
X138112718Y-103054825D01*
X138110828Y-103059388D01*
X138109676Y-103064188D01*
X138109674Y-103064193D01*
X138090752Y-103143008D01*
X138053854Y-103296698D01*
X138034706Y-103540000D01*
X136245294Y-103540000D01*
X136226146Y-103296698D01*
X136189248Y-103143008D01*
X136170326Y-103064193D01*
X136170324Y-103064188D01*
X136169172Y-103059388D01*
X136167282Y-103054825D01*
X136167280Y-103054819D01*
X136077672Y-102838485D01*
X136077670Y-102838481D01*
X136075777Y-102833911D01*
X135948259Y-102625821D01*
X135789759Y-102440241D01*
X135604179Y-102281741D01*
X135396089Y-102154223D01*
X135391519Y-102152330D01*
X135391515Y-102152328D01*
X135175181Y-102062720D01*
X135175175Y-102062718D01*
X135170612Y-102060828D01*
X135165812Y-102059676D01*
X135165807Y-102059674D01*
X135057298Y-102033623D01*
X134933302Y-102003854D01*
X134690000Y-101984706D01*
X134446698Y-102003854D01*
X134322702Y-102033623D01*
X134214193Y-102059674D01*
X134214188Y-102059676D01*
X134209388Y-102060828D01*
X134204825Y-102062718D01*
X134204819Y-102062720D01*
X133988485Y-102152328D01*
X133988481Y-102152330D01*
X133983911Y-102154223D01*
X133775821Y-102281741D01*
X133590241Y-102440241D01*
X133431741Y-102625821D01*
X133304223Y-102833911D01*
X133302330Y-102838481D01*
X133302328Y-102838485D01*
X133212720Y-103054819D01*
X133212718Y-103054825D01*
X133210828Y-103059388D01*
X133209676Y-103064188D01*
X133209674Y-103064193D01*
X133190752Y-103143008D01*
X133153854Y-103296698D01*
X133134706Y-103540000D01*
X113277468Y-103540000D01*
X113312478Y-103467577D01*
X113314062Y-103460716D01*
X113351677Y-103297788D01*
X113351677Y-103297785D01*
X113352877Y-103292589D01*
X113353151Y-103287837D01*
X113353150Y-101512164D01*
X113352877Y-101507411D01*
X113312478Y-101332423D01*
X113276472Y-101257940D01*
X113237382Y-101177078D01*
X113237381Y-101177077D01*
X113234315Y-101170734D01*
X113122271Y-101030380D01*
X112981917Y-100918336D01*
X112947200Y-100901553D01*
X112826570Y-100843239D01*
X112826571Y-100843239D01*
X112820228Y-100840173D01*
X112796669Y-100834734D01*
X112650439Y-100800974D01*
X112650436Y-100800974D01*
X112645240Y-100799774D01*
X112640488Y-100799500D01*
X112638664Y-100799500D01*
X111745042Y-100799501D01*
X110864815Y-100799501D01*
X110860062Y-100799774D01*
X110685074Y-100840173D01*
X110678731Y-100843239D01*
X110678732Y-100843239D01*
X110558103Y-100901553D01*
X110523385Y-100918336D01*
X110383031Y-101030380D01*
X110270987Y-101170734D01*
X110267921Y-101177077D01*
X110267920Y-101177078D01*
X110228830Y-101257940D01*
X110192824Y-101332423D01*
X110152425Y-101507411D01*
X110152151Y-101512163D01*
X105800500Y-101512163D01*
X105800500Y-92838163D01*
X110034151Y-92838163D01*
X110034152Y-94613836D01*
X110034425Y-94618589D01*
X110074824Y-94793577D01*
X110152987Y-94955266D01*
X110265031Y-95095620D01*
X110405385Y-95207664D01*
X110567074Y-95285827D01*
X110573935Y-95287411D01*
X110736863Y-95325026D01*
X110736866Y-95325026D01*
X110742062Y-95326226D01*
X110746814Y-95326500D01*
X110748638Y-95326500D01*
X111642260Y-95326499D01*
X112522487Y-95326499D01*
X112527240Y-95326226D01*
X112702228Y-95285827D01*
X112863917Y-95207664D01*
X113004271Y-95095620D01*
X113116315Y-94955266D01*
X113194478Y-94793577D01*
X113201396Y-94763611D01*
X113233677Y-94623788D01*
X113233677Y-94623785D01*
X113234877Y-94618589D01*
X113235151Y-94613837D01*
X113235150Y-92838164D01*
X113234877Y-92833411D01*
X113194478Y-92658423D01*
X113116315Y-92496734D01*
X113004271Y-92356380D01*
X112863917Y-92244336D01*
X112702228Y-92166173D01*
X112646629Y-92153337D01*
X112532439Y-92126974D01*
X112532436Y-92126974D01*
X112527240Y-92125774D01*
X112522488Y-92125500D01*
X112520664Y-92125500D01*
X111627042Y-92125501D01*
X110746815Y-92125501D01*
X110742062Y-92125774D01*
X110567074Y-92166173D01*
X110405385Y-92244336D01*
X110265031Y-92356380D01*
X110152987Y-92496734D01*
X110074824Y-92658423D01*
X110073240Y-92665284D01*
X110046296Y-92781994D01*
X110034425Y-92833411D01*
X110034151Y-92838163D01*
X105800500Y-92838163D01*
X105800500Y-77065111D01*
X105801726Y-77047575D01*
X105804700Y-77026416D01*
X105804700Y-77026411D01*
X105805251Y-77022493D01*
X105805565Y-77000000D01*
X105803486Y-76981467D01*
X105802930Y-76959816D01*
X105803433Y-76951512D01*
X105813796Y-76780189D01*
X105816077Y-76742487D01*
X105817911Y-76727383D01*
X105833091Y-76644547D01*
X105863040Y-76481119D01*
X105866679Y-76466352D01*
X105877970Y-76430121D01*
X105941164Y-76227324D01*
X105946559Y-76213100D01*
X106049313Y-75984787D01*
X106056385Y-75971313D01*
X106057642Y-75969235D01*
X106185904Y-75757065D01*
X106194546Y-75744544D01*
X106348955Y-75547456D01*
X106359045Y-75536068D01*
X106536068Y-75359045D01*
X106547456Y-75348955D01*
X106653930Y-75265538D01*
X106744546Y-75194545D01*
X106757066Y-75185903D01*
X106971317Y-75056383D01*
X106984787Y-75049313D01*
X107213100Y-74946559D01*
X107227325Y-74941164D01*
X107293817Y-74920444D01*
X107466358Y-74866678D01*
X107481119Y-74863040D01*
X107698952Y-74823121D01*
X107727383Y-74817911D01*
X107742487Y-74816077D01*
X107953969Y-74803284D01*
X107977370Y-74804048D01*
X107978910Y-74804242D01*
X107988753Y-74805486D01*
X108033474Y-74801101D01*
X108045770Y-74800500D01*
X110121925Y-74800500D01*
X110190046Y-74820502D01*
G37*
G04 #@! TD.AperFunction*
M02*
