%FSLAX45Y45*%
G04 Gerber Fmt 4.5, Leading zero omitted, Abs format (unit mm)*
G04 Created by KiCad (PCBNEW (6.0.5)) date 2023-02-02 23:21:55*
%MOMM*%
%LPD*%
G01*
G04 APERTURE LIST*
%TA.AperFunction,Profile*%
%ADD10C,0.100000*%
%TD*%
%ADD11C,0.200000*%
G04 APERTURE END LIST*
D10*
X10500000Y-7700000D02*
X10500000Y-11300000D01*
X18500000Y-7700000D02*
G75*
G03*
X18200000Y-7400000I-300000J0D01*
G01*
X18200000Y-11600000D02*
G75*
G03*
X18500000Y-11300000I0J300000D01*
G01*
X10500000Y-11300000D02*
X10500000Y-11300000D01*
X18500000Y-11300000D02*
X18500000Y-7700000D01*
X10800000Y-11600000D02*
X18200000Y-11600000D01*
X18200000Y-7400000D02*
X10800000Y-7400000D01*
X10800000Y-7400000D02*
G75*
G03*
X10500000Y-7700000I0J-300000D01*
G01*
X10500000Y-11300000D02*
G75*
G03*
X10800000Y-11600000I300000J0D01*
G01*
D11*
X10752619Y-11915476D02*
X10752619Y-11715476D01*
X10800238Y-11715476D01*
X10828810Y-11725000D01*
X10847857Y-11744048D01*
X10857381Y-11763095D01*
X10866905Y-11801190D01*
X10866905Y-11829762D01*
X10857381Y-11867857D01*
X10847857Y-11886905D01*
X10828810Y-11905952D01*
X10800238Y-11915476D01*
X10752619Y-11915476D01*
X10952619Y-11915476D02*
X10952619Y-11782143D01*
X10952619Y-11820238D02*
X10962143Y-11801190D01*
X10971667Y-11791667D01*
X10990714Y-11782143D01*
X11009762Y-11782143D01*
X11076429Y-11915476D02*
X11076429Y-11782143D01*
X11076429Y-11715476D02*
X11066905Y-11725000D01*
X11076429Y-11734524D01*
X11085952Y-11725000D01*
X11076429Y-11715476D01*
X11076429Y-11734524D01*
X11200238Y-11915476D02*
X11181190Y-11905952D01*
X11171667Y-11886905D01*
X11171667Y-11715476D01*
X11305000Y-11915476D02*
X11285952Y-11905952D01*
X11276428Y-11886905D01*
X11276428Y-11715476D01*
X11533571Y-11915476D02*
X11533571Y-11715476D01*
X11600238Y-11858333D01*
X11666905Y-11715476D01*
X11666905Y-11915476D01*
X11847857Y-11915476D02*
X11847857Y-11810714D01*
X11838333Y-11791667D01*
X11819286Y-11782143D01*
X11781190Y-11782143D01*
X11762143Y-11791667D01*
X11847857Y-11905952D02*
X11828809Y-11915476D01*
X11781190Y-11915476D01*
X11762143Y-11905952D01*
X11752619Y-11886905D01*
X11752619Y-11867857D01*
X11762143Y-11848809D01*
X11781190Y-11839286D01*
X11828809Y-11839286D01*
X11847857Y-11829762D01*
X11943095Y-11782143D02*
X11943095Y-11982143D01*
X11943095Y-11791667D02*
X11962143Y-11782143D01*
X12000238Y-11782143D01*
X12019286Y-11791667D01*
X12028809Y-11801190D01*
X12038333Y-11820238D01*
X12038333Y-11877381D01*
X12028809Y-11896428D01*
X12019286Y-11905952D01*
X12000238Y-11915476D01*
X11962143Y-11915476D01*
X11943095Y-11905952D01*
X12124048Y-11896428D02*
X12133571Y-11905952D01*
X12124048Y-11915476D01*
X12114524Y-11905952D01*
X12124048Y-11896428D01*
X12124048Y-11915476D01*
X12124048Y-11791667D02*
X12133571Y-11801190D01*
X12124048Y-11810714D01*
X12114524Y-11801190D01*
X12124048Y-11791667D01*
X12124048Y-11810714D01*
M02*
