M48
; DRILL file {KiCad (6.0.5)} date Thu Feb  2 23:17:52 2023
; FORMAT={-:-/ absolute / metric / decimal}
; #@! TF.CreationDate,2023-02-02T23:17:52-06:00
; #@! TF.GenerationSoftware,Kicad,Pcbnew,(6.0.5)
; #@! TF.FileFunction,Plated,1,2,PTH
FMAT,2
METRIC
; #@! TA.AperFunction,Plated,PTH,ViaDrill
T1C0.400
; #@! TA.AperFunction,Plated,PTH,ComponentDrill
T2C0.800
; #@! TA.AperFunction,Plated,PTH,ComponentDrill
T3C1.000
; #@! TA.AperFunction,Plated,PTH,ComponentDrill
T4C1.100
%
G90
G05
T1
X130.97Y-99.78
X131.25Y-93.12
X132.29Y-107.39
X132.31Y-93.96
X136.06Y-100.52
X137.95Y-109.48
X138.91Y-89.25
X142.18Y-107.37
X144.25Y-97.59
X145.12Y-98.39
X146.05Y-99.25
X147.0Y-100.14
X149.21Y-97.55
X151.84Y-109.64
X157.59Y-99.03
X164.11Y-100.24
X165.11Y-103.17
X168.86Y-96.73
X175.02Y-91.27
X177.63Y-91.25
X178.06Y-109.32
X179.0Y-110.12
T2
X108.135Y-93.726
X108.253Y-102.4
X111.635Y-93.726
X111.753Y-102.4
X134.69Y-103.54
X139.59Y-103.54
T3
X109.295Y-76.12
X111.835Y-76.12
X123.33Y-75.46
X123.33Y-78.0
X123.33Y-112.0
X123.33Y-114.54
X125.87Y-75.46
X125.87Y-78.0
X125.87Y-112.0
X125.87Y-114.54
X128.41Y-75.46
X128.41Y-78.0
X128.41Y-112.0
X128.41Y-114.54
X130.95Y-75.46
X130.95Y-78.0
X130.95Y-112.0
X130.95Y-114.54
X133.49Y-75.46
X133.49Y-78.0
X133.49Y-112.0
X133.49Y-114.54
X136.03Y-75.46
X136.03Y-78.0
X136.03Y-112.0
X136.03Y-114.54
X138.57Y-75.46
X138.57Y-78.0
X138.57Y-112.0
X138.57Y-114.54
X141.11Y-75.46
X141.11Y-78.0
X141.11Y-112.0
X141.11Y-114.54
X143.51Y-81.28
X143.51Y-83.82
X143.51Y-86.36
X143.51Y-88.9
X143.51Y-91.44
X143.65Y-75.46
X143.65Y-78.0
X143.65Y-112.0
X143.65Y-114.54
X146.05Y-81.28
X146.05Y-83.82
X146.05Y-86.36
X146.05Y-88.9
X146.05Y-91.44
X146.05Y-93.98
X146.19Y-75.46
X146.19Y-78.0
X146.19Y-112.0
X146.19Y-114.54
X148.59Y-81.28
X148.59Y-83.82
X148.59Y-86.36
X148.59Y-88.9
X148.59Y-91.44
X148.59Y-93.98
X148.73Y-75.46
X148.73Y-78.0
X148.73Y-112.0
X148.73Y-114.54
X151.13Y-81.28
X151.13Y-83.82
X151.13Y-86.36
X151.13Y-88.9
X151.13Y-91.44
X151.13Y-93.98
X151.27Y-75.46
X151.27Y-78.0
X151.27Y-112.0
X151.27Y-114.54
X153.665Y-83.806
X153.665Y-86.346
X153.665Y-88.886
X153.665Y-91.426
X153.67Y-81.28
X153.67Y-93.98
X153.81Y-75.46
X153.81Y-78.0
X153.81Y-112.0
X153.81Y-114.54
X156.21Y-81.28
X156.21Y-83.82
X156.21Y-86.36
X156.21Y-88.9
X156.21Y-91.44
X156.21Y-93.98
X156.35Y-75.46
X156.35Y-78.0
X156.35Y-112.0
X156.35Y-114.54
X158.75Y-81.28
X158.75Y-83.82
X158.75Y-86.36
X158.75Y-88.9
X158.75Y-91.44
X158.89Y-75.46
X158.89Y-78.0
X158.89Y-112.0
X158.89Y-114.54
X161.43Y-75.46
X161.43Y-78.0
X161.43Y-112.0
X161.43Y-114.54
X163.97Y-75.46
X163.97Y-78.0
X163.97Y-112.0
X163.97Y-114.54
X166.51Y-75.46
X166.51Y-78.0
X166.51Y-112.0
X166.51Y-114.54
X169.05Y-75.46
X169.05Y-78.0
X169.05Y-112.0
X169.05Y-114.54
X171.59Y-75.46
X171.59Y-78.0
X171.59Y-112.0
X171.59Y-114.54
X174.13Y-75.46
X174.13Y-78.0
X174.13Y-112.0
X174.13Y-114.54
X176.67Y-75.46
X176.67Y-78.0
X176.67Y-112.0
X176.67Y-114.54
X178.37Y-83.12
X178.37Y-85.66
X178.37Y-88.2
X180.91Y-83.12
X180.91Y-85.66
X180.91Y-88.2
T4
X163.8Y-82.775
X163.8Y-89.275
X168.3Y-82.775
X168.3Y-89.275
T3
G00X107.6Y-81.2
M15
G01X107.6Y-83.2
M16
G05
G00X110.6Y-86.9
M15
G01X112.6Y-86.9
M16
G05
G00X114.6Y-81.2
M15
G01X114.6Y-83.2
M16
G05
T0
M30
