G04 #@! TF.GenerationSoftware,KiCad,Pcbnew,(6.0.5)*
G04 #@! TF.CreationDate,2023-02-02T23:15:04-06:00*
G04 #@! TF.ProjectId,PIC18BT_MCE_Board,50494331-3842-4545-9f4d-43455f426f61,rev?*
G04 #@! TF.SameCoordinates,Original*
G04 #@! TF.FileFunction,Copper,L1,Top*
G04 #@! TF.FilePolarity,Positive*
%FSLAX46Y46*%
G04 Gerber Fmt 4.6, Leading zero omitted, Abs format (unit mm)*
G04 Created by KiCad (PCBNEW (6.0.5)) date 2023-02-02 23:15:04*
%MOMM*%
%LPD*%
G01*
G04 APERTURE LIST*
G04 Aperture macros list*
%AMRoundRect*
0 Rectangle with rounded corners*
0 $1 Rounding radius*
0 $2 $3 $4 $5 $6 $7 $8 $9 X,Y pos of 4 corners*
0 Add a 4 corners polygon primitive as box body*
4,1,4,$2,$3,$4,$5,$6,$7,$8,$9,$2,$3,0*
0 Add four circle primitives for the rounded corners*
1,1,$1+$1,$2,$3*
1,1,$1+$1,$4,$5*
1,1,$1+$1,$6,$7*
1,1,$1+$1,$8,$9*
0 Add four rect primitives between the rounded corners*
20,1,$1+$1,$2,$3,$4,$5,0*
20,1,$1+$1,$4,$5,$6,$7,0*
20,1,$1+$1,$6,$7,$8,$9,0*
20,1,$1+$1,$8,$9,$2,$3,0*%
%AMFreePoly0*
4,1,22,0.550000,-0.750000,0.000000,-0.750000,0.000000,-0.745033,-0.079941,-0.743568,-0.215256,-0.701293,-0.333266,-0.622738,-0.424486,-0.514219,-0.481581,-0.384460,-0.499164,-0.250000,-0.500000,-0.250000,-0.500000,0.250000,-0.499164,0.250000,-0.499963,0.256109,-0.478152,0.396186,-0.417904,0.524511,-0.324060,0.630769,-0.204165,0.706417,-0.067858,0.745374,0.000000,0.744959,0.000000,0.750000,
0.550000,0.750000,0.550000,-0.750000,0.550000,-0.750000,$1*%
%AMFreePoly1*
4,1,20,0.000000,0.744959,0.073905,0.744508,0.209726,0.703889,0.328688,0.626782,0.421226,0.519385,0.479903,0.390333,0.500000,0.250000,0.500000,-0.250000,0.499851,-0.262216,0.476331,-0.402017,0.414519,-0.529596,0.319384,-0.634700,0.198574,-0.708877,0.061801,-0.746166,0.000000,-0.745033,0.000000,-0.750000,-0.550000,-0.750000,-0.550000,0.750000,0.000000,0.750000,0.000000,0.744959,
0.000000,0.744959,$1*%
%AMFreePoly2*
4,1,22,0.500000,-0.750000,0.000000,-0.750000,0.000000,-0.745033,-0.079941,-0.743568,-0.215256,-0.701293,-0.333266,-0.622738,-0.424486,-0.514219,-0.481581,-0.384460,-0.499164,-0.250000,-0.500000,-0.250000,-0.500000,0.250000,-0.499164,0.250000,-0.499963,0.256109,-0.478152,0.396186,-0.417904,0.524511,-0.324060,0.630769,-0.204165,0.706417,-0.067858,0.745374,0.000000,0.744959,0.000000,0.750000,
0.500000,0.750000,0.500000,-0.750000,0.500000,-0.750000,$1*%
%AMFreePoly3*
4,1,20,0.000000,0.744959,0.073905,0.744508,0.209726,0.703889,0.328688,0.626782,0.421226,0.519385,0.479903,0.390333,0.500000,0.250000,0.500000,-0.250000,0.499851,-0.262216,0.476331,-0.402017,0.414519,-0.529596,0.319384,-0.634700,0.198574,-0.708877,0.061801,-0.746166,0.000000,-0.745033,0.000000,-0.750000,-0.500000,-0.750000,-0.500000,0.750000,0.000000,0.750000,0.000000,0.744959,
0.000000,0.744959,$1*%
G04 Aperture macros list end*
G04 #@! TA.AperFunction,SMDPad,CuDef*
%ADD10RoundRect,0.250000X0.325000X0.650000X-0.325000X0.650000X-0.325000X-0.650000X0.325000X-0.650000X0*%
G04 #@! TD*
G04 #@! TA.AperFunction,SMDPad,CuDef*
%ADD11RoundRect,0.250000X-0.625000X0.312500X-0.625000X-0.312500X0.625000X-0.312500X0.625000X0.312500X0*%
G04 #@! TD*
G04 #@! TA.AperFunction,SMDPad,CuDef*
%ADD12RoundRect,0.250000X0.312500X0.625000X-0.312500X0.625000X-0.312500X-0.625000X0.312500X-0.625000X0*%
G04 #@! TD*
G04 #@! TA.AperFunction,SMDPad,CuDef*
%ADD13FreePoly0,0.000000*%
G04 #@! TD*
G04 #@! TA.AperFunction,SMDPad,CuDef*
%ADD14R,1.000000X1.500000*%
G04 #@! TD*
G04 #@! TA.AperFunction,SMDPad,CuDef*
%ADD15FreePoly1,0.000000*%
G04 #@! TD*
G04 #@! TA.AperFunction,SMDPad,CuDef*
%ADD16RoundRect,0.250000X0.375000X0.625000X-0.375000X0.625000X-0.375000X-0.625000X0.375000X-0.625000X0*%
G04 #@! TD*
G04 #@! TA.AperFunction,SMDPad,CuDef*
%ADD17RoundRect,0.250000X0.650000X-0.325000X0.650000X0.325000X-0.650000X0.325000X-0.650000X-0.325000X0*%
G04 #@! TD*
G04 #@! TA.AperFunction,ComponentPad*
%ADD18R,1.600000X1.600000*%
G04 #@! TD*
G04 #@! TA.AperFunction,ComponentPad*
%ADD19C,1.600000*%
G04 #@! TD*
G04 #@! TA.AperFunction,SMDPad,CuDef*
%ADD20RoundRect,0.250000X-0.325000X-0.650000X0.325000X-0.650000X0.325000X0.650000X-0.325000X0.650000X0*%
G04 #@! TD*
G04 #@! TA.AperFunction,ComponentPad*
%ADD21C,1.700000*%
G04 #@! TD*
G04 #@! TA.AperFunction,SMDPad,CuDef*
%ADD22RoundRect,0.250000X-0.312500X-0.625000X0.312500X-0.625000X0.312500X0.625000X-0.312500X0.625000X0*%
G04 #@! TD*
G04 #@! TA.AperFunction,SMDPad,CuDef*
%ADD23R,0.450000X1.750000*%
G04 #@! TD*
G04 #@! TA.AperFunction,SMDPad,CuDef*
%ADD24RoundRect,0.250000X-0.650000X0.325000X-0.650000X-0.325000X0.650000X-0.325000X0.650000X0.325000X0*%
G04 #@! TD*
G04 #@! TA.AperFunction,SMDPad,CuDef*
%ADD25RoundRect,0.250000X0.625000X-0.312500X0.625000X0.312500X-0.625000X0.312500X-0.625000X-0.312500X0*%
G04 #@! TD*
G04 #@! TA.AperFunction,SMDPad,CuDef*
%ADD26FreePoly2,0.000000*%
G04 #@! TD*
G04 #@! TA.AperFunction,SMDPad,CuDef*
%ADD27FreePoly3,0.000000*%
G04 #@! TD*
G04 #@! TA.AperFunction,ComponentPad*
%ADD28C,1.500000*%
G04 #@! TD*
G04 #@! TA.AperFunction,ComponentPad*
%ADD29C,2.000000*%
G04 #@! TD*
G04 #@! TA.AperFunction,SMDPad,CuDef*
%ADD30R,2.000000X1.500000*%
G04 #@! TD*
G04 #@! TA.AperFunction,SMDPad,CuDef*
%ADD31R,2.000000X3.800000*%
G04 #@! TD*
G04 #@! TA.AperFunction,SMDPad,CuDef*
%ADD32FreePoly2,180.000000*%
G04 #@! TD*
G04 #@! TA.AperFunction,SMDPad,CuDef*
%ADD33FreePoly3,180.000000*%
G04 #@! TD*
G04 #@! TA.AperFunction,ComponentPad*
%ADD34R,3.500000X3.500000*%
G04 #@! TD*
G04 #@! TA.AperFunction,ComponentPad*
%ADD35R,1.700000X1.700000*%
G04 #@! TD*
G04 #@! TA.AperFunction,ComponentPad*
%ADD36O,1.700000X1.700000*%
G04 #@! TD*
G04 #@! TA.AperFunction,ViaPad*
%ADD37C,0.800000*%
G04 #@! TD*
G04 #@! TA.AperFunction,Conductor*
%ADD38C,0.250000*%
G04 #@! TD*
G04 #@! TA.AperFunction,Conductor*
%ADD39C,0.400000*%
G04 #@! TD*
G04 #@! TA.AperFunction,Conductor*
%ADD40C,0.600000*%
G04 #@! TD*
G04 #@! TA.AperFunction,Conductor*
%ADD41C,0.800000*%
G04 #@! TD*
G04 APERTURE END LIST*
D10*
X129255000Y-96550000D03*
X126305000Y-96550000D03*
D11*
X162640000Y-100257500D03*
X162640000Y-103182500D03*
D12*
X174962500Y-99500000D03*
X172037500Y-99500000D03*
D13*
X175020000Y-92750000D03*
D14*
X176320000Y-92750000D03*
D15*
X177620000Y-92750000D03*
D16*
X181400000Y-99500000D03*
X178600000Y-99500000D03*
X111500000Y-112700000D03*
X108700000Y-112700000D03*
D17*
X160190000Y-103155000D03*
X160190000Y-100205000D03*
D18*
X111752651Y-102400000D03*
D19*
X108252651Y-102400000D03*
D20*
X138245000Y-107370000D03*
X141195000Y-107370000D03*
D21*
X143510000Y-88900000D03*
X143510000Y-86360000D03*
X151130000Y-91440000D03*
X143510000Y-83820000D03*
D22*
X108737500Y-109200000D03*
X111662500Y-109200000D03*
D21*
X151130000Y-88900000D03*
X151130000Y-83820000D03*
X151130000Y-93980000D03*
D23*
X131665000Y-98530000D03*
X132315000Y-98530000D03*
X132965000Y-98530000D03*
X133615000Y-98530000D03*
X134265000Y-98530000D03*
X134915000Y-98530000D03*
X135565000Y-98530000D03*
X136215000Y-98530000D03*
X136865000Y-98530000D03*
X137515000Y-98530000D03*
X138165000Y-98530000D03*
X138815000Y-98530000D03*
X139465000Y-98530000D03*
X140115000Y-98530000D03*
X140115000Y-91330000D03*
X139465000Y-91330000D03*
X138815000Y-91330000D03*
X138165000Y-91330000D03*
X137515000Y-91330000D03*
X136865000Y-91330000D03*
X136215000Y-91330000D03*
X135565000Y-91330000D03*
X134915000Y-91330000D03*
X134265000Y-91330000D03*
X133615000Y-91330000D03*
X132965000Y-91330000D03*
X132315000Y-91330000D03*
X131665000Y-91330000D03*
D21*
X156210000Y-88900000D03*
D24*
X174940000Y-84385000D03*
X174940000Y-87335000D03*
X116600000Y-104425000D03*
X116600000Y-107375000D03*
D21*
X153670000Y-93980000D03*
D16*
X181400000Y-104500000D03*
X178600000Y-104500000D03*
D21*
X158750000Y-88900000D03*
D16*
X181400000Y-107000000D03*
X178600000Y-107000000D03*
D21*
X146050000Y-91440000D03*
X148590000Y-81280000D03*
D25*
X172170000Y-87322500D03*
X172170000Y-84397500D03*
D21*
X158750000Y-86360000D03*
X151130000Y-86360000D03*
D16*
X181400000Y-97000000D03*
X178600000Y-97000000D03*
D26*
X168850000Y-104500000D03*
D27*
X170150000Y-104500000D03*
D28*
X139590000Y-103540000D03*
X134690000Y-103540000D03*
D21*
X153665328Y-83805986D03*
X158750000Y-83820000D03*
X146050000Y-83820000D03*
X143510000Y-81280000D03*
X146050000Y-88900000D03*
X148590000Y-88900000D03*
X151130000Y-81280000D03*
D26*
X168850000Y-99500000D03*
D27*
X170150000Y-99500000D03*
D12*
X174962500Y-107000000D03*
X172037500Y-107000000D03*
D25*
X157590000Y-103142500D03*
X157590000Y-100217500D03*
D21*
X153665328Y-91425986D03*
D29*
X123330000Y-112000000D03*
X123330000Y-114540000D03*
X125870000Y-112000000D03*
X125870000Y-114540000D03*
X128410000Y-112000000D03*
X128410000Y-114540000D03*
X130950000Y-114540000D03*
X130950000Y-112000000D03*
X133490000Y-112000000D03*
X133490000Y-114540000D03*
X136030000Y-114540000D03*
X136030000Y-112000000D03*
X138570000Y-112000000D03*
X138570000Y-114540000D03*
X141110000Y-114540000D03*
X141110000Y-112000000D03*
X143650000Y-114540000D03*
X143650000Y-112000000D03*
X146190000Y-112000000D03*
X146190000Y-114540000D03*
X148730000Y-112000000D03*
X148730000Y-114540000D03*
X151270000Y-112000000D03*
X151270000Y-114540000D03*
X153810000Y-114540000D03*
X153810000Y-112000000D03*
X156350000Y-112000000D03*
X156350000Y-114540000D03*
X158890000Y-114540000D03*
X158890000Y-112000000D03*
X161430000Y-112000000D03*
X161430000Y-114540000D03*
X163970000Y-114540000D03*
X163970000Y-112000000D03*
X166510000Y-114540000D03*
X166510000Y-112000000D03*
X169050000Y-112000000D03*
X169050000Y-114540000D03*
X171590000Y-112000000D03*
X171590000Y-114540000D03*
X174130000Y-112000000D03*
X174130000Y-114540000D03*
X176670000Y-112000000D03*
X176670000Y-114540000D03*
X176670000Y-75460000D03*
X176670000Y-78000000D03*
X174130000Y-78000000D03*
X174130000Y-75460000D03*
X171590000Y-75460000D03*
X171590000Y-78000000D03*
X169050000Y-78000000D03*
X169050000Y-75460000D03*
X166510000Y-75460000D03*
X166510000Y-78000000D03*
X163970000Y-78000000D03*
X163970000Y-75460000D03*
X161430000Y-78000000D03*
X161430000Y-75460000D03*
X158890000Y-75460000D03*
X158890000Y-78000000D03*
X156350000Y-75460000D03*
X156350000Y-78000000D03*
X153810000Y-78000000D03*
X153810000Y-75460000D03*
X151270000Y-75460000D03*
X151270000Y-78000000D03*
X148730000Y-75460000D03*
X148730000Y-78000000D03*
X146190000Y-75460000D03*
X146190000Y-78000000D03*
X143650000Y-78000000D03*
X143650000Y-75460000D03*
X141110000Y-75460000D03*
X141110000Y-78000000D03*
X138570000Y-75460000D03*
X138570000Y-78000000D03*
X136030000Y-78000000D03*
X136030000Y-75460000D03*
X133490000Y-78000000D03*
X133490000Y-75460000D03*
X130950000Y-78000000D03*
X130950000Y-75460000D03*
X128410000Y-78000000D03*
X128410000Y-75460000D03*
X125870000Y-75460000D03*
X125870000Y-78000000D03*
X123330000Y-78000000D03*
X123330000Y-75460000D03*
D18*
X111634651Y-93726000D03*
D19*
X108134651Y-93726000D03*
D21*
X158750000Y-81280000D03*
X156210000Y-86360000D03*
D20*
X137745000Y-87390000D03*
X140695000Y-87390000D03*
D30*
X115650000Y-96900000D03*
X115650000Y-99200000D03*
X115650000Y-101500000D03*
D31*
X121950000Y-99200000D03*
D22*
X172037500Y-97000000D03*
X174962500Y-97000000D03*
D25*
X155020000Y-103132500D03*
X155020000Y-100207500D03*
D21*
X148590000Y-83820000D03*
X156210000Y-93980000D03*
X156210000Y-91440000D03*
D32*
X151140000Y-102210000D03*
D33*
X149840000Y-102210000D03*
D26*
X168850000Y-107000000D03*
D27*
X170150000Y-107000000D03*
D12*
X174962500Y-102000000D03*
X172037500Y-102000000D03*
D21*
X146050000Y-93980000D03*
X153665328Y-86345986D03*
D20*
X115655000Y-94160000D03*
X118605000Y-94160000D03*
D34*
X114600000Y-82200000D03*
X107600000Y-82200000D03*
X111600000Y-86900000D03*
D26*
X168850000Y-102000000D03*
D27*
X170150000Y-102000000D03*
D21*
X146050000Y-81280000D03*
X148590000Y-91440000D03*
X153670000Y-81280000D03*
X143510000Y-91440000D03*
X156210000Y-81280000D03*
D29*
X163800000Y-82775000D03*
X163800000Y-89275000D03*
X168300000Y-89275000D03*
X168300000Y-82775000D03*
D21*
X148590000Y-86360000D03*
X153665328Y-88885986D03*
D35*
X111835000Y-76120000D03*
D36*
X109295000Y-76120000D03*
D16*
X181400000Y-102000000D03*
X178600000Y-102000000D03*
D21*
X148590000Y-93980000D03*
X158750000Y-91440000D03*
X146050000Y-86360000D03*
X156210000Y-83820000D03*
D10*
X136225000Y-107390000D03*
X133275000Y-107390000D03*
D12*
X174962500Y-104500000D03*
X172037500Y-104500000D03*
D32*
X151190000Y-104900000D03*
D33*
X149890000Y-104900000D03*
D35*
X178370000Y-83120000D03*
D36*
X180910000Y-83120000D03*
X178370000Y-85660000D03*
X180910000Y-85660000D03*
X178370000Y-88200000D03*
X180910000Y-88200000D03*
D37*
X137950000Y-109480000D03*
X151840000Y-109640000D03*
X147000000Y-100140000D03*
X146050000Y-99250000D03*
X145120000Y-98390000D03*
X178060000Y-109320000D03*
X179000000Y-110120000D03*
X144250000Y-97590000D03*
X149210000Y-97550000D03*
X130970000Y-99780000D03*
X138910000Y-89250000D03*
X157590000Y-99030000D03*
X132290000Y-107390000D03*
X142180000Y-107370000D03*
X136060000Y-100520000D03*
X164110000Y-100240000D03*
X131250000Y-93120000D03*
X132310000Y-93960000D03*
X168860000Y-96730000D03*
X175020000Y-91270000D03*
X177630000Y-91250000D03*
X165110000Y-103170000D03*
D38*
X132315000Y-98530000D02*
X132315000Y-99655000D01*
X127910000Y-109960000D02*
X125870000Y-112000000D01*
X127910000Y-104060000D02*
X127910000Y-109960000D01*
X132315000Y-99655000D02*
X127910000Y-104060000D01*
X128410000Y-110750000D02*
X128410000Y-112000000D01*
X132965000Y-99745000D02*
X128800000Y-103910000D01*
X132965000Y-98530000D02*
X132965000Y-99745000D01*
X128800000Y-110360000D02*
X128410000Y-110750000D01*
X128800000Y-103910000D02*
X128800000Y-110360000D01*
X133615000Y-99825000D02*
X129480000Y-103960000D01*
X129480000Y-103960000D02*
X129480000Y-109270000D01*
X130950000Y-110740000D02*
X130950000Y-112000000D01*
X133615000Y-98530000D02*
X133615000Y-99825000D01*
X129480000Y-109270000D02*
X130950000Y-110740000D01*
X138245000Y-107705000D02*
X141120000Y-110580000D01*
X139590000Y-103540000D02*
X139590000Y-104940000D01*
X138245000Y-107370000D02*
X138245000Y-107705000D01*
X139590000Y-102950000D02*
X139590000Y-103540000D01*
X138245000Y-107370000D02*
X138245000Y-106285000D01*
X138245000Y-106285000D02*
X139590000Y-104940000D01*
X137515000Y-98530000D02*
X137515000Y-100875000D01*
X141120000Y-110580000D02*
X141120000Y-111990000D01*
X137515000Y-100875000D02*
X139590000Y-102950000D01*
X141120000Y-111990000D02*
X141110000Y-112000000D01*
X136225000Y-106165000D02*
X134690000Y-104630000D01*
X134690000Y-103540000D02*
X134690000Y-104630000D01*
X136865000Y-98530000D02*
X136865000Y-100935000D01*
X136225000Y-107755000D02*
X137950000Y-109480000D01*
X136225000Y-107390000D02*
X136225000Y-106165000D01*
X134690000Y-103110000D02*
X134690000Y-103540000D01*
X136865000Y-100935000D02*
X134690000Y-103110000D01*
X136225000Y-107390000D02*
X136225000Y-107755000D01*
X139630000Y-101710000D02*
X140980000Y-101710000D01*
X142355000Y-103085000D02*
X142355000Y-105725000D01*
X138165000Y-98530000D02*
X138165000Y-100245000D01*
X138165000Y-100245000D02*
X139630000Y-101710000D01*
X142355000Y-105725000D02*
X146190000Y-109560000D01*
X140980000Y-101710000D02*
X142355000Y-103085000D01*
X146190000Y-109560000D02*
X146190000Y-112000000D01*
X143585000Y-103385000D02*
X143585000Y-104855000D01*
X143585000Y-104855000D02*
X147210000Y-108480000D01*
X139910000Y-101070000D02*
X141270000Y-101070000D01*
X147210000Y-108480000D02*
X147625000Y-108895000D01*
X138815000Y-98530000D02*
X138815000Y-99975000D01*
X148730000Y-112000000D02*
X148730000Y-110000000D01*
X141270000Y-101070000D02*
X143585000Y-103385000D01*
X148730000Y-110000000D02*
X147210000Y-108480000D01*
X138815000Y-99975000D02*
X139910000Y-101070000D01*
X141520000Y-100510000D02*
X144660000Y-103650000D01*
X139465000Y-99775000D02*
X140200000Y-100510000D01*
X160610480Y-104639520D02*
X160610480Y-104649520D01*
X153970000Y-109300000D02*
X151270000Y-112000000D01*
X168850000Y-99500000D02*
X166690000Y-101660000D01*
X151270000Y-110910000D02*
X151270000Y-112000000D01*
X165570480Y-104639520D02*
X160610480Y-104639520D01*
X166690000Y-103520000D02*
X165570480Y-104639520D01*
X155960000Y-109300000D02*
X153970000Y-109300000D01*
X160610480Y-104649520D02*
X155960000Y-109300000D01*
X140200000Y-100510000D02*
X141520000Y-100510000D01*
X139465000Y-98530000D02*
X139465000Y-99775000D01*
X144660000Y-104300000D02*
X151270000Y-110910000D01*
X166690000Y-101660000D02*
X166690000Y-103520000D01*
X144660000Y-103650000D02*
X144660000Y-104300000D01*
X167630000Y-104010000D02*
X166270000Y-105370000D01*
X166270000Y-105370000D02*
X160950000Y-105370000D01*
X168850000Y-102000000D02*
X167630000Y-103220000D01*
X160950000Y-105370000D02*
X156260000Y-110060000D01*
X140115000Y-99265000D02*
X140115000Y-98530000D01*
X142140000Y-99940000D02*
X140790000Y-99940000D01*
X167630000Y-103220000D02*
X167630000Y-104010000D01*
X151840000Y-109640000D02*
X142140000Y-99940000D01*
X140790000Y-99940000D02*
X140115000Y-99265000D01*
X153810000Y-112000000D02*
X155750000Y-110060000D01*
X155750000Y-110060000D02*
X156260000Y-110060000D01*
X140115000Y-91330000D02*
X140115000Y-92135000D01*
X167130000Y-106220000D02*
X168850000Y-104500000D01*
X161330000Y-106220000D02*
X167130000Y-106220000D01*
X147000000Y-97210000D02*
X147000000Y-100140000D01*
X140115000Y-92135000D02*
X141180000Y-93200000D01*
X156350000Y-112000000D02*
X156350000Y-111200000D01*
X156350000Y-111200000D02*
X161330000Y-106220000D01*
X141180000Y-93200000D02*
X142990000Y-93200000D01*
X142990000Y-93200000D02*
X147000000Y-97210000D01*
X139465000Y-91330000D02*
X139465000Y-92545000D01*
X158890000Y-110000000D02*
X158890000Y-112000000D01*
X146050000Y-97230000D02*
X146050000Y-99250000D01*
X168850000Y-107000000D02*
X161890000Y-107000000D01*
X161890000Y-107000000D02*
X158890000Y-110000000D01*
X140650000Y-93730000D02*
X142550000Y-93730000D01*
X142550000Y-93730000D02*
X146050000Y-97230000D01*
X139465000Y-92545000D02*
X140650000Y-93730000D01*
X145120000Y-97230000D02*
X145120000Y-98390000D01*
X140810000Y-94310000D02*
X142200000Y-94310000D01*
X138815000Y-92735000D02*
X140390000Y-94310000D01*
X138815000Y-91330000D02*
X138815000Y-92735000D01*
X140810000Y-94310000D02*
X142050000Y-94310000D01*
X140390000Y-94310000D02*
X140810000Y-94310000D01*
X178060000Y-109320000D02*
X164110000Y-109320000D01*
X164110000Y-109320000D02*
X161430000Y-112000000D01*
X142200000Y-94310000D02*
X145120000Y-97230000D01*
X161430000Y-112000000D02*
X161430000Y-111190000D01*
X165850000Y-110120000D02*
X179000000Y-110120000D01*
X138165000Y-92895000D02*
X140120000Y-94850000D01*
X140120000Y-94850000D02*
X141360000Y-94850000D01*
X138165000Y-91330000D02*
X138165000Y-92895000D01*
X141510000Y-94850000D02*
X144250000Y-97590000D01*
X163970000Y-112000000D02*
X165850000Y-110120000D01*
X140120000Y-94850000D02*
X141510000Y-94850000D01*
D39*
X165300000Y-96100000D02*
X150660000Y-96100000D01*
X169922500Y-84397500D02*
X168300000Y-82775000D01*
X172170000Y-84397500D02*
X169922500Y-84397500D01*
X168300000Y-93100000D02*
X165300000Y-96100000D01*
X173447500Y-83120000D02*
X172170000Y-84397500D01*
X168300000Y-89275000D02*
X168300000Y-93100000D01*
X131665000Y-99085000D02*
X130970000Y-99780000D01*
X131665000Y-98530000D02*
X131665000Y-99085000D01*
X178370000Y-83120000D02*
X173447500Y-83120000D01*
X150660000Y-96100000D02*
X149210000Y-97550000D01*
D38*
X137515000Y-89945000D02*
X138210000Y-89250000D01*
X136215000Y-100365000D02*
X136060000Y-100520000D01*
X137515000Y-91330000D02*
X137515000Y-89945000D01*
X136215000Y-98530000D02*
X136215000Y-100365000D01*
X138210000Y-89250000D02*
X138910000Y-89250000D01*
X136215000Y-86065000D02*
X143650000Y-78630000D01*
X136215000Y-91330000D02*
X136215000Y-86065000D01*
X143650000Y-78630000D02*
X143650000Y-78000000D01*
X135565000Y-85015000D02*
X141110000Y-79470000D01*
X141110000Y-79470000D02*
X141110000Y-78000000D01*
X135565000Y-91330000D02*
X135565000Y-85015000D01*
X134915000Y-83985000D02*
X138570000Y-80330000D01*
X138570000Y-80330000D02*
X138570000Y-78000000D01*
X134915000Y-91330000D02*
X134915000Y-83985000D01*
X134265000Y-91330000D02*
X134265000Y-83125000D01*
X134265000Y-83125000D02*
X136030000Y-81360000D01*
X136030000Y-81360000D02*
X136030000Y-78000000D01*
X133615000Y-91330000D02*
X133615000Y-78125000D01*
X133615000Y-78125000D02*
X133490000Y-78000000D01*
X132965000Y-91330000D02*
X132965000Y-83155000D01*
X132965000Y-83155000D02*
X130950000Y-81140000D01*
X130950000Y-81140000D02*
X130950000Y-78000000D01*
D40*
X115035000Y-104425000D02*
X116600000Y-104425000D01*
D41*
X158750000Y-81280000D02*
X156210000Y-81280000D01*
D40*
X123330000Y-78000000D02*
X123330000Y-79560000D01*
X111662500Y-109200000D02*
X111662500Y-107797500D01*
D39*
X174940000Y-84385000D02*
X174615000Y-84385000D01*
D40*
X160010000Y-81280000D02*
X158750000Y-81280000D01*
X162610000Y-86320000D02*
X169310000Y-86320000D01*
D41*
X126235000Y-104425000D02*
X129255000Y-101405000D01*
D40*
X142690000Y-81280000D02*
X143510000Y-81280000D01*
X172170000Y-91420000D02*
X164110000Y-99480000D01*
X172170000Y-87322500D02*
X170312500Y-87322500D01*
D39*
X163152500Y-100240000D02*
X163150000Y-100237500D01*
D40*
X172170000Y-87322500D02*
X172170000Y-91420000D01*
D41*
X129255000Y-101405000D02*
X129255000Y-96550000D01*
D40*
X137745000Y-86225000D02*
X142690000Y-81280000D01*
X161470000Y-82740000D02*
X161470000Y-85180000D01*
X148590000Y-81280000D02*
X151130000Y-81280000D01*
D38*
X136865000Y-91330000D02*
X136865000Y-88270000D01*
D40*
X146050000Y-81280000D02*
X148590000Y-81280000D01*
X143510000Y-81280000D02*
X146050000Y-81280000D01*
D39*
X172607500Y-87322500D02*
X172170000Y-87322500D01*
D41*
X129255000Y-86265000D02*
X123330000Y-80340000D01*
D40*
X161470000Y-85180000D02*
X162610000Y-86320000D01*
X137745000Y-87390000D02*
X137745000Y-86225000D01*
D39*
X129255000Y-96550000D02*
X133350000Y-96550000D01*
D40*
X160010000Y-81280000D02*
X161470000Y-82740000D01*
X162640000Y-100257500D02*
X164092500Y-100257500D01*
D39*
X179645000Y-84385000D02*
X174940000Y-84385000D01*
D38*
X136865000Y-88270000D02*
X137745000Y-87390000D01*
D39*
X173550000Y-86380000D02*
X172607500Y-87322500D01*
X173550000Y-85450000D02*
X173550000Y-86380000D01*
D41*
X129255000Y-96550000D02*
X129255000Y-86265000D01*
D39*
X180910000Y-83120000D02*
X179645000Y-84385000D01*
D40*
X164092500Y-100257500D02*
X164110000Y-100240000D01*
D41*
X156210000Y-81280000D02*
X153670000Y-81280000D01*
D40*
X151130000Y-81280000D02*
X153670000Y-81280000D01*
X111662500Y-107797500D02*
X115035000Y-104425000D01*
X170312500Y-87322500D02*
X169310000Y-86320000D01*
D41*
X123330000Y-80340000D02*
X123330000Y-78000000D01*
D39*
X136865000Y-93035000D02*
X136865000Y-91330000D01*
D38*
X111752651Y-109109849D02*
X111662500Y-109200000D01*
D39*
X174615000Y-84385000D02*
X173550000Y-85450000D01*
D41*
X116600000Y-104425000D02*
X126235000Y-104425000D01*
D38*
X172170000Y-87322500D02*
X172170000Y-87155000D01*
D39*
X133350000Y-96550000D02*
X136865000Y-93035000D01*
D40*
X164110000Y-99480000D02*
X164110000Y-100240000D01*
D38*
X108737500Y-112662500D02*
X108700000Y-112700000D01*
X108737500Y-109200000D02*
X108737500Y-112662500D01*
X174962500Y-104500000D02*
X178600000Y-104500000D01*
X174962500Y-99500000D02*
X178600000Y-99500000D01*
X174962500Y-102000000D02*
X178600000Y-102000000D01*
X174962500Y-107000000D02*
X178600000Y-107000000D01*
X170150000Y-99500000D02*
X172037500Y-99500000D01*
X170150000Y-102000000D02*
X172037500Y-102000000D01*
X170150000Y-107000000D02*
X172037500Y-107000000D01*
X170150000Y-104500000D02*
X172037500Y-104500000D01*
X125870000Y-78000000D02*
X125870000Y-78990000D01*
X131665000Y-84785000D02*
X125870000Y-78990000D01*
X131245000Y-93115000D02*
X131250000Y-93120000D01*
X131665000Y-91330000D02*
X131665000Y-89805000D01*
X131665000Y-92705000D02*
X131250000Y-93120000D01*
X131665000Y-91330000D02*
X131665000Y-92705000D01*
X131665000Y-89805000D02*
X131665000Y-84785000D01*
X132315000Y-93955000D02*
X132310000Y-93960000D01*
X132315000Y-83915000D02*
X128410000Y-80010000D01*
X132315000Y-91330000D02*
X132315000Y-83915000D01*
X128410000Y-80010000D02*
X128410000Y-78000000D01*
X132315000Y-91330000D02*
X132315000Y-93955000D01*
X155020000Y-103132500D02*
X153242500Y-103132500D01*
X164550000Y-101420000D02*
X156732500Y-101420000D01*
X156732500Y-101420000D02*
X155020000Y-103132500D01*
X152320000Y-102210000D02*
X151140000Y-102210000D01*
X168160000Y-96730000D02*
X166120000Y-98770000D01*
X166120000Y-98770000D02*
X166120000Y-99850000D01*
X166120000Y-99850000D02*
X164550000Y-101420000D01*
X153242500Y-103132500D02*
X152320000Y-102210000D01*
X168860000Y-96730000D02*
X168160000Y-96730000D01*
X175020000Y-92750000D02*
X175020000Y-91270000D01*
X173827500Y-95210000D02*
X172037500Y-97000000D01*
X177620000Y-91260000D02*
X177630000Y-91250000D01*
X176250000Y-95210000D02*
X173827500Y-95210000D01*
X177620000Y-92750000D02*
X177620000Y-93840000D01*
X177620000Y-93840000D02*
X176250000Y-95210000D01*
X177620000Y-92750000D02*
X177620000Y-91260000D01*
X174962500Y-97000000D02*
X178600000Y-97000000D01*
X151190000Y-104900000D02*
X158445000Y-104900000D01*
X165097500Y-103182500D02*
X165110000Y-103170000D01*
X163132500Y-103145000D02*
X163150000Y-103162500D01*
X162612500Y-103155000D02*
X162640000Y-103182500D01*
X160190000Y-103155000D02*
X162612500Y-103155000D01*
X165102500Y-103162500D02*
X165110000Y-103170000D01*
X158445000Y-104900000D02*
X160190000Y-103155000D01*
X151190000Y-104900000D02*
X151199520Y-104909520D01*
X162640000Y-103182500D02*
X165097500Y-103182500D01*
X135565000Y-97095000D02*
X136120000Y-96540000D01*
X148290000Y-104900000D02*
X149890000Y-104900000D01*
X131410000Y-108050000D02*
X132755000Y-109395000D01*
X135965000Y-109395000D02*
X138570000Y-112000000D01*
X139930000Y-96540000D02*
X148290000Y-104900000D01*
X131410000Y-104130000D02*
X131410000Y-108050000D01*
X135565000Y-98530000D02*
X135565000Y-97095000D01*
X136120000Y-96540000D02*
X139930000Y-96540000D01*
X132755000Y-109395000D02*
X135965000Y-109395000D01*
X135565000Y-98530000D02*
X135565000Y-99975000D01*
X135565000Y-99975000D02*
X131410000Y-104130000D01*
X130080000Y-108590000D02*
X133490000Y-112000000D01*
X135500000Y-95410000D02*
X140810000Y-95410000D01*
X134265000Y-98530000D02*
X134265000Y-96645000D01*
X134265000Y-99905000D02*
X130080000Y-104090000D01*
X147610000Y-102210000D02*
X149840000Y-102210000D01*
X140810000Y-95410000D02*
X147610000Y-102210000D01*
X130080000Y-104090000D02*
X130080000Y-108590000D01*
X134265000Y-98530000D02*
X134265000Y-99905000D01*
X134265000Y-96645000D02*
X135500000Y-95410000D01*
X172540000Y-94340000D02*
X169270000Y-97610000D01*
X176320000Y-92750000D02*
X176320000Y-93750000D01*
X175730000Y-94340000D02*
X174270000Y-94340000D01*
X134170000Y-110140000D02*
X136030000Y-112000000D01*
X152380000Y-103510000D02*
X153196250Y-104326250D01*
X130760000Y-108230000D02*
X132670000Y-110140000D01*
X134915000Y-96935000D02*
X135870000Y-95980000D01*
X174270000Y-94340000D02*
X172660000Y-94340000D01*
X147900000Y-103510000D02*
X152380000Y-103510000D01*
X140370000Y-95980000D02*
X147900000Y-103510000D01*
X156406250Y-104326250D02*
X157590000Y-103142500D01*
X169270000Y-97610000D02*
X168100000Y-97610000D01*
X158772500Y-101960000D02*
X157590000Y-103142500D01*
X130760000Y-104110000D02*
X130760000Y-108230000D01*
X135870000Y-95980000D02*
X140370000Y-95980000D01*
X165110000Y-101960000D02*
X158772500Y-101960000D01*
X176320000Y-93750000D02*
X175730000Y-94340000D01*
X134915000Y-98530000D02*
X134915000Y-96935000D01*
X132670000Y-110140000D02*
X134170000Y-110140000D01*
X168100000Y-97610000D02*
X167035000Y-98675000D01*
X174270000Y-94340000D02*
X172540000Y-94340000D01*
X167035000Y-100035000D02*
X165110000Y-101960000D01*
X153196250Y-104326250D02*
X156406250Y-104326250D01*
X134915000Y-99955000D02*
X130760000Y-104110000D01*
X134915000Y-98530000D02*
X134915000Y-99955000D01*
X167035000Y-98675000D02*
X167035000Y-100035000D01*
G04 #@! TA.AperFunction,Conductor*
G36*
X114079799Y-100520002D02*
G01*
X114090287Y-100527529D01*
X114220734Y-100631664D01*
X114382423Y-100709827D01*
X114389284Y-100711411D01*
X114552212Y-100749026D01*
X114552215Y-100749026D01*
X114557411Y-100750226D01*
X114562163Y-100750500D01*
X114658132Y-100750500D01*
X116698309Y-100750499D01*
X116766430Y-100770501D01*
X116787404Y-100787404D01*
X116963095Y-100963095D01*
X116997121Y-101025407D01*
X117000000Y-101052190D01*
X117000000Y-103000000D01*
X117963095Y-103963095D01*
X117997121Y-104025407D01*
X118000000Y-104052190D01*
X118000000Y-104947810D01*
X117979998Y-105015931D01*
X117963095Y-105036905D01*
X117536905Y-105463095D01*
X117474593Y-105497121D01*
X117447810Y-105500000D01*
X114052190Y-105500000D01*
X113984069Y-105479998D01*
X113963095Y-105463095D01*
X112500000Y-104000000D01*
X111052190Y-104000000D01*
X110984069Y-103979998D01*
X110963095Y-103963095D01*
X110536905Y-103536905D01*
X110502879Y-103474593D01*
X110500000Y-103447810D01*
X110500000Y-101052190D01*
X110520002Y-100984069D01*
X110536905Y-100963095D01*
X110963095Y-100536905D01*
X111025407Y-100502879D01*
X111052190Y-100500000D01*
X114011678Y-100500000D01*
X114079799Y-100520002D01*
G37*
G04 #@! TD.AperFunction*
G04 #@! TA.AperFunction,Conductor*
G36*
X112820971Y-74820502D02*
G01*
X112839630Y-74835148D01*
X113136552Y-75117224D01*
X113210782Y-75187743D01*
X113246394Y-75249163D01*
X113250000Y-75279093D01*
X113250000Y-78000000D01*
X114500000Y-79250000D01*
X115472810Y-79250000D01*
X115540931Y-79270002D01*
X115561905Y-79286905D01*
X116963095Y-80688095D01*
X116997121Y-80750407D01*
X117000000Y-80777190D01*
X117000000Y-97550798D01*
X116979998Y-97618919D01*
X116926342Y-97665412D01*
X116856068Y-97675516D01*
X116845661Y-97673570D01*
X116804291Y-97664019D01*
X116747788Y-97650974D01*
X116747785Y-97650974D01*
X116742589Y-97649774D01*
X116737837Y-97649500D01*
X116736013Y-97649500D01*
X115640677Y-97649501D01*
X114562164Y-97649501D01*
X114557411Y-97649774D01*
X114382423Y-97690173D01*
X114333440Y-97713852D01*
X114263406Y-97725492D01*
X114198194Y-97697420D01*
X114189507Y-97689507D01*
X113786905Y-97286905D01*
X113752879Y-97224593D01*
X113750000Y-97197810D01*
X113750000Y-95750000D01*
X113000000Y-95000000D01*
X111052190Y-95000000D01*
X110984069Y-94979998D01*
X110963095Y-94963095D01*
X110536905Y-94536905D01*
X110502879Y-94474593D01*
X110500000Y-94447810D01*
X110500000Y-92552190D01*
X110520002Y-92484069D01*
X110536905Y-92463095D01*
X110963095Y-92036905D01*
X111025407Y-92002879D01*
X111052190Y-92000000D01*
X113750000Y-92000000D01*
X114250000Y-91500000D01*
X114250000Y-85000000D01*
X114103752Y-84853752D01*
X114079407Y-84819496D01*
X114034731Y-84727078D01*
X114034730Y-84727077D01*
X114031664Y-84720734D01*
X113919620Y-84580380D01*
X113779266Y-84468336D01*
X113680504Y-84420593D01*
X113646248Y-84396248D01*
X113500000Y-84250000D01*
X112802190Y-84250000D01*
X112734069Y-84229998D01*
X112713095Y-84213095D01*
X112286905Y-83786905D01*
X112252879Y-83724593D01*
X112250000Y-83697810D01*
X112250000Y-80000000D01*
X110786905Y-78536905D01*
X110752879Y-78474593D01*
X110750000Y-78447810D01*
X110750000Y-76940052D01*
X110766668Y-76880944D01*
X110765321Y-76880258D01*
X110767568Y-76875849D01*
X110770154Y-76871628D01*
X110869573Y-76631610D01*
X110909016Y-76467320D01*
X110929066Y-76383807D01*
X110929067Y-76383801D01*
X110930221Y-76378994D01*
X110950604Y-76120000D01*
X110930221Y-75861006D01*
X110929067Y-75856199D01*
X110929066Y-75856193D01*
X110870728Y-75613202D01*
X110869573Y-75608390D01*
X110770154Y-75368372D01*
X110767568Y-75364151D01*
X110765321Y-75359742D01*
X110767151Y-75358810D01*
X110750881Y-75298612D01*
X110772353Y-75230940D01*
X110787757Y-75212243D01*
X111162595Y-74837405D01*
X111224907Y-74803379D01*
X111251690Y-74800500D01*
X112752850Y-74800500D01*
X112820971Y-74820502D01*
G37*
G04 #@! TD.AperFunction*
G04 #@! TA.AperFunction,Conductor*
G36*
X109961860Y-74820502D02*
G01*
X110008353Y-74874158D01*
X110018457Y-74944432D01*
X110008818Y-74977810D01*
X110006021Y-74984083D01*
X110006015Y-74984098D01*
X110004575Y-74987328D01*
X109983103Y-75055000D01*
X109959101Y-75150577D01*
X109946011Y-75330476D01*
X109973282Y-75508777D01*
X109980156Y-75534210D01*
X109983125Y-75548910D01*
X109983304Y-75549620D01*
X109984254Y-75556629D01*
X109986740Y-75563251D01*
X110024512Y-75663867D01*
X110027815Y-75675860D01*
X110025969Y-75676624D01*
X110097338Y-75848924D01*
X110103443Y-75867714D01*
X110111699Y-75902100D01*
X110129862Y-75977756D01*
X110132955Y-75997284D01*
X110141835Y-76110114D01*
X110141835Y-76129885D01*
X110132956Y-76242708D01*
X110129863Y-76262237D01*
X110110865Y-76341372D01*
X110103443Y-76372285D01*
X110097335Y-76391084D01*
X110025969Y-76563376D01*
X110027975Y-76564207D01*
X110026217Y-76571614D01*
X109992105Y-76662522D01*
X109989848Y-76661675D01*
X109989805Y-76661876D01*
X109991402Y-76662326D01*
X109990493Y-76665549D01*
X109987193Y-76675611D01*
X109984198Y-76683594D01*
X109983249Y-76690608D01*
X109982198Y-76694782D01*
X109981285Y-76698204D01*
X109974735Y-76721433D01*
X109964696Y-76760811D01*
X109964211Y-76765114D01*
X109964211Y-76765115D01*
X109953183Y-76862993D01*
X109944500Y-76940052D01*
X109944500Y-78447810D01*
X109949114Y-78533900D01*
X109951993Y-78560683D01*
X109952499Y-78563295D01*
X109952499Y-78563297D01*
X109973350Y-78670988D01*
X109977736Y-78693644D01*
X109980072Y-78699367D01*
X109980074Y-78699372D01*
X109992570Y-78729979D01*
X110045914Y-78860637D01*
X110079940Y-78922949D01*
X110080415Y-78923760D01*
X110080419Y-78923766D01*
X110102594Y-78961579D01*
X110102599Y-78961586D01*
X110104869Y-78965457D01*
X110107669Y-78968968D01*
X110107673Y-78968974D01*
X110201482Y-79086607D01*
X110217330Y-79106480D01*
X111407595Y-80296745D01*
X111441621Y-80359057D01*
X111444500Y-80385840D01*
X111444500Y-83697810D01*
X111449114Y-83783900D01*
X111451993Y-83810683D01*
X111452499Y-83813295D01*
X111452499Y-83813297D01*
X111467272Y-83889597D01*
X111477736Y-83943644D01*
X111480072Y-83949367D01*
X111480074Y-83949372D01*
X111485569Y-83962831D01*
X111545914Y-84110637D01*
X111579940Y-84172949D01*
X111580415Y-84173760D01*
X111580419Y-84173766D01*
X111602594Y-84211579D01*
X111602599Y-84211586D01*
X111604869Y-84215457D01*
X111607669Y-84218968D01*
X111607673Y-84218974D01*
X111697497Y-84331610D01*
X111717330Y-84356480D01*
X112143520Y-84782670D01*
X112207649Y-84840275D01*
X112208955Y-84841328D01*
X112208965Y-84841336D01*
X112222235Y-84852030D01*
X112228623Y-84857178D01*
X112230816Y-84858660D01*
X112230826Y-84858667D01*
X112288469Y-84897610D01*
X112340844Y-84932995D01*
X112507135Y-85002870D01*
X112575256Y-85022872D01*
X112576175Y-85023111D01*
X112576191Y-85023116D01*
X112618601Y-85034171D01*
X112618606Y-85034172D01*
X112622949Y-85035304D01*
X112627413Y-85035807D01*
X112798680Y-85055105D01*
X112798689Y-85055105D01*
X112802190Y-85055500D01*
X113143391Y-85055500D01*
X113211977Y-85075817D01*
X113213886Y-85077174D01*
X113317334Y-85138353D01*
X113361647Y-85182666D01*
X113422826Y-85286114D01*
X113424183Y-85288023D01*
X113444500Y-85356609D01*
X113444500Y-91068500D01*
X113424498Y-91136621D01*
X113370842Y-91183114D01*
X113318500Y-91194500D01*
X111052190Y-91194500D01*
X110998662Y-91197369D01*
X110967794Y-91199023D01*
X110967786Y-91199024D01*
X110966100Y-91199114D01*
X110939317Y-91201993D01*
X110936705Y-91202499D01*
X110936703Y-91202499D01*
X110812433Y-91226559D01*
X110812429Y-91226560D01*
X110806356Y-91227736D01*
X110800633Y-91230072D01*
X110800628Y-91230074D01*
X110673949Y-91281794D01*
X110639363Y-91295914D01*
X110636277Y-91297599D01*
X110636271Y-91297602D01*
X110614686Y-91309389D01*
X110577051Y-91329940D01*
X110576240Y-91330415D01*
X110576234Y-91330419D01*
X110538421Y-91352594D01*
X110538414Y-91352599D01*
X110534543Y-91354869D01*
X110531032Y-91357669D01*
X110531026Y-91357673D01*
X110396291Y-91465120D01*
X110393520Y-91467330D01*
X109967330Y-91893520D01*
X109909725Y-91957649D01*
X109892822Y-91978623D01*
X109891340Y-91980816D01*
X109891333Y-91980826D01*
X109871102Y-92010772D01*
X109817005Y-92090844D01*
X109814609Y-92096546D01*
X109772883Y-92195848D01*
X109747130Y-92257135D01*
X109727128Y-92325256D01*
X109714696Y-92372949D01*
X109714193Y-92377413D01*
X109696659Y-92533032D01*
X109694500Y-92552190D01*
X109694500Y-94447810D01*
X109699114Y-94533900D01*
X109701993Y-94560683D01*
X109727736Y-94693644D01*
X109730072Y-94699367D01*
X109730074Y-94699372D01*
X109777773Y-94816204D01*
X109795914Y-94860637D01*
X109829940Y-94922949D01*
X109830415Y-94923760D01*
X109830419Y-94923766D01*
X109852594Y-94961579D01*
X109852599Y-94961586D01*
X109854869Y-94965457D01*
X109857669Y-94968968D01*
X109857673Y-94968974D01*
X109965120Y-95103709D01*
X109967330Y-95106480D01*
X110393520Y-95532670D01*
X110457649Y-95590275D01*
X110458955Y-95591328D01*
X110458965Y-95591336D01*
X110472235Y-95602030D01*
X110478623Y-95607178D01*
X110480816Y-95608660D01*
X110480826Y-95608667D01*
X110538469Y-95647610D01*
X110590844Y-95682995D01*
X110757135Y-95752870D01*
X110825256Y-95772872D01*
X110826175Y-95773111D01*
X110826191Y-95773116D01*
X110868601Y-95784171D01*
X110868606Y-95784172D01*
X110872949Y-95785304D01*
X110877413Y-95785807D01*
X111048680Y-95805105D01*
X111048689Y-95805105D01*
X111052190Y-95805500D01*
X112614160Y-95805500D01*
X112682281Y-95825502D01*
X112703255Y-95842405D01*
X112907595Y-96046745D01*
X112941621Y-96109057D01*
X112944500Y-96135840D01*
X112944500Y-97197810D01*
X112949114Y-97283900D01*
X112951993Y-97310683D01*
X112977736Y-97443644D01*
X112980072Y-97449367D01*
X112980074Y-97449372D01*
X113008273Y-97518440D01*
X113045914Y-97610637D01*
X113079940Y-97672949D01*
X113080415Y-97673760D01*
X113080419Y-97673766D01*
X113102594Y-97711579D01*
X113102599Y-97711586D01*
X113104869Y-97715457D01*
X113107669Y-97718968D01*
X113107673Y-97718974D01*
X113206146Y-97842456D01*
X113217330Y-97856480D01*
X113619932Y-98259082D01*
X113647079Y-98284992D01*
X113655766Y-98292905D01*
X113723055Y-98347860D01*
X113727598Y-98350453D01*
X113727599Y-98350454D01*
X113777417Y-98378892D01*
X113879704Y-98437281D01*
X113882947Y-98438677D01*
X113882949Y-98438678D01*
X113943138Y-98464588D01*
X113943149Y-98464592D01*
X113944916Y-98465353D01*
X113946727Y-98466005D01*
X113946731Y-98466006D01*
X114004987Y-98486961D01*
X114037630Y-98498703D01*
X114043015Y-98499638D01*
X114043019Y-98499639D01*
X114192506Y-98525592D01*
X114215346Y-98529557D01*
X114311481Y-98524505D01*
X114391939Y-98520278D01*
X114391945Y-98520277D01*
X114395472Y-98520092D01*
X114465506Y-98508452D01*
X114466449Y-98508266D01*
X114466457Y-98508264D01*
X114509444Y-98499760D01*
X114509446Y-98499759D01*
X114513851Y-98498888D01*
X114519642Y-98496852D01*
X114609702Y-98465189D01*
X114623148Y-98461286D01*
X114636380Y-98458231D01*
X114664725Y-98455001D01*
X115649998Y-98455001D01*
X116635270Y-98455000D01*
X116663150Y-98458176D01*
X116663160Y-98458132D01*
X116663589Y-98458226D01*
X116663613Y-98458229D01*
X116663841Y-98458282D01*
X116663892Y-98458293D01*
X116664463Y-98458425D01*
X116697607Y-98465347D01*
X116708014Y-98467293D01*
X116709611Y-98467507D01*
X116709617Y-98467508D01*
X116736659Y-98471132D01*
X116790414Y-98478336D01*
X116970704Y-98472817D01*
X116974201Y-98472314D01*
X116974203Y-98472314D01*
X117007628Y-98467508D01*
X117040978Y-98462713D01*
X117042849Y-98462326D01*
X117042860Y-98462324D01*
X117132114Y-98443859D01*
X117132118Y-98443858D01*
X117137463Y-98442752D01*
X117305145Y-98376284D01*
X117453831Y-98274169D01*
X117507487Y-98227676D01*
X117577869Y-98158716D01*
X117682995Y-98012144D01*
X117752870Y-97845853D01*
X117772872Y-97777732D01*
X117780401Y-97748849D01*
X117784171Y-97734387D01*
X117784172Y-97734382D01*
X117785304Y-97730039D01*
X117791737Y-97672949D01*
X117805105Y-97554308D01*
X117805105Y-97554299D01*
X117805500Y-97550798D01*
X117805500Y-97212163D01*
X120149500Y-97212163D01*
X120149501Y-101187836D01*
X120149774Y-101192589D01*
X120190173Y-101367577D01*
X120268336Y-101529266D01*
X120380380Y-101669620D01*
X120520734Y-101781664D01*
X120682423Y-101859827D01*
X120689284Y-101861411D01*
X120852212Y-101899026D01*
X120852215Y-101899026D01*
X120857411Y-101900226D01*
X120862163Y-101900500D01*
X120863987Y-101900500D01*
X121959323Y-101900499D01*
X123037836Y-101900499D01*
X123042589Y-101900226D01*
X123217577Y-101859827D01*
X123379266Y-101781664D01*
X123519620Y-101669620D01*
X123631664Y-101529266D01*
X123709827Y-101367577D01*
X123725839Y-101298221D01*
X123749026Y-101197788D01*
X123749026Y-101197785D01*
X123750226Y-101192589D01*
X123750500Y-101187837D01*
X123750499Y-97212164D01*
X123750226Y-97207411D01*
X123709827Y-97032423D01*
X123631664Y-96870734D01*
X123519620Y-96730380D01*
X123379266Y-96618336D01*
X123217577Y-96540173D01*
X123210716Y-96538589D01*
X123047788Y-96500974D01*
X123047785Y-96500974D01*
X123042589Y-96499774D01*
X123037837Y-96499500D01*
X123036013Y-96499500D01*
X121940677Y-96499501D01*
X120862164Y-96499501D01*
X120857411Y-96499774D01*
X120682423Y-96540173D01*
X120520734Y-96618336D01*
X120380380Y-96730380D01*
X120268336Y-96870734D01*
X120190173Y-97032423D01*
X120188589Y-97039284D01*
X120151596Y-97199520D01*
X120149774Y-97207411D01*
X120149500Y-97212163D01*
X117805500Y-97212163D01*
X117805500Y-80777190D01*
X117800886Y-80691100D01*
X117798007Y-80664317D01*
X117784815Y-80596179D01*
X117773441Y-80537433D01*
X117773440Y-80537429D01*
X117772264Y-80531356D01*
X117769926Y-80525630D01*
X117769923Y-80525619D01*
X117719234Y-80401464D01*
X117712003Y-80330836D01*
X117744105Y-80267512D01*
X117805346Y-80231595D01*
X117870404Y-80232659D01*
X117888055Y-80237687D01*
X118107264Y-80273584D01*
X118203192Y-80289293D01*
X118203196Y-80289293D01*
X118206772Y-80289879D01*
X118210398Y-80290050D01*
X118525749Y-80304921D01*
X118525750Y-80304921D01*
X118529376Y-80305092D01*
X118552553Y-80303512D01*
X118847960Y-80283374D01*
X118847968Y-80283373D01*
X118851591Y-80283126D01*
X118855167Y-80282463D01*
X118855169Y-80282463D01*
X119165580Y-80224932D01*
X119165584Y-80224931D01*
X119169145Y-80224271D01*
X119417659Y-80147818D01*
X119474352Y-80130377D01*
X119477830Y-80129307D01*
X119710884Y-80027003D01*
X119770232Y-80000951D01*
X119770236Y-80000949D01*
X119773555Y-79999492D01*
X119836730Y-79962576D01*
X120049259Y-79838384D01*
X120049261Y-79838383D01*
X120052399Y-79836549D01*
X120055308Y-79834365D01*
X120307761Y-79644819D01*
X120307765Y-79644816D01*
X120310668Y-79642636D01*
X120544936Y-79420323D01*
X120752101Y-79172557D01*
X120793858Y-79108988D01*
X120927427Y-78905649D01*
X120927432Y-78905640D01*
X120929414Y-78902623D01*
X121037576Y-78687567D01*
X121072900Y-78617334D01*
X121072903Y-78617326D01*
X121074527Y-78614098D01*
X121103260Y-78535583D01*
X121184269Y-78314216D01*
X121184270Y-78314212D01*
X121185517Y-78310805D01*
X121186362Y-78307283D01*
X121186365Y-78307275D01*
X121260064Y-78000295D01*
X121260065Y-78000291D01*
X121260911Y-77996766D01*
X121266803Y-77948081D01*
X121296535Y-77702381D01*
X121299710Y-77676143D01*
X121305246Y-77500000D01*
X121301042Y-77427091D01*
X121286864Y-77181193D01*
X121286863Y-77181188D01*
X121286655Y-77177573D01*
X121270786Y-77086651D01*
X121231752Y-76862993D01*
X121231750Y-76862986D01*
X121231128Y-76859420D01*
X121206865Y-76777507D01*
X121177083Y-76676965D01*
X121139402Y-76549757D01*
X121110129Y-76481126D01*
X121034662Y-76304198D01*
X121012692Y-76252689D01*
X120852677Y-75972154D01*
X120827535Y-75937927D01*
X120663622Y-75714786D01*
X120663620Y-75714783D01*
X120661479Y-75711869D01*
X120628728Y-75676624D01*
X120444099Y-75477940D01*
X120441632Y-75475285D01*
X120427436Y-75463160D01*
X120198805Y-75267892D01*
X120196049Y-75265538D01*
X119927986Y-75085407D01*
X119924768Y-75083746D01*
X119837040Y-75038466D01*
X119785681Y-74989448D01*
X119768976Y-74920444D01*
X119792228Y-74853364D01*
X119848056Y-74809503D01*
X119894830Y-74800500D01*
X121477747Y-74800500D01*
X121545868Y-74820502D01*
X121592361Y-74874158D01*
X121602465Y-74944432D01*
X121599873Y-74957503D01*
X121551881Y-75146470D01*
X121551412Y-75151126D01*
X121551412Y-75151127D01*
X121550919Y-75156025D01*
X121525070Y-75412736D01*
X121525294Y-75417403D01*
X121525294Y-75417408D01*
X121530904Y-75534200D01*
X121537909Y-75680041D01*
X121590118Y-75942512D01*
X121591698Y-75946912D01*
X121591698Y-75946913D01*
X121601892Y-75975305D01*
X121680549Y-76194383D01*
X121682765Y-76198507D01*
X121750982Y-76325465D01*
X121807215Y-76430121D01*
X121810010Y-76433864D01*
X121810012Y-76433867D01*
X121907615Y-76564573D01*
X121967335Y-76644547D01*
X121970654Y-76647837D01*
X121972927Y-76650452D01*
X122002521Y-76714987D01*
X121992527Y-76785277D01*
X121974706Y-76813683D01*
X121860075Y-76951512D01*
X121857652Y-76955505D01*
X121806621Y-77039602D01*
X121721244Y-77180298D01*
X121719437Y-77184606D01*
X121719437Y-77184607D01*
X121625650Y-77408264D01*
X121617755Y-77427091D01*
X121616604Y-77431623D01*
X121616603Y-77431626D01*
X121553797Y-77678925D01*
X121551881Y-77686470D01*
X121551412Y-77691128D01*
X121550279Y-77702381D01*
X121549864Y-77703402D01*
X121549940Y-77705742D01*
X121546659Y-77738328D01*
X121525070Y-77952736D01*
X121537909Y-78220041D01*
X121590118Y-78482512D01*
X121680549Y-78734383D01*
X121709401Y-78788080D01*
X121782308Y-78923766D01*
X121807215Y-78970121D01*
X121810010Y-78973864D01*
X121810012Y-78973867D01*
X121960455Y-79175334D01*
X121967335Y-79184547D01*
X121970649Y-79187832D01*
X121970654Y-79187838D01*
X122092205Y-79308332D01*
X122126502Y-79370495D01*
X122129500Y-79397816D01*
X122129500Y-80295271D01*
X122129230Y-80303512D01*
X122124770Y-80371560D01*
X122135571Y-80462812D01*
X122135699Y-80463895D01*
X122136040Y-80467149D01*
X122144546Y-80559711D01*
X122146116Y-80565278D01*
X122146117Y-80565282D01*
X122146152Y-80565406D01*
X122150008Y-80584789D01*
X122150704Y-80590667D01*
X122152416Y-80596179D01*
X122178272Y-80679451D01*
X122179186Y-80682535D01*
X122204435Y-80772064D01*
X122206988Y-80777241D01*
X122206992Y-80777251D01*
X122207054Y-80777376D01*
X122214379Y-80795737D01*
X122216131Y-80801379D01*
X122218821Y-80806491D01*
X122259403Y-80883625D01*
X122260896Y-80886556D01*
X122302020Y-80969947D01*
X122305564Y-80974693D01*
X122316108Y-80991405D01*
X122318863Y-80996641D01*
X122322440Y-81001178D01*
X122376417Y-81069648D01*
X122378413Y-81072250D01*
X122434033Y-81146733D01*
X122485030Y-81193874D01*
X122497517Y-81205417D01*
X122501083Y-81208847D01*
X128017595Y-86725358D01*
X128051621Y-86787670D01*
X128054500Y-86814453D01*
X128054500Y-95281058D01*
X128033204Y-95351151D01*
X128003140Y-95396059D01*
X128003135Y-95396068D01*
X127999711Y-95401183D01*
X127920541Y-95591377D01*
X127879821Y-95793327D01*
X127879500Y-95799663D01*
X127879501Y-97300336D01*
X127879821Y-97306673D01*
X127920541Y-97508623D01*
X127999711Y-97698817D01*
X128003135Y-97703932D01*
X128003140Y-97703941D01*
X128033204Y-97748849D01*
X128054500Y-97818942D01*
X128054500Y-100855546D01*
X128034498Y-100923667D01*
X128017595Y-100944641D01*
X125774642Y-103187595D01*
X125712330Y-103221620D01*
X125685547Y-103224500D01*
X118415840Y-103224500D01*
X118347719Y-103204498D01*
X118326745Y-103187595D01*
X117842405Y-102703255D01*
X117808379Y-102640943D01*
X117805500Y-102614160D01*
X117805500Y-101052190D01*
X117800886Y-100966100D01*
X117798007Y-100939317D01*
X117792503Y-100910890D01*
X117773441Y-100812433D01*
X117773440Y-100812429D01*
X117772264Y-100806356D01*
X117769928Y-100800633D01*
X117769926Y-100800628D01*
X117705416Y-100642621D01*
X117704086Y-100639363D01*
X117699181Y-100630379D01*
X117670509Y-100577874D01*
X117670060Y-100577051D01*
X117669581Y-100576234D01*
X117647406Y-100538421D01*
X117647401Y-100538414D01*
X117645131Y-100534543D01*
X117642331Y-100531032D01*
X117642327Y-100531026D01*
X117534880Y-100396291D01*
X117534878Y-100396289D01*
X117532670Y-100393520D01*
X117356979Y-100217829D01*
X117292850Y-100160224D01*
X117291544Y-100159171D01*
X117291534Y-100159163D01*
X117273953Y-100144995D01*
X117271876Y-100143321D01*
X117269683Y-100141839D01*
X117269673Y-100141832D01*
X117212030Y-100102889D01*
X117159655Y-100067504D01*
X116993364Y-99997629D01*
X116925243Y-99977627D01*
X116877549Y-99965194D01*
X116744400Y-99950192D01*
X116744465Y-99949618D01*
X116742608Y-99949778D01*
X116742589Y-99949774D01*
X116738698Y-99949550D01*
X116723910Y-99947884D01*
X116701819Y-99945394D01*
X116701810Y-99945394D01*
X116698309Y-99944999D01*
X116546508Y-99944999D01*
X114695804Y-99945000D01*
X114627683Y-99924998D01*
X114617193Y-99917470D01*
X114593431Y-99898500D01*
X114593405Y-99898480D01*
X114592824Y-99898016D01*
X114559943Y-99873118D01*
X114549455Y-99865591D01*
X114473024Y-99817005D01*
X114306733Y-99747130D01*
X114238612Y-99727128D01*
X114237693Y-99726889D01*
X114237677Y-99726884D01*
X114195267Y-99715829D01*
X114195262Y-99715828D01*
X114190919Y-99714696D01*
X114186455Y-99714193D01*
X114015188Y-99694895D01*
X114015179Y-99694895D01*
X114011678Y-99694500D01*
X111052190Y-99694500D01*
X110998662Y-99697369D01*
X110967794Y-99699023D01*
X110967786Y-99699024D01*
X110966100Y-99699114D01*
X110939317Y-99701993D01*
X110936705Y-99702499D01*
X110936703Y-99702499D01*
X110812433Y-99726559D01*
X110812429Y-99726560D01*
X110806356Y-99727736D01*
X110800633Y-99730072D01*
X110800628Y-99730074D01*
X110673949Y-99781794D01*
X110639363Y-99795914D01*
X110636277Y-99797599D01*
X110636271Y-99797602D01*
X110606829Y-99813680D01*
X110577051Y-99829940D01*
X110576240Y-99830415D01*
X110576234Y-99830419D01*
X110538421Y-99852594D01*
X110538414Y-99852599D01*
X110534543Y-99854869D01*
X110531032Y-99857669D01*
X110531026Y-99857673D01*
X110396830Y-99964690D01*
X110393520Y-99967330D01*
X109967330Y-100393520D01*
X109909725Y-100457649D01*
X109892822Y-100478623D01*
X109891340Y-100480816D01*
X109891333Y-100480826D01*
X109870422Y-100511778D01*
X109817005Y-100590844D01*
X109814609Y-100596546D01*
X109779581Y-100679906D01*
X109747130Y-100757135D01*
X109727128Y-100825256D01*
X109714696Y-100872949D01*
X109714193Y-100877413D01*
X109697180Y-101028409D01*
X109694500Y-101052190D01*
X109694500Y-103447810D01*
X109699114Y-103533900D01*
X109701993Y-103560683D01*
X109727736Y-103693644D01*
X109730072Y-103699367D01*
X109730074Y-103699372D01*
X109766304Y-103788111D01*
X109795914Y-103860637D01*
X109829940Y-103922949D01*
X109830415Y-103923760D01*
X109830419Y-103923766D01*
X109852594Y-103961579D01*
X109852599Y-103961586D01*
X109854869Y-103965457D01*
X109857669Y-103968968D01*
X109857673Y-103968974D01*
X109965120Y-104103709D01*
X109967330Y-104106480D01*
X110393520Y-104532670D01*
X110457649Y-104590275D01*
X110458955Y-104591328D01*
X110458965Y-104591336D01*
X110470153Y-104600352D01*
X110478623Y-104607178D01*
X110480816Y-104608660D01*
X110480826Y-104608667D01*
X110526848Y-104639759D01*
X110590844Y-104682995D01*
X110757135Y-104752870D01*
X110825256Y-104772872D01*
X110826175Y-104773111D01*
X110826191Y-104773116D01*
X110868601Y-104784171D01*
X110868606Y-104784172D01*
X110872949Y-104785304D01*
X110877413Y-104785807D01*
X111048680Y-104805105D01*
X111048689Y-104805105D01*
X111052190Y-104805500D01*
X112114160Y-104805500D01*
X112182281Y-104825502D01*
X112203255Y-104842405D01*
X112543159Y-105182309D01*
X112577185Y-105244621D01*
X112572120Y-105315436D01*
X112543159Y-105360499D01*
X110957575Y-106946083D01*
X110949365Y-106953015D01*
X110949569Y-106953251D01*
X110945033Y-106957166D01*
X110940140Y-106960637D01*
X110935994Y-106964968D01*
X110876487Y-107027130D01*
X110874564Y-107029094D01*
X110847228Y-107056430D01*
X110845321Y-107058739D01*
X110845312Y-107058749D01*
X110842566Y-107062074D01*
X110836436Y-107068967D01*
X110794925Y-107112331D01*
X110791675Y-107117365D01*
X110791673Y-107117367D01*
X110776913Y-107140227D01*
X110768215Y-107152111D01*
X110747075Y-107177710D01*
X110744202Y-107182969D01*
X110718293Y-107230390D01*
X110713582Y-107238310D01*
X110681015Y-107288746D01*
X110678771Y-107294314D01*
X110678770Y-107294316D01*
X110668605Y-107319539D01*
X110662312Y-107332852D01*
X110646390Y-107361994D01*
X110644563Y-107367702D01*
X110644562Y-107367704D01*
X110628090Y-107419164D01*
X110624954Y-107427851D01*
X110602519Y-107483519D01*
X110601369Y-107489408D01*
X110596157Y-107516099D01*
X110592495Y-107530363D01*
X110582370Y-107561994D01*
X110581655Y-107567946D01*
X110575210Y-107621596D01*
X110573773Y-107630716D01*
X110570371Y-107648138D01*
X110562270Y-107689622D01*
X110562000Y-107695143D01*
X110562000Y-107724021D01*
X110561101Y-107739049D01*
X110558143Y-107763675D01*
X110557324Y-107770491D01*
X110557747Y-107776467D01*
X110557747Y-107776471D01*
X110560781Y-107819321D01*
X110545640Y-107888684D01*
X110535269Y-107904036D01*
X110534316Y-107904989D01*
X110530894Y-107910101D01*
X110530893Y-107910102D01*
X110495879Y-107962405D01*
X110419711Y-108076183D01*
X110340541Y-108266377D01*
X110331586Y-108310791D01*
X110323514Y-108350822D01*
X110290442Y-108413645D01*
X110228656Y-108448615D01*
X110157771Y-108444630D01*
X110100294Y-108402954D01*
X110076486Y-108350822D01*
X110068414Y-108310791D01*
X110059459Y-108266377D01*
X109980289Y-108076183D01*
X109865684Y-107904989D01*
X109720011Y-107759316D01*
X109548817Y-107644711D01*
X109358623Y-107565541D01*
X109194224Y-107532393D01*
X109161261Y-107525746D01*
X109161260Y-107525746D01*
X109156673Y-107524821D01*
X109152007Y-107524585D01*
X109152002Y-107524584D01*
X109151925Y-107524580D01*
X109151907Y-107524580D01*
X109150337Y-107524500D01*
X109148740Y-107524500D01*
X108735553Y-107524501D01*
X108324664Y-107524501D01*
X108323108Y-107524580D01*
X108323091Y-107524580D01*
X108322997Y-107524585D01*
X108322995Y-107524585D01*
X108318327Y-107524821D01*
X108313740Y-107525746D01*
X108313739Y-107525746D01*
X108280776Y-107532393D01*
X108116377Y-107565541D01*
X107926183Y-107644711D01*
X107754989Y-107759316D01*
X107609316Y-107904989D01*
X107494711Y-108076183D01*
X107415541Y-108266377D01*
X107374821Y-108468327D01*
X107374500Y-108474663D01*
X107374501Y-109925336D01*
X107374821Y-109931673D01*
X107375746Y-109936260D01*
X107375746Y-109936261D01*
X107379802Y-109956375D01*
X107415541Y-110133623D01*
X107494711Y-110323817D01*
X107609316Y-110495011D01*
X107754989Y-110640684D01*
X107760107Y-110644110D01*
X107764875Y-110648027D01*
X107763254Y-110650001D01*
X107801582Y-110695960D01*
X107812000Y-110746128D01*
X107812000Y-111086929D01*
X107791998Y-111155050D01*
X107756094Y-111191632D01*
X107654989Y-111259316D01*
X107509316Y-111404989D01*
X107394711Y-111576183D01*
X107315541Y-111766377D01*
X107274821Y-111968327D01*
X107274500Y-111974663D01*
X107274501Y-113425336D01*
X107274821Y-113431673D01*
X107315541Y-113633623D01*
X107394711Y-113823817D01*
X107509316Y-113995011D01*
X107654989Y-114140684D01*
X107826183Y-114255289D01*
X108016377Y-114334459D01*
X108218327Y-114375179D01*
X108222993Y-114375415D01*
X108222998Y-114375416D01*
X108223075Y-114375420D01*
X108223093Y-114375420D01*
X108224663Y-114375500D01*
X108226260Y-114375500D01*
X108702242Y-114375499D01*
X109175336Y-114375499D01*
X109176892Y-114375420D01*
X109176909Y-114375420D01*
X109177003Y-114375415D01*
X109177005Y-114375415D01*
X109181673Y-114375179D01*
X109383623Y-114334459D01*
X109573817Y-114255289D01*
X109745011Y-114140684D01*
X109890684Y-113995011D01*
X110005289Y-113823817D01*
X110084459Y-113633623D01*
X110125179Y-113431673D01*
X110125500Y-113425337D01*
X110125499Y-111974664D01*
X110125179Y-111968327D01*
X110084459Y-111766377D01*
X110005289Y-111576183D01*
X109890684Y-111404989D01*
X109745011Y-111259316D01*
X109735438Y-111252907D01*
X109718906Y-111241840D01*
X109673426Y-111187323D01*
X109663000Y-111137136D01*
X109663000Y-110746128D01*
X109683002Y-110678007D01*
X109711171Y-110649301D01*
X109710125Y-110648027D01*
X109714893Y-110644110D01*
X109720011Y-110640684D01*
X109865684Y-110495011D01*
X109980289Y-110323817D01*
X110059459Y-110133623D01*
X110076486Y-110049178D01*
X110109558Y-109986355D01*
X110171344Y-109951385D01*
X110242229Y-109955370D01*
X110299706Y-109997046D01*
X110323514Y-110049178D01*
X110340541Y-110133623D01*
X110419711Y-110323817D01*
X110534316Y-110495011D01*
X110679989Y-110640684D01*
X110851183Y-110755289D01*
X111041377Y-110834459D01*
X111243327Y-110875179D01*
X111247993Y-110875415D01*
X111247998Y-110875416D01*
X111248075Y-110875420D01*
X111248093Y-110875420D01*
X111249663Y-110875500D01*
X111251260Y-110875500D01*
X111664447Y-110875499D01*
X112075336Y-110875499D01*
X112076892Y-110875420D01*
X112076909Y-110875420D01*
X112077003Y-110875415D01*
X112077005Y-110875415D01*
X112081673Y-110875179D01*
X112283623Y-110834459D01*
X112473817Y-110755289D01*
X112645011Y-110640684D01*
X112790684Y-110495011D01*
X112905289Y-110323817D01*
X112984459Y-110133623D01*
X113020198Y-109956375D01*
X113024254Y-109936261D01*
X113024254Y-109936260D01*
X113025179Y-109931673D01*
X113025500Y-109925337D01*
X113025499Y-108474664D01*
X113025179Y-108468327D01*
X112984459Y-108266377D01*
X112982093Y-108260693D01*
X112982092Y-108260689D01*
X112947953Y-108178674D01*
X112940241Y-108108098D01*
X112975183Y-108041159D01*
X114673937Y-106342405D01*
X114736249Y-106308379D01*
X114763032Y-106305500D01*
X117447810Y-106305500D01*
X117501338Y-106302631D01*
X117532206Y-106300977D01*
X117532214Y-106300976D01*
X117533900Y-106300886D01*
X117560683Y-106298007D01*
X117563295Y-106297501D01*
X117563297Y-106297501D01*
X117687567Y-106273441D01*
X117687571Y-106273440D01*
X117693644Y-106272264D01*
X117699367Y-106269928D01*
X117699372Y-106269926D01*
X117857379Y-106205416D01*
X117860637Y-106204086D01*
X117863723Y-106202401D01*
X117863729Y-106202398D01*
X117893901Y-106185922D01*
X117922949Y-106170060D01*
X117930607Y-106165569D01*
X117961579Y-106147406D01*
X117961586Y-106147401D01*
X117965457Y-106145131D01*
X117968968Y-106142331D01*
X117968974Y-106142327D01*
X118103709Y-106034880D01*
X118103711Y-106034878D01*
X118106480Y-106032670D01*
X118476745Y-105662405D01*
X118539057Y-105628379D01*
X118565840Y-105625500D01*
X126190271Y-105625500D01*
X126198513Y-105625770D01*
X126266560Y-105630230D01*
X126358927Y-105619298D01*
X126362149Y-105618960D01*
X126454711Y-105610454D01*
X126460278Y-105608884D01*
X126460282Y-105608883D01*
X126460406Y-105608848D01*
X126479789Y-105604992D01*
X126479929Y-105604975D01*
X126485667Y-105604296D01*
X126574459Y-105576726D01*
X126577535Y-105575814D01*
X126667064Y-105550565D01*
X126672241Y-105548012D01*
X126672251Y-105548008D01*
X126672376Y-105547946D01*
X126690737Y-105540621D01*
X126690860Y-105540583D01*
X126690864Y-105540581D01*
X126696379Y-105538869D01*
X126778634Y-105495593D01*
X126781565Y-105494099D01*
X126802772Y-105483641D01*
X126872715Y-105471451D01*
X126938144Y-105499011D01*
X126978287Y-105557569D01*
X126984500Y-105596647D01*
X126984500Y-109524455D01*
X126964498Y-109592576D01*
X126947595Y-109613550D01*
X126358904Y-110202241D01*
X126296592Y-110236267D01*
X126249558Y-110237508D01*
X126066932Y-110207766D01*
X126031976Y-110202073D01*
X126031975Y-110202073D01*
X126027364Y-110201322D01*
X125893569Y-110199570D01*
X125764451Y-110197880D01*
X125764448Y-110197880D01*
X125759774Y-110197819D01*
X125494605Y-110233907D01*
X125490118Y-110235215D01*
X125490117Y-110235215D01*
X125437762Y-110250475D01*
X125237683Y-110308792D01*
X125233430Y-110310752D01*
X125233429Y-110310753D01*
X125193987Y-110328936D01*
X124994652Y-110420831D01*
X124962030Y-110442219D01*
X124774764Y-110564996D01*
X124774759Y-110565000D01*
X124770851Y-110567562D01*
X124734473Y-110600031D01*
X124609169Y-110711869D01*
X124571197Y-110745760D01*
X124400075Y-110951512D01*
X124397652Y-110955505D01*
X124264836Y-111174379D01*
X124261244Y-111180298D01*
X124259437Y-111184606D01*
X124259437Y-111184607D01*
X124167964Y-111402746D01*
X124157755Y-111427091D01*
X124156604Y-111431623D01*
X124156603Y-111431626D01*
X124121190Y-111571064D01*
X124091881Y-111686470D01*
X124065070Y-111952736D01*
X124065294Y-111957403D01*
X124065294Y-111957408D01*
X124066123Y-111974663D01*
X124077909Y-112220041D01*
X124130118Y-112482512D01*
X124220549Y-112734383D01*
X124222765Y-112738507D01*
X124290982Y-112865465D01*
X124347215Y-112970121D01*
X124350010Y-112973864D01*
X124350012Y-112973867D01*
X124389559Y-113026826D01*
X124507335Y-113184547D01*
X124510654Y-113187837D01*
X124512927Y-113190452D01*
X124542521Y-113254987D01*
X124532527Y-113325277D01*
X124514706Y-113353683D01*
X124449843Y-113431673D01*
X124400075Y-113491512D01*
X124397652Y-113495505D01*
X124280092Y-113689238D01*
X124261244Y-113720298D01*
X124259437Y-113724606D01*
X124259437Y-113724607D01*
X124164931Y-113949979D01*
X124157755Y-113967091D01*
X124156604Y-113971623D01*
X124156603Y-113971626D01*
X124105573Y-114172557D01*
X124091881Y-114226470D01*
X124065070Y-114492736D01*
X124077909Y-114760041D01*
X124130118Y-115022512D01*
X124133138Y-115030924D01*
X124137332Y-115101793D01*
X124102545Y-115163683D01*
X124039819Y-115196940D01*
X124014550Y-115199500D01*
X119896644Y-115199500D01*
X119828523Y-115179498D01*
X119782030Y-115125842D01*
X119771926Y-115055568D01*
X119801420Y-114990988D01*
X119833074Y-114964712D01*
X120049259Y-114838384D01*
X120049261Y-114838383D01*
X120052399Y-114836549D01*
X120055308Y-114834365D01*
X120307761Y-114644819D01*
X120307765Y-114644816D01*
X120310668Y-114642636D01*
X120544936Y-114420323D01*
X120752101Y-114172557D01*
X120854502Y-114016666D01*
X120927427Y-113905649D01*
X120927432Y-113905640D01*
X120929414Y-113902623D01*
X121001971Y-113758360D01*
X121072900Y-113617334D01*
X121072903Y-113617326D01*
X121074527Y-113614098D01*
X121120703Y-113487918D01*
X121184269Y-113314216D01*
X121184270Y-113314212D01*
X121185517Y-113310805D01*
X121186362Y-113307283D01*
X121186365Y-113307275D01*
X121260064Y-113000295D01*
X121260065Y-113000291D01*
X121260911Y-112996766D01*
X121263682Y-112973867D01*
X121299374Y-112678922D01*
X121299374Y-112678916D01*
X121299710Y-112676143D01*
X121305246Y-112500000D01*
X121305085Y-112497204D01*
X121286864Y-112181193D01*
X121286863Y-112181188D01*
X121286655Y-112177573D01*
X121268621Y-112074245D01*
X121231752Y-111862993D01*
X121231750Y-111862986D01*
X121231128Y-111859420D01*
X121206865Y-111777507D01*
X121148914Y-111581870D01*
X121139402Y-111549757D01*
X121106283Y-111472109D01*
X121014114Y-111256023D01*
X121012692Y-111252689D01*
X120852677Y-110972154D01*
X120834874Y-110947918D01*
X120663622Y-110714786D01*
X120663620Y-110714783D01*
X120661479Y-110711869D01*
X120646696Y-110695960D01*
X120456260Y-110491027D01*
X120441632Y-110475285D01*
X120416525Y-110453841D01*
X120259118Y-110319404D01*
X120196049Y-110265538D01*
X120177208Y-110252877D01*
X120121793Y-110215640D01*
X119927986Y-110085407D01*
X119867470Y-110054172D01*
X119677992Y-109956375D01*
X119640996Y-109937280D01*
X119338883Y-109823121D01*
X119335362Y-109822237D01*
X119335357Y-109822235D01*
X119185433Y-109784577D01*
X119025651Y-109744443D01*
X119005805Y-109741830D01*
X118709055Y-109702762D01*
X118709047Y-109702761D01*
X118705451Y-109702288D01*
X118571081Y-109700177D01*
X118386170Y-109697272D01*
X118386166Y-109697272D01*
X118382528Y-109697215D01*
X118378913Y-109697576D01*
X118378908Y-109697576D01*
X118151132Y-109720311D01*
X118061163Y-109729291D01*
X117745614Y-109798092D01*
X117742187Y-109799265D01*
X117742181Y-109799267D01*
X117443495Y-109901530D01*
X117443490Y-109901532D01*
X117440064Y-109902705D01*
X117436796Y-109904264D01*
X117436788Y-109904267D01*
X117338004Y-109951385D01*
X117148562Y-110041744D01*
X116874974Y-110213366D01*
X116872140Y-110215636D01*
X116872135Y-110215640D01*
X116731901Y-110327989D01*
X116622924Y-110415296D01*
X116620371Y-110417876D01*
X116399885Y-110640684D01*
X116395754Y-110644858D01*
X116196474Y-110899008D01*
X116194581Y-110902097D01*
X116194579Y-110902100D01*
X116161853Y-110955505D01*
X116027727Y-111174379D01*
X115891748Y-111467320D01*
X115890608Y-111470767D01*
X115791480Y-111770503D01*
X115790340Y-111773949D01*
X115789604Y-111777504D01*
X115789603Y-111777507D01*
X115742873Y-112003160D01*
X115724848Y-112090201D01*
X115696138Y-112411885D01*
X115697623Y-112468601D01*
X115704592Y-112734737D01*
X115705103Y-112738327D01*
X115705103Y-112738328D01*
X115711036Y-112780018D01*
X115750098Y-113054477D01*
X115832053Y-113366869D01*
X115949369Y-113667770D01*
X115951073Y-113670988D01*
X116075320Y-113905649D01*
X116100493Y-113953193D01*
X116102545Y-113956178D01*
X116102550Y-113956187D01*
X116281364Y-114216363D01*
X116281370Y-114216370D01*
X116283421Y-114219355D01*
X116330326Y-114273123D01*
X116489983Y-114456142D01*
X116495728Y-114462728D01*
X116734601Y-114680086D01*
X116996874Y-114868548D01*
X117053327Y-114899969D01*
X117167299Y-114963405D01*
X117217093Y-115014011D01*
X117231623Y-115083505D01*
X117206275Y-115149823D01*
X117149097Y-115191908D01*
X117106021Y-115199500D01*
X108058647Y-115199500D01*
X108042856Y-115198507D01*
X108038985Y-115198018D01*
X108011247Y-115194514D01*
X108004239Y-115195201D01*
X108004237Y-115195201D01*
X107985441Y-115197044D01*
X107965539Y-115197415D01*
X107742487Y-115183923D01*
X107727383Y-115182089D01*
X107626942Y-115163683D01*
X107481119Y-115136960D01*
X107466358Y-115133322D01*
X107227324Y-115058836D01*
X107213100Y-115053441D01*
X106984787Y-114950687D01*
X106971317Y-114943617D01*
X106757065Y-114814096D01*
X106744544Y-114805454D01*
X106547456Y-114651045D01*
X106536068Y-114640955D01*
X106359045Y-114463932D01*
X106348955Y-114452544D01*
X106194546Y-114255456D01*
X106185903Y-114242934D01*
X106175950Y-114226470D01*
X106056383Y-114028683D01*
X106049313Y-114015213D01*
X105946559Y-113786900D01*
X105941164Y-113772675D01*
X105926185Y-113724607D01*
X105866678Y-113533642D01*
X105863038Y-113518874D01*
X105857366Y-113487918D01*
X105817911Y-113272617D01*
X105816077Y-113257513D01*
X105806534Y-113099750D01*
X105803644Y-113051975D01*
X105804502Y-113030366D01*
X105804397Y-113030358D01*
X105804613Y-113027546D01*
X105804642Y-113026826D01*
X105804701Y-113026404D01*
X105805251Y-113022493D01*
X105805479Y-113006180D01*
X105805545Y-113005624D01*
X105805493Y-113005133D01*
X105805565Y-113000000D01*
X105801285Y-112961843D01*
X105800500Y-112947798D01*
X105800500Y-77065111D01*
X105801726Y-77047575D01*
X105804700Y-77026416D01*
X105804700Y-77026411D01*
X105805251Y-77022493D01*
X105805565Y-77000000D01*
X105803486Y-76981467D01*
X105802930Y-76959816D01*
X105803433Y-76951512D01*
X105813796Y-76780189D01*
X105816077Y-76742487D01*
X105817911Y-76727383D01*
X105833091Y-76644547D01*
X105863040Y-76481119D01*
X105866679Y-76466352D01*
X105877970Y-76430121D01*
X105941164Y-76227324D01*
X105946559Y-76213100D01*
X106049313Y-75984787D01*
X106056385Y-75971313D01*
X106057642Y-75969235D01*
X106185904Y-75757065D01*
X106194546Y-75744544D01*
X106348955Y-75547456D01*
X106359045Y-75536068D01*
X106536068Y-75359045D01*
X106547456Y-75348955D01*
X106653930Y-75265538D01*
X106744546Y-75194545D01*
X106757066Y-75185903D01*
X106822296Y-75146470D01*
X106971317Y-75056383D01*
X106984787Y-75049313D01*
X107213100Y-74946559D01*
X107227325Y-74941164D01*
X107293817Y-74920444D01*
X107466358Y-74866678D01*
X107481119Y-74863040D01*
X107701855Y-74822589D01*
X107727383Y-74817911D01*
X107742487Y-74816077D01*
X107953969Y-74803284D01*
X107977370Y-74804048D01*
X107978910Y-74804242D01*
X107988753Y-74805486D01*
X108033474Y-74801101D01*
X108045770Y-74800500D01*
X109893739Y-74800500D01*
X109961860Y-74820502D01*
G37*
G04 #@! TD.AperFunction*
G04 #@! TA.AperFunction,Conductor*
G36*
X180165622Y-74820502D02*
G01*
X180212115Y-74874158D01*
X180222219Y-74944432D01*
X180192725Y-75009012D01*
X180154750Y-75037936D01*
X180155022Y-75038431D01*
X180151839Y-75040181D01*
X180148562Y-75041744D01*
X179874974Y-75213366D01*
X179872140Y-75215636D01*
X179872135Y-75215640D01*
X179806914Y-75267892D01*
X179622924Y-75415296D01*
X179395754Y-75644858D01*
X179196474Y-75899008D01*
X179194581Y-75902097D01*
X179194579Y-75902100D01*
X179151650Y-75972154D01*
X179027727Y-76174379D01*
X178891748Y-76467320D01*
X178890608Y-76470767D01*
X178793262Y-76765115D01*
X178790340Y-76773949D01*
X178789604Y-76777504D01*
X178789603Y-76777507D01*
X178738057Y-77026416D01*
X178724848Y-77090201D01*
X178696138Y-77411885D01*
X178696233Y-77415515D01*
X178696233Y-77415517D01*
X178697623Y-77468601D01*
X178703131Y-77678925D01*
X178704592Y-77734737D01*
X178750098Y-78054477D01*
X178832053Y-78366869D01*
X178949369Y-78667770D01*
X178982307Y-78729979D01*
X179084480Y-78922949D01*
X179100493Y-78953193D01*
X179102545Y-78956178D01*
X179102550Y-78956187D01*
X179281364Y-79216363D01*
X179281370Y-79216370D01*
X179283421Y-79219355D01*
X179386291Y-79337277D01*
X179491344Y-79457702D01*
X179495728Y-79462728D01*
X179734601Y-79680086D01*
X179996874Y-79868548D01*
X180279070Y-80025616D01*
X180577448Y-80149208D01*
X180580942Y-80150203D01*
X180580944Y-80150204D01*
X180884554Y-80236690D01*
X180884559Y-80236691D01*
X180888055Y-80237687D01*
X181107264Y-80273584D01*
X181203192Y-80289293D01*
X181203196Y-80289293D01*
X181206772Y-80289879D01*
X181210398Y-80290050D01*
X181525749Y-80304921D01*
X181525750Y-80304921D01*
X181529376Y-80305092D01*
X181552553Y-80303512D01*
X181847960Y-80283374D01*
X181847968Y-80283373D01*
X181851591Y-80283126D01*
X181855167Y-80282463D01*
X181855169Y-80282463D01*
X182165580Y-80224932D01*
X182165584Y-80224931D01*
X182169145Y-80224271D01*
X182417659Y-80147818D01*
X182474352Y-80130377D01*
X182477830Y-80129307D01*
X182710884Y-80027003D01*
X182770232Y-80000951D01*
X182770236Y-80000949D01*
X182773555Y-79999492D01*
X182836730Y-79962576D01*
X183049259Y-79838384D01*
X183049261Y-79838383D01*
X183052399Y-79836549D01*
X183055308Y-79834365D01*
X183307761Y-79644819D01*
X183307765Y-79644816D01*
X183310668Y-79642636D01*
X183544936Y-79420323D01*
X183752101Y-79172557D01*
X183793858Y-79108988D01*
X183927427Y-78905649D01*
X183927432Y-78905640D01*
X183929414Y-78902623D01*
X183960936Y-78839949D01*
X184009412Y-78788080D01*
X184078237Y-78770653D01*
X184145557Y-78793202D01*
X184190000Y-78848567D01*
X184199500Y-78896564D01*
X184199500Y-111104988D01*
X184179498Y-111173109D01*
X184125842Y-111219602D01*
X184055568Y-111229706D01*
X183990988Y-111200212D01*
X183964053Y-111167416D01*
X183854474Y-110975305D01*
X183852677Y-110972154D01*
X183834874Y-110947918D01*
X183663622Y-110714786D01*
X183663620Y-110714783D01*
X183661479Y-110711869D01*
X183646696Y-110695960D01*
X183456260Y-110491027D01*
X183441632Y-110475285D01*
X183416525Y-110453841D01*
X183259118Y-110319404D01*
X183196049Y-110265538D01*
X183177208Y-110252877D01*
X183121793Y-110215640D01*
X182927986Y-110085407D01*
X182867470Y-110054172D01*
X182677992Y-109956375D01*
X182640996Y-109937280D01*
X182338883Y-109823121D01*
X182335362Y-109822237D01*
X182335357Y-109822235D01*
X182185433Y-109784577D01*
X182025651Y-109744443D01*
X182005805Y-109741830D01*
X181709055Y-109702762D01*
X181709047Y-109702761D01*
X181705451Y-109702288D01*
X181571081Y-109700177D01*
X181386170Y-109697272D01*
X181386166Y-109697272D01*
X181382528Y-109697215D01*
X181378913Y-109697576D01*
X181378908Y-109697576D01*
X181151132Y-109720311D01*
X181061163Y-109729291D01*
X180745614Y-109798092D01*
X180742187Y-109799265D01*
X180742181Y-109799267D01*
X180443495Y-109901530D01*
X180443490Y-109901532D01*
X180440064Y-109902705D01*
X180436796Y-109904264D01*
X180436788Y-109904267D01*
X180389124Y-109927002D01*
X180351276Y-109945055D01*
X180351177Y-109945102D01*
X180281082Y-109956375D01*
X180216018Y-109927962D01*
X180175665Y-109865581D01*
X180125565Y-109687936D01*
X180027980Y-109490053D01*
X179895967Y-109313267D01*
X179733949Y-109163499D01*
X179547350Y-109045764D01*
X179342421Y-108964006D01*
X179271040Y-108949807D01*
X179208131Y-108916901D01*
X179182616Y-108881956D01*
X179153168Y-108822240D01*
X179140978Y-108752298D01*
X179168538Y-108686869D01*
X179227096Y-108646726D01*
X179241269Y-108642999D01*
X179283623Y-108634459D01*
X179473817Y-108555289D01*
X179645011Y-108440684D01*
X179790684Y-108295011D01*
X179905289Y-108123817D01*
X179984459Y-107933623D01*
X180025179Y-107731673D01*
X180025500Y-107725337D01*
X180025499Y-106274664D01*
X180025179Y-106268327D01*
X179984459Y-106066377D01*
X179905289Y-105876183D01*
X179901865Y-105871069D01*
X179901859Y-105871057D01*
X179867741Y-105820094D01*
X179846466Y-105752360D01*
X179867741Y-105679906D01*
X179901859Y-105628943D01*
X179901865Y-105628931D01*
X179905289Y-105623817D01*
X179984459Y-105433623D01*
X180025179Y-105231673D01*
X180025500Y-105225337D01*
X180025499Y-103774664D01*
X180025179Y-103768327D01*
X179984459Y-103566377D01*
X179905289Y-103376183D01*
X179901865Y-103371069D01*
X179901859Y-103371057D01*
X179867741Y-103320094D01*
X179846466Y-103252360D01*
X179867741Y-103179906D01*
X179901859Y-103128943D01*
X179901865Y-103128931D01*
X179905289Y-103123817D01*
X179984459Y-102933623D01*
X180025179Y-102731673D01*
X180025500Y-102725337D01*
X180025499Y-101274664D01*
X180025179Y-101268327D01*
X179984459Y-101066377D01*
X179905289Y-100876183D01*
X179901865Y-100871069D01*
X179901859Y-100871057D01*
X179867741Y-100820094D01*
X179846466Y-100752360D01*
X179867741Y-100679906D01*
X179901859Y-100628943D01*
X179901865Y-100628931D01*
X179905289Y-100623817D01*
X179984459Y-100433623D01*
X180025179Y-100231673D01*
X180025500Y-100225337D01*
X180025499Y-98774664D01*
X180025179Y-98768327D01*
X180021780Y-98751467D01*
X180013342Y-98709623D01*
X179984459Y-98566377D01*
X179905289Y-98376183D01*
X179901865Y-98371069D01*
X179901859Y-98371057D01*
X179867741Y-98320094D01*
X179846466Y-98252360D01*
X179867741Y-98179906D01*
X179901859Y-98128943D01*
X179901865Y-98128931D01*
X179905289Y-98123817D01*
X179984459Y-97933623D01*
X180021716Y-97748849D01*
X180024254Y-97736261D01*
X180024254Y-97736260D01*
X180025179Y-97731673D01*
X180025500Y-97725337D01*
X180025499Y-96274664D01*
X180025179Y-96268327D01*
X179984459Y-96066377D01*
X179905289Y-95876183D01*
X179790684Y-95704989D01*
X179645011Y-95559316D01*
X179473817Y-95444711D01*
X179283623Y-95365541D01*
X179081673Y-95324821D01*
X179077007Y-95324585D01*
X179077002Y-95324584D01*
X179076925Y-95324580D01*
X179076907Y-95324580D01*
X179075337Y-95324500D01*
X179073740Y-95324500D01*
X178597758Y-95324501D01*
X178124664Y-95324501D01*
X178123108Y-95324580D01*
X178123091Y-95324580D01*
X178122997Y-95324585D01*
X178122995Y-95324585D01*
X178118327Y-95324821D01*
X177916377Y-95365541D01*
X177726183Y-95444711D01*
X177652818Y-95493825D01*
X177577793Y-95544050D01*
X177510058Y-95565324D01*
X177441575Y-95546601D01*
X177394086Y-95493825D01*
X177382668Y-95423753D01*
X177410946Y-95358631D01*
X177418593Y-95350262D01*
X178215909Y-94552946D01*
X178230938Y-94540109D01*
X178237354Y-94535447D01*
X178242692Y-94531569D01*
X178289369Y-94479729D01*
X178293910Y-94474945D01*
X178308725Y-94460130D01*
X178317317Y-94449520D01*
X178321920Y-94443836D01*
X178326204Y-94438821D01*
X178368447Y-94391905D01*
X178368450Y-94391901D01*
X178372870Y-94386992D01*
X178380133Y-94374412D01*
X178391326Y-94358127D01*
X178396308Y-94351974D01*
X178396310Y-94351972D01*
X178400465Y-94346840D01*
X178415879Y-94316588D01*
X178432118Y-94284717D01*
X178435266Y-94278919D01*
X178466843Y-94224226D01*
X178466844Y-94224224D01*
X178470144Y-94218508D01*
X178474630Y-94204700D01*
X178482195Y-94186437D01*
X178485790Y-94179381D01*
X178485790Y-94179380D01*
X178488788Y-94173497D01*
X178506856Y-94106068D01*
X178508705Y-94099830D01*
X178530262Y-94033482D01*
X178531780Y-94019038D01*
X178535379Y-93999620D01*
X178539142Y-93985577D01*
X178539883Y-93971432D01*
X178563421Y-93904452D01*
X178572295Y-93893468D01*
X178635412Y-93823738D01*
X178636018Y-93823069D01*
X178667409Y-93786221D01*
X178694020Y-93744092D01*
X178726848Y-93692119D01*
X178763742Y-93633709D01*
X178784167Y-93591553D01*
X178825778Y-93505666D01*
X178825786Y-93505648D01*
X178826189Y-93504817D01*
X178845972Y-93460651D01*
X178848118Y-93453159D01*
X178894659Y-93290623D01*
X178894660Y-93290618D01*
X178895630Y-93287231D01*
X178915942Y-93166497D01*
X178918989Y-93148389D01*
X178918989Y-93148386D01*
X178919392Y-93145993D01*
X178923357Y-93101795D01*
X178930278Y-93024628D01*
X178930278Y-93024627D01*
X178930496Y-93022197D01*
X178930647Y-93009855D01*
X178925831Y-92935876D01*
X178925565Y-92927691D01*
X178925565Y-92582809D01*
X178926069Y-92571552D01*
X178927815Y-92552089D01*
X178930496Y-92522197D01*
X178930647Y-92509855D01*
X178926960Y-92453217D01*
X178922729Y-92388221D01*
X178922728Y-92388211D01*
X178922571Y-92385800D01*
X178902267Y-92244023D01*
X178902104Y-92243085D01*
X178894738Y-92200756D01*
X178894737Y-92200751D01*
X178893969Y-92196339D01*
X178892437Y-92191628D01*
X178839256Y-92028161D01*
X178839255Y-92028157D01*
X178838162Y-92024799D01*
X178778882Y-91894420D01*
X178757537Y-91850987D01*
X178750487Y-91840660D01*
X178728596Y-91773123D01*
X178735234Y-91729114D01*
X178800475Y-91536921D01*
X178800476Y-91536916D01*
X178802331Y-91531452D01*
X178803159Y-91525743D01*
X178803160Y-91525738D01*
X178828264Y-91352594D01*
X178833991Y-91313098D01*
X178835643Y-91250000D01*
X178815454Y-91030289D01*
X178812186Y-91018699D01*
X178762775Y-90843500D01*
X178755565Y-90817936D01*
X178657980Y-90620053D01*
X178525967Y-90443267D01*
X178428586Y-90353249D01*
X178368189Y-90297418D01*
X178368186Y-90297416D01*
X178363949Y-90293499D01*
X178177350Y-90175764D01*
X177972421Y-90094006D01*
X177966761Y-90092880D01*
X177966757Y-90092879D01*
X177761691Y-90052089D01*
X177761688Y-90052089D01*
X177756024Y-90050962D01*
X177750249Y-90050886D01*
X177750245Y-90050886D01*
X177639504Y-90049437D01*
X177535406Y-90048074D01*
X177529709Y-90049053D01*
X177529708Y-90049053D01*
X177323654Y-90084459D01*
X177323653Y-90084459D01*
X177317957Y-90085438D01*
X177110957Y-90161804D01*
X177105996Y-90164756D01*
X177105995Y-90164756D01*
X176930255Y-90269311D01*
X176921341Y-90274614D01*
X176755457Y-90420090D01*
X176618863Y-90593360D01*
X176516131Y-90788620D01*
X176450703Y-90999333D01*
X176450024Y-91005072D01*
X176448411Y-91018699D01*
X176420542Y-91083997D01*
X176361795Y-91123862D01*
X176290821Y-91125638D01*
X176230153Y-91088760D01*
X176202015Y-91038093D01*
X176147134Y-90843500D01*
X176145565Y-90837936D01*
X176047980Y-90640053D01*
X175915967Y-90463267D01*
X175753949Y-90313499D01*
X175567350Y-90195764D01*
X175362421Y-90114006D01*
X175356761Y-90112880D01*
X175356757Y-90112879D01*
X175151691Y-90072089D01*
X175151688Y-90072089D01*
X175146024Y-90070962D01*
X175140249Y-90070886D01*
X175140245Y-90070886D01*
X175029504Y-90069437D01*
X174925406Y-90068074D01*
X174919709Y-90069053D01*
X174919708Y-90069053D01*
X174713654Y-90104459D01*
X174713653Y-90104459D01*
X174707957Y-90105438D01*
X174500957Y-90181804D01*
X174495996Y-90184756D01*
X174495995Y-90184756D01*
X174318396Y-90290417D01*
X174311341Y-90294614D01*
X174145457Y-90440090D01*
X174008863Y-90613360D01*
X173906131Y-90808620D01*
X173840703Y-91019333D01*
X173814770Y-91238440D01*
X173829200Y-91458604D01*
X173830621Y-91464200D01*
X173830622Y-91464205D01*
X173877695Y-91649551D01*
X173883511Y-91672452D01*
X173885928Y-91677694D01*
X173885928Y-91677695D01*
X173903636Y-91716107D01*
X173913991Y-91786345D01*
X173896553Y-91834839D01*
X173868605Y-91880306D01*
X173807736Y-92009951D01*
X173788489Y-92054366D01*
X173787308Y-92058688D01*
X173787307Y-92058692D01*
X173749707Y-92196339D01*
X173740955Y-92228380D01*
X173718921Y-92369898D01*
X173712916Y-92417916D01*
X173712996Y-92422398D01*
X173714886Y-92528450D01*
X173714452Y-92532862D01*
X173714435Y-92532862D01*
X173714435Y-92897922D01*
X173713506Y-92912829D01*
X173713472Y-92913473D01*
X173712916Y-92917916D01*
X173716131Y-93098277D01*
X173716591Y-93101795D01*
X173731265Y-93214011D01*
X173734701Y-93240291D01*
X173734856Y-93241250D01*
X173734857Y-93241258D01*
X173739242Y-93268417D01*
X173730354Y-93338855D01*
X173684794Y-93393306D01*
X173614853Y-93414500D01*
X172622758Y-93414500D01*
X172603049Y-93412949D01*
X172588703Y-93410677D01*
X172582116Y-93411022D01*
X172582111Y-93411022D01*
X172519058Y-93414327D01*
X172512464Y-93414500D01*
X172491496Y-93414500D01*
X172488224Y-93414844D01*
X172488222Y-93414844D01*
X172470636Y-93416692D01*
X172464062Y-93417209D01*
X172401017Y-93420513D01*
X172401014Y-93420514D01*
X172394422Y-93420859D01*
X172380393Y-93424618D01*
X172360951Y-93428221D01*
X172346518Y-93429738D01*
X172280196Y-93451287D01*
X172273885Y-93453157D01*
X172206503Y-93471212D01*
X172200623Y-93474208D01*
X172193563Y-93477805D01*
X172175300Y-93485370D01*
X172161492Y-93489856D01*
X172155776Y-93493156D01*
X172155774Y-93493157D01*
X172101081Y-93524734D01*
X172095283Y-93527882D01*
X172033160Y-93559535D01*
X172028028Y-93563690D01*
X172028026Y-93563692D01*
X172021873Y-93568674D01*
X172005588Y-93579867D01*
X171993008Y-93587130D01*
X171988099Y-93591550D01*
X171988095Y-93591553D01*
X171941179Y-93633796D01*
X171936164Y-93638080D01*
X171927525Y-93645076D01*
X171919870Y-93651275D01*
X171905055Y-93666090D01*
X171900271Y-93670631D01*
X171848431Y-93717308D01*
X171839890Y-93729064D01*
X171827053Y-93744092D01*
X169785463Y-95785682D01*
X169723151Y-95819708D01*
X169652336Y-95814643D01*
X169610839Y-95789112D01*
X169598189Y-95777418D01*
X169598186Y-95777416D01*
X169593949Y-95773499D01*
X169589065Y-95770418D01*
X169584482Y-95766901D01*
X169585731Y-95765273D01*
X169544822Y-95718871D01*
X169534116Y-95648686D01*
X169563055Y-95583855D01*
X169569888Y-95576454D01*
X172874925Y-92271417D01*
X172883135Y-92264485D01*
X172882931Y-92264249D01*
X172887467Y-92260334D01*
X172892360Y-92256863D01*
X172956013Y-92190370D01*
X172957936Y-92188406D01*
X172985272Y-92161070D01*
X172987179Y-92158761D01*
X172987188Y-92158751D01*
X172989934Y-92155426D01*
X172996064Y-92148533D01*
X173033432Y-92109497D01*
X173033432Y-92109496D01*
X173037575Y-92105169D01*
X173046825Y-92090844D01*
X173055587Y-92077273D01*
X173064285Y-92065389D01*
X173085425Y-92039790D01*
X173114213Y-91987099D01*
X173118908Y-91979206D01*
X173151485Y-91928754D01*
X173163897Y-91897956D01*
X173170190Y-91884643D01*
X173183235Y-91860767D01*
X173183236Y-91860764D01*
X173186109Y-91855506D01*
X173192725Y-91834839D01*
X173204405Y-91798348D01*
X173207541Y-91789661D01*
X173227739Y-91739544D01*
X173229981Y-91733981D01*
X173236347Y-91701385D01*
X173240005Y-91687133D01*
X173250129Y-91655506D01*
X173250844Y-91649558D01*
X173250845Y-91649551D01*
X173257289Y-91595914D01*
X173258725Y-91586794D01*
X173269361Y-91532327D01*
X173270230Y-91527878D01*
X173270500Y-91522357D01*
X173270500Y-91493480D01*
X173271399Y-91478452D01*
X173274462Y-91452958D01*
X173274462Y-91452952D01*
X173275176Y-91447010D01*
X173270815Y-91385416D01*
X173270500Y-91376517D01*
X173270500Y-88648176D01*
X173290502Y-88580055D01*
X173326407Y-88543472D01*
X173459888Y-88454114D01*
X173459891Y-88454112D01*
X173465011Y-88450684D01*
X173610684Y-88305011D01*
X173725289Y-88133817D01*
X173804459Y-87943623D01*
X173845179Y-87741673D01*
X173845500Y-87735337D01*
X173845500Y-87551611D01*
X173865502Y-87483490D01*
X173882405Y-87462516D01*
X174246032Y-87098889D01*
X174248554Y-87096436D01*
X174306639Y-87041508D01*
X174306640Y-87041507D01*
X174311280Y-87037119D01*
X174318994Y-87026103D01*
X174345878Y-86987708D01*
X174351448Y-86980343D01*
X174385539Y-86938544D01*
X174385542Y-86938540D01*
X174389573Y-86933597D01*
X174402910Y-86908087D01*
X174411353Y-86894200D01*
X174424202Y-86875849D01*
X174427863Y-86870621D01*
X174451822Y-86815256D01*
X174455795Y-86806928D01*
X174480784Y-86759127D01*
X174480785Y-86759124D01*
X174483741Y-86753470D01*
X174491675Y-86725799D01*
X174497155Y-86710495D01*
X174508586Y-86684081D01*
X174520922Y-86625033D01*
X174523140Y-86616070D01*
X174538007Y-86564220D01*
X174539766Y-86558087D01*
X174541974Y-86529388D01*
X174544265Y-86513295D01*
X174550151Y-86485120D01*
X174550500Y-86478461D01*
X174550500Y-86423436D01*
X174550871Y-86413769D01*
X174554871Y-86361790D01*
X174554871Y-86361786D01*
X174555360Y-86355430D01*
X174551494Y-86324827D01*
X174550500Y-86309035D01*
X174550500Y-85916611D01*
X174570502Y-85848490D01*
X174587405Y-85827516D01*
X174617516Y-85797405D01*
X174679828Y-85763379D01*
X174706611Y-85760500D01*
X175659859Y-85760499D01*
X175690336Y-85760499D01*
X175691892Y-85760420D01*
X175691909Y-85760420D01*
X175692003Y-85760415D01*
X175692005Y-85760415D01*
X175696673Y-85760179D01*
X175710605Y-85757370D01*
X175734224Y-85752607D01*
X175898623Y-85719459D01*
X176088817Y-85640289D01*
X176260011Y-85525684D01*
X176363290Y-85422405D01*
X176425602Y-85388379D01*
X176452385Y-85385500D01*
X179139693Y-85385500D01*
X179207814Y-85405502D01*
X179254307Y-85459158D01*
X179265305Y-85521386D01*
X179254396Y-85660000D01*
X179274779Y-85918994D01*
X179275933Y-85923801D01*
X179275934Y-85923807D01*
X179303763Y-86039720D01*
X179335427Y-86171610D01*
X179337320Y-86176181D01*
X179337321Y-86176183D01*
X179411419Y-86355070D01*
X179434846Y-86411628D01*
X179570588Y-86633140D01*
X179739311Y-86830689D01*
X179743067Y-86833897D01*
X179743072Y-86833902D01*
X179743408Y-86834189D01*
X179743500Y-86834330D01*
X179746575Y-86837405D01*
X179745929Y-86838051D01*
X179782217Y-86893639D01*
X179782725Y-86964634D01*
X179745905Y-87021925D01*
X179746575Y-87022595D01*
X179743496Y-87025674D01*
X179743408Y-87025811D01*
X179743072Y-87026098D01*
X179743067Y-87026103D01*
X179739311Y-87029311D01*
X179736103Y-87033067D01*
X179736098Y-87033072D01*
X179735811Y-87033408D01*
X179735670Y-87033500D01*
X179732595Y-87036575D01*
X179731949Y-87035929D01*
X179676361Y-87072217D01*
X179605366Y-87072725D01*
X179548075Y-87035905D01*
X179547405Y-87036575D01*
X179544326Y-87033496D01*
X179544189Y-87033408D01*
X179543902Y-87033072D01*
X179543897Y-87033067D01*
X179540689Y-87029311D01*
X179343140Y-86860588D01*
X179121628Y-86724846D01*
X179117058Y-86722953D01*
X179117054Y-86722951D01*
X178886183Y-86627321D01*
X178886181Y-86627320D01*
X178881610Y-86625427D01*
X178793276Y-86604220D01*
X178633807Y-86565934D01*
X178633801Y-86565933D01*
X178628994Y-86564779D01*
X178370000Y-86544396D01*
X178111006Y-86564779D01*
X178106199Y-86565933D01*
X178106193Y-86565934D01*
X177946724Y-86604220D01*
X177858390Y-86625427D01*
X177853819Y-86627320D01*
X177853817Y-86627321D01*
X177622946Y-86722951D01*
X177622942Y-86722953D01*
X177618372Y-86724846D01*
X177396860Y-86860588D01*
X177199311Y-87029311D01*
X177030588Y-87226860D01*
X176894846Y-87448372D01*
X176892953Y-87452942D01*
X176892951Y-87452946D01*
X176825418Y-87615986D01*
X176795427Y-87688390D01*
X176784156Y-87735337D01*
X176735934Y-87936193D01*
X176735933Y-87936199D01*
X176734779Y-87941006D01*
X176714396Y-88200000D01*
X176734779Y-88458994D01*
X176735933Y-88463801D01*
X176735934Y-88463807D01*
X176753943Y-88538817D01*
X176795427Y-88711610D01*
X176797320Y-88716181D01*
X176797321Y-88716183D01*
X176871419Y-88895070D01*
X176894846Y-88951628D01*
X177030588Y-89173140D01*
X177199311Y-89370689D01*
X177396860Y-89539412D01*
X177618372Y-89675154D01*
X177622942Y-89677047D01*
X177622946Y-89677049D01*
X177806132Y-89752927D01*
X177858390Y-89774573D01*
X177946724Y-89795780D01*
X178106193Y-89834066D01*
X178106199Y-89834067D01*
X178111006Y-89835221D01*
X178370000Y-89855604D01*
X178628994Y-89835221D01*
X178633801Y-89834067D01*
X178633807Y-89834066D01*
X178793276Y-89795780D01*
X178881610Y-89774573D01*
X178933868Y-89752927D01*
X179117054Y-89677049D01*
X179117058Y-89677047D01*
X179121628Y-89675154D01*
X179343140Y-89539412D01*
X179540689Y-89370689D01*
X179543897Y-89366933D01*
X179543902Y-89366928D01*
X179544189Y-89366592D01*
X179544330Y-89366500D01*
X179547405Y-89363425D01*
X179548051Y-89364071D01*
X179603639Y-89327783D01*
X179674634Y-89327275D01*
X179731925Y-89364095D01*
X179732595Y-89363425D01*
X179735674Y-89366504D01*
X179735811Y-89366592D01*
X179736098Y-89366928D01*
X179736103Y-89366933D01*
X179739311Y-89370689D01*
X179936860Y-89539412D01*
X180158372Y-89675154D01*
X180162942Y-89677047D01*
X180162946Y-89677049D01*
X180346132Y-89752927D01*
X180398390Y-89774573D01*
X180486724Y-89795780D01*
X180646193Y-89834066D01*
X180646199Y-89834067D01*
X180651006Y-89835221D01*
X180910000Y-89855604D01*
X181168994Y-89835221D01*
X181173801Y-89834067D01*
X181173807Y-89834066D01*
X181333276Y-89795780D01*
X181421610Y-89774573D01*
X181473868Y-89752927D01*
X181657054Y-89677049D01*
X181657058Y-89677047D01*
X181661628Y-89675154D01*
X181883140Y-89539412D01*
X182080689Y-89370689D01*
X182249412Y-89173140D01*
X182385154Y-88951628D01*
X182408582Y-88895070D01*
X182482679Y-88716183D01*
X182482680Y-88716181D01*
X182484573Y-88711610D01*
X182526057Y-88538817D01*
X182544066Y-88463807D01*
X182544067Y-88463801D01*
X182545221Y-88458994D01*
X182565604Y-88200000D01*
X182545221Y-87941006D01*
X182544067Y-87936199D01*
X182544066Y-87936193D01*
X182495844Y-87735337D01*
X182484573Y-87688390D01*
X182454582Y-87615986D01*
X182387049Y-87452946D01*
X182387047Y-87452942D01*
X182385154Y-87448372D01*
X182249412Y-87226860D01*
X182080689Y-87029311D01*
X182076933Y-87026103D01*
X182076928Y-87026098D01*
X182076592Y-87025811D01*
X182076500Y-87025670D01*
X182073425Y-87022595D01*
X182074071Y-87021949D01*
X182037783Y-86966361D01*
X182037275Y-86895366D01*
X182074095Y-86838075D01*
X182073425Y-86837405D01*
X182076504Y-86834326D01*
X182076592Y-86834189D01*
X182076928Y-86833902D01*
X182076933Y-86833897D01*
X182080689Y-86830689D01*
X182249412Y-86633140D01*
X182385154Y-86411628D01*
X182408582Y-86355070D01*
X182482679Y-86176183D01*
X182482680Y-86176181D01*
X182484573Y-86171610D01*
X182516237Y-86039720D01*
X182544066Y-85923807D01*
X182544067Y-85923801D01*
X182545221Y-85918994D01*
X182565604Y-85660000D01*
X182545221Y-85401006D01*
X182544067Y-85396199D01*
X182544066Y-85396193D01*
X182501568Y-85219179D01*
X182484573Y-85148390D01*
X182480415Y-85138352D01*
X182387049Y-84912946D01*
X182387047Y-84912942D01*
X182385154Y-84908372D01*
X182249412Y-84686860D01*
X182080689Y-84489311D01*
X182076933Y-84486103D01*
X182076928Y-84486098D01*
X182076592Y-84485811D01*
X182076500Y-84485670D01*
X182073425Y-84482595D01*
X182074071Y-84481949D01*
X182037783Y-84426361D01*
X182037275Y-84355366D01*
X182074095Y-84298075D01*
X182073425Y-84297405D01*
X182076504Y-84294326D01*
X182076592Y-84294189D01*
X182076928Y-84293902D01*
X182076933Y-84293897D01*
X182080689Y-84290689D01*
X182249412Y-84093140D01*
X182385154Y-83871628D01*
X182410399Y-83810683D01*
X182482679Y-83636183D01*
X182482680Y-83636181D01*
X182484573Y-83631610D01*
X182517245Y-83495524D01*
X182544066Y-83383807D01*
X182544067Y-83383801D01*
X182545221Y-83378994D01*
X182565604Y-83120000D01*
X182545221Y-82861006D01*
X182544067Y-82856199D01*
X182544066Y-82856193D01*
X182485728Y-82613202D01*
X182484573Y-82608390D01*
X182450112Y-82525193D01*
X182387049Y-82372946D01*
X182387047Y-82372942D01*
X182385154Y-82368372D01*
X182249412Y-82146860D01*
X182080689Y-81949311D01*
X181883140Y-81780588D01*
X181661628Y-81644846D01*
X181657058Y-81642953D01*
X181657054Y-81642951D01*
X181426183Y-81547321D01*
X181426181Y-81547320D01*
X181421610Y-81545427D01*
X181305882Y-81517643D01*
X181173807Y-81485934D01*
X181173801Y-81485933D01*
X181168994Y-81484779D01*
X180910000Y-81464396D01*
X180651006Y-81484779D01*
X180646199Y-81485933D01*
X180646193Y-81485934D01*
X180514118Y-81517643D01*
X180398390Y-81545427D01*
X180393819Y-81547320D01*
X180393817Y-81547321D01*
X180162946Y-81642951D01*
X180162942Y-81642953D01*
X180158372Y-81644846D01*
X180018589Y-81730505D01*
X179975865Y-81756686D01*
X179907331Y-81775224D01*
X179839654Y-81753767D01*
X179811559Y-81727863D01*
X179789620Y-81700380D01*
X179649266Y-81588336D01*
X179487577Y-81510173D01*
X179480716Y-81508589D01*
X179317788Y-81470974D01*
X179317785Y-81470974D01*
X179312589Y-81469774D01*
X179307837Y-81469500D01*
X179306013Y-81469500D01*
X178361963Y-81469501D01*
X177432164Y-81469501D01*
X177427411Y-81469774D01*
X177252423Y-81510173D01*
X177090734Y-81588336D01*
X176950380Y-81700380D01*
X176838336Y-81840734D01*
X176835270Y-81847077D01*
X176835269Y-81847078D01*
X176772163Y-81977621D01*
X176760173Y-82002423D01*
X176758588Y-82009288D01*
X176758587Y-82009291D01*
X176755690Y-82021841D01*
X176720878Y-82083717D01*
X176658140Y-82116950D01*
X176632919Y-82119500D01*
X173463670Y-82119500D01*
X173460151Y-82119451D01*
X173380229Y-82117218D01*
X173380226Y-82117218D01*
X173373847Y-82117040D01*
X173367562Y-82118148D01*
X173367552Y-82118149D01*
X173314434Y-82127516D01*
X173305292Y-82128785D01*
X173245284Y-82134880D01*
X173217807Y-82143491D01*
X173202021Y-82147338D01*
X173173679Y-82152336D01*
X173123302Y-82172281D01*
X173117601Y-82174538D01*
X173108901Y-82177619D01*
X173092416Y-82182786D01*
X173051328Y-82195662D01*
X173026426Y-82209466D01*
X173026164Y-82209611D01*
X173011462Y-82216561D01*
X172990633Y-82224808D01*
X172984695Y-82227159D01*
X172979352Y-82230655D01*
X172979349Y-82230657D01*
X172934229Y-82260184D01*
X172926320Y-82264956D01*
X172879137Y-82291109D01*
X172879134Y-82291111D01*
X172873556Y-82294203D01*
X172868711Y-82298356D01*
X172851705Y-82312932D01*
X172838699Y-82322697D01*
X172836531Y-82324116D01*
X172814618Y-82338455D01*
X172811016Y-82341698D01*
X172810901Y-82341801D01*
X172810891Y-82341811D01*
X172809662Y-82342917D01*
X172808486Y-82344093D01*
X172770747Y-82381833D01*
X172763647Y-82388407D01*
X172719229Y-82426477D01*
X172715315Y-82431522D01*
X172715311Y-82431527D01*
X172700320Y-82450853D01*
X172689857Y-82462722D01*
X172420172Y-82732408D01*
X172154984Y-82997596D01*
X172092671Y-83031621D01*
X172065888Y-83034501D01*
X171444664Y-83034501D01*
X171443108Y-83034580D01*
X171443091Y-83034580D01*
X171442997Y-83034585D01*
X171442995Y-83034585D01*
X171438327Y-83034821D01*
X171236377Y-83075541D01*
X171046183Y-83154711D01*
X170874989Y-83269316D01*
X170784210Y-83360095D01*
X170721898Y-83394121D01*
X170695115Y-83397000D01*
X170389111Y-83397000D01*
X170320990Y-83376998D01*
X170300016Y-83360095D01*
X170113629Y-83173708D01*
X170079603Y-83111396D01*
X170077731Y-83068712D01*
X170077775Y-83068372D01*
X170103075Y-82869495D01*
X170103298Y-82861006D01*
X170105466Y-82778160D01*
X170105549Y-82775000D01*
X170102037Y-82727736D01*
X170086064Y-82512788D01*
X170086063Y-82512784D01*
X170085717Y-82508123D01*
X170079467Y-82480500D01*
X170048082Y-82341801D01*
X170026655Y-82247109D01*
X170014776Y-82216561D01*
X169931355Y-82002044D01*
X169931354Y-82002042D01*
X169929662Y-81997691D01*
X169796868Y-81765350D01*
X169631190Y-81555189D01*
X169436269Y-81371825D01*
X169216385Y-81219286D01*
X169191634Y-81207080D01*
X168980559Y-81102989D01*
X168980556Y-81102988D01*
X168976371Y-81100924D01*
X168721497Y-81019338D01*
X168496116Y-80982633D01*
X168461976Y-80977073D01*
X168461975Y-80977073D01*
X168457364Y-80976322D01*
X168323531Y-80974570D01*
X168194451Y-80972880D01*
X168194448Y-80972880D01*
X168189774Y-80972819D01*
X167924605Y-81008907D01*
X167920118Y-81010215D01*
X167920117Y-81010215D01*
X167888817Y-81019338D01*
X167667683Y-81083792D01*
X167663430Y-81085752D01*
X167663429Y-81085753D01*
X167611512Y-81109687D01*
X167424652Y-81195831D01*
X167392030Y-81217219D01*
X167204764Y-81339996D01*
X167204759Y-81340000D01*
X167200851Y-81342562D01*
X167157708Y-81381069D01*
X167009624Y-81513239D01*
X167001197Y-81520760D01*
X166830075Y-81726512D01*
X166827652Y-81730505D01*
X166696824Y-81946103D01*
X166691244Y-81955298D01*
X166689437Y-81959606D01*
X166689437Y-81959607D01*
X166590451Y-82195662D01*
X166587755Y-82202091D01*
X166586604Y-82206623D01*
X166586603Y-82206626D01*
X166524619Y-82450689D01*
X166521881Y-82461470D01*
X166495070Y-82727736D01*
X166507909Y-82995041D01*
X166560118Y-83257512D01*
X166650549Y-83509383D01*
X166777215Y-83745121D01*
X166780010Y-83748864D01*
X166780012Y-83748867D01*
X166929737Y-83949372D01*
X166937335Y-83959547D01*
X166940642Y-83962825D01*
X166940647Y-83962831D01*
X167124074Y-84144663D01*
X167127390Y-84147950D01*
X167131156Y-84150712D01*
X167131158Y-84150713D01*
X167316939Y-84286933D01*
X167343205Y-84306192D01*
X167347340Y-84308368D01*
X167347344Y-84308370D01*
X167436669Y-84355366D01*
X167580039Y-84430797D01*
X167584458Y-84432340D01*
X167828273Y-84517484D01*
X167828279Y-84517486D01*
X167832690Y-84519026D01*
X167837283Y-84519898D01*
X168085657Y-84567054D01*
X168095606Y-84568943D01*
X168222616Y-84573933D01*
X168358345Y-84579266D01*
X168358350Y-84579266D01*
X168363013Y-84579449D01*
X168597222Y-84553799D01*
X168667115Y-84566266D01*
X168700034Y-84589955D01*
X169114484Y-85004405D01*
X169148510Y-85066717D01*
X169143445Y-85137532D01*
X169100898Y-85194368D01*
X169034378Y-85219179D01*
X169025389Y-85219500D01*
X163118032Y-85219500D01*
X163049911Y-85199498D01*
X163028937Y-85182595D01*
X162607405Y-84761063D01*
X162573379Y-84698751D01*
X162570500Y-84671968D01*
X162570500Y-82843581D01*
X162571403Y-82832881D01*
X162571092Y-82832858D01*
X162571531Y-82826884D01*
X162572537Y-82820966D01*
X162570530Y-82728986D01*
X162570500Y-82726237D01*
X162570500Y-82687531D01*
X162569804Y-82680237D01*
X162569265Y-82671029D01*
X162568087Y-82617017D01*
X162568087Y-82617015D01*
X162567956Y-82611020D01*
X162566406Y-82603817D01*
X162560966Y-82578551D01*
X162558714Y-82564000D01*
X162556131Y-82536930D01*
X162555561Y-82530954D01*
X162547524Y-82503557D01*
X162538666Y-82473365D01*
X162536392Y-82464414D01*
X162534821Y-82457116D01*
X162523758Y-82405729D01*
X162510756Y-82375171D01*
X162505800Y-82361331D01*
X162496447Y-82329451D01*
X162468958Y-82276078D01*
X162465042Y-82267736D01*
X162443888Y-82218020D01*
X162443886Y-82218017D01*
X162441538Y-82212498D01*
X162422995Y-82184955D01*
X162415499Y-82172281D01*
X162403043Y-82148096D01*
X162403042Y-82148094D01*
X162400295Y-82142761D01*
X162363219Y-82095561D01*
X162357786Y-82088097D01*
X162326797Y-82042067D01*
X162326793Y-82042062D01*
X162324261Y-82038301D01*
X162320548Y-82034206D01*
X162300130Y-82013788D01*
X162290139Y-82002526D01*
X162274281Y-81982338D01*
X162270576Y-81977621D01*
X162223926Y-81937140D01*
X162217412Y-81931070D01*
X160861417Y-80575075D01*
X160854485Y-80566865D01*
X160854249Y-80567069D01*
X160850334Y-80562533D01*
X160846863Y-80557640D01*
X160780370Y-80493987D01*
X160778406Y-80492064D01*
X160751070Y-80464728D01*
X160748761Y-80462821D01*
X160748751Y-80462812D01*
X160745426Y-80460066D01*
X160738533Y-80453936D01*
X160699497Y-80416568D01*
X160699496Y-80416568D01*
X160695169Y-80412425D01*
X160690135Y-80409175D01*
X160690133Y-80409173D01*
X160667273Y-80394413D01*
X160655389Y-80385715D01*
X160634412Y-80368392D01*
X160634413Y-80368392D01*
X160629790Y-80364575D01*
X160596235Y-80346242D01*
X160577110Y-80335793D01*
X160569190Y-80331082D01*
X160518754Y-80298515D01*
X160513186Y-80296271D01*
X160513184Y-80296270D01*
X160487961Y-80286105D01*
X160474648Y-80279812D01*
X160450766Y-80266764D01*
X160445506Y-80263890D01*
X160439798Y-80262063D01*
X160439796Y-80262062D01*
X160388336Y-80245590D01*
X160379649Y-80242454D01*
X160329547Y-80222262D01*
X160329545Y-80222261D01*
X160323981Y-80220019D01*
X160291400Y-80213657D01*
X160277137Y-80209995D01*
X160251220Y-80201699D01*
X160251219Y-80201699D01*
X160245506Y-80199870D01*
X160239554Y-80199155D01*
X160185904Y-80192710D01*
X160176784Y-80191273D01*
X160134322Y-80182981D01*
X160117878Y-80179770D01*
X160112357Y-80179500D01*
X160083479Y-80179500D01*
X160068451Y-80178601D01*
X160037009Y-80174824D01*
X160031816Y-80175192D01*
X159964460Y-80153616D01*
X159939333Y-80131140D01*
X159923901Y-80113071D01*
X159923897Y-80113067D01*
X159920689Y-80109311D01*
X159723140Y-79940588D01*
X159605610Y-79868566D01*
X159557979Y-79815918D01*
X159546372Y-79745877D01*
X159574475Y-79680679D01*
X159621708Y-79645365D01*
X159628060Y-79642636D01*
X159723710Y-79601542D01*
X159727690Y-79599079D01*
X159727694Y-79599077D01*
X159947302Y-79463179D01*
X159947306Y-79463176D01*
X159951275Y-79460720D01*
X160076022Y-79355114D01*
X160140938Y-79326365D01*
X160211091Y-79337277D01*
X160246143Y-79361801D01*
X160257390Y-79372950D01*
X160261156Y-79375712D01*
X160261158Y-79375713D01*
X160377093Y-79460720D01*
X160473205Y-79531192D01*
X160477340Y-79533368D01*
X160477344Y-79533370D01*
X160606918Y-79601542D01*
X160710039Y-79655797D01*
X160772603Y-79677645D01*
X160958273Y-79742484D01*
X160958279Y-79742486D01*
X160962690Y-79744026D01*
X161225606Y-79793943D01*
X161352616Y-79798933D01*
X161488345Y-79804266D01*
X161488350Y-79804266D01*
X161493013Y-79804449D01*
X161588943Y-79793943D01*
X161754382Y-79775825D01*
X161754387Y-79775824D01*
X161759035Y-79775315D01*
X161874567Y-79744898D01*
X162013309Y-79708370D01*
X162017829Y-79707180D01*
X162142501Y-79653617D01*
X162259407Y-79603391D01*
X162259410Y-79603389D01*
X162263710Y-79601542D01*
X162267690Y-79599079D01*
X162267694Y-79599077D01*
X162487302Y-79463179D01*
X162487306Y-79463176D01*
X162491275Y-79460720D01*
X162616022Y-79355114D01*
X162680938Y-79326365D01*
X162751091Y-79337277D01*
X162786143Y-79361801D01*
X162797390Y-79372950D01*
X162801156Y-79375712D01*
X162801158Y-79375713D01*
X162917093Y-79460720D01*
X163013205Y-79531192D01*
X163017340Y-79533368D01*
X163017344Y-79533370D01*
X163146918Y-79601542D01*
X163250039Y-79655797D01*
X163312603Y-79677645D01*
X163498273Y-79742484D01*
X163498279Y-79742486D01*
X163502690Y-79744026D01*
X163765606Y-79793943D01*
X163892616Y-79798933D01*
X164028345Y-79804266D01*
X164028350Y-79804266D01*
X164033013Y-79804449D01*
X164128943Y-79793943D01*
X164294382Y-79775825D01*
X164294387Y-79775824D01*
X164299035Y-79775315D01*
X164414567Y-79744898D01*
X164553309Y-79708370D01*
X164557829Y-79707180D01*
X164682501Y-79653617D01*
X164799407Y-79603391D01*
X164799410Y-79603389D01*
X164803710Y-79601542D01*
X164807690Y-79599079D01*
X164807694Y-79599077D01*
X165027302Y-79463179D01*
X165027306Y-79463176D01*
X165031275Y-79460720D01*
X165156022Y-79355114D01*
X165220938Y-79326365D01*
X165291091Y-79337277D01*
X165326143Y-79361801D01*
X165337390Y-79372950D01*
X165341156Y-79375712D01*
X165341158Y-79375713D01*
X165457093Y-79460720D01*
X165553205Y-79531192D01*
X165557340Y-79533368D01*
X165557344Y-79533370D01*
X165686918Y-79601542D01*
X165790039Y-79655797D01*
X165852603Y-79677645D01*
X166038273Y-79742484D01*
X166038279Y-79742486D01*
X166042690Y-79744026D01*
X166305606Y-79793943D01*
X166432616Y-79798933D01*
X166568345Y-79804266D01*
X166568350Y-79804266D01*
X166573013Y-79804449D01*
X166668943Y-79793943D01*
X166834382Y-79775825D01*
X166834387Y-79775824D01*
X166839035Y-79775315D01*
X166954567Y-79744898D01*
X167093309Y-79708370D01*
X167097829Y-79707180D01*
X167222501Y-79653617D01*
X167339407Y-79603391D01*
X167339410Y-79603389D01*
X167343710Y-79601542D01*
X167347690Y-79599079D01*
X167347694Y-79599077D01*
X167567302Y-79463179D01*
X167567306Y-79463176D01*
X167571275Y-79460720D01*
X167696022Y-79355114D01*
X167760938Y-79326365D01*
X167831091Y-79337277D01*
X167866143Y-79361801D01*
X167877390Y-79372950D01*
X167881156Y-79375712D01*
X167881158Y-79375713D01*
X167997093Y-79460720D01*
X168093205Y-79531192D01*
X168097340Y-79533368D01*
X168097344Y-79533370D01*
X168226918Y-79601542D01*
X168330039Y-79655797D01*
X168392603Y-79677645D01*
X168578273Y-79742484D01*
X168578279Y-79742486D01*
X168582690Y-79744026D01*
X168845606Y-79793943D01*
X168972616Y-79798933D01*
X169108345Y-79804266D01*
X169108350Y-79804266D01*
X169113013Y-79804449D01*
X169208943Y-79793943D01*
X169374382Y-79775825D01*
X169374387Y-79775824D01*
X169379035Y-79775315D01*
X169494567Y-79744898D01*
X169633309Y-79708370D01*
X169637829Y-79707180D01*
X169762501Y-79653617D01*
X169879407Y-79603391D01*
X169879410Y-79603389D01*
X169883710Y-79601542D01*
X169887690Y-79599079D01*
X169887694Y-79599077D01*
X170107302Y-79463179D01*
X170107306Y-79463176D01*
X170111275Y-79460720D01*
X170236022Y-79355114D01*
X170300938Y-79326365D01*
X170371091Y-79337277D01*
X170406143Y-79361801D01*
X170417390Y-79372950D01*
X170421156Y-79375712D01*
X170421158Y-79375713D01*
X170537093Y-79460720D01*
X170633205Y-79531192D01*
X170637340Y-79533368D01*
X170637344Y-79533370D01*
X170766918Y-79601542D01*
X170870039Y-79655797D01*
X170932603Y-79677645D01*
X171118273Y-79742484D01*
X171118279Y-79742486D01*
X171122690Y-79744026D01*
X171385606Y-79793943D01*
X171512616Y-79798933D01*
X171648345Y-79804266D01*
X171648350Y-79804266D01*
X171653013Y-79804449D01*
X171748943Y-79793943D01*
X171914382Y-79775825D01*
X171914387Y-79775824D01*
X171919035Y-79775315D01*
X172034567Y-79744898D01*
X172173309Y-79708370D01*
X172177829Y-79707180D01*
X172302501Y-79653617D01*
X172419407Y-79603391D01*
X172419410Y-79603389D01*
X172423710Y-79601542D01*
X172427690Y-79599079D01*
X172427694Y-79599077D01*
X172647302Y-79463179D01*
X172647306Y-79463176D01*
X172651275Y-79460720D01*
X172776022Y-79355114D01*
X172840938Y-79326365D01*
X172911091Y-79337277D01*
X172946143Y-79361801D01*
X172957390Y-79372950D01*
X172961156Y-79375712D01*
X172961158Y-79375713D01*
X173077093Y-79460720D01*
X173173205Y-79531192D01*
X173177340Y-79533368D01*
X173177344Y-79533370D01*
X173306918Y-79601542D01*
X173410039Y-79655797D01*
X173472603Y-79677645D01*
X173658273Y-79742484D01*
X173658279Y-79742486D01*
X173662690Y-79744026D01*
X173925606Y-79793943D01*
X174052616Y-79798933D01*
X174188345Y-79804266D01*
X174188350Y-79804266D01*
X174193013Y-79804449D01*
X174288943Y-79793943D01*
X174454382Y-79775825D01*
X174454387Y-79775824D01*
X174459035Y-79775315D01*
X174574567Y-79744898D01*
X174713309Y-79708370D01*
X174717829Y-79707180D01*
X174842501Y-79653617D01*
X174959407Y-79603391D01*
X174959410Y-79603389D01*
X174963710Y-79601542D01*
X174967690Y-79599079D01*
X174967694Y-79599077D01*
X175187302Y-79463179D01*
X175187306Y-79463176D01*
X175191275Y-79460720D01*
X175265838Y-79397598D01*
X175391960Y-79290828D01*
X175391961Y-79290827D01*
X175395526Y-79287809D01*
X175417920Y-79262274D01*
X175568894Y-79090122D01*
X175568898Y-79090117D01*
X175571976Y-79086607D01*
X175574506Y-79082674D01*
X175714219Y-78865465D01*
X175714222Y-78865460D01*
X175716747Y-78861534D01*
X175826661Y-78617534D01*
X175832791Y-78595798D01*
X175898032Y-78364473D01*
X175898033Y-78364470D01*
X175899302Y-78359969D01*
X175917103Y-78220041D01*
X175932677Y-78097625D01*
X175932677Y-78097621D01*
X175933075Y-78094495D01*
X175935549Y-78000000D01*
X175935040Y-77993156D01*
X175916064Y-77737788D01*
X175916063Y-77737784D01*
X175915717Y-77733123D01*
X175908959Y-77703255D01*
X175857686Y-77476666D01*
X175856655Y-77472109D01*
X175759662Y-77222691D01*
X175626868Y-76990350D01*
X175520906Y-76855938D01*
X175481540Y-76806002D01*
X175455075Y-76740122D01*
X175468428Y-76670393D01*
X175485755Y-76644922D01*
X175571976Y-76546607D01*
X175622975Y-76467320D01*
X175714219Y-76325465D01*
X175714222Y-76325460D01*
X175716747Y-76321534D01*
X175826661Y-76077534D01*
X175852082Y-75987399D01*
X175898032Y-75824473D01*
X175898033Y-75824470D01*
X175899302Y-75819969D01*
X175917690Y-75675430D01*
X175932677Y-75557625D01*
X175932677Y-75557621D01*
X175933075Y-75554495D01*
X175933222Y-75548910D01*
X175935466Y-75463160D01*
X175935549Y-75460000D01*
X175921273Y-75267892D01*
X175916064Y-75197788D01*
X175916063Y-75197784D01*
X175915717Y-75193123D01*
X175907323Y-75156025D01*
X175874352Y-75010319D01*
X175861678Y-74954307D01*
X175866153Y-74883453D01*
X175908224Y-74826264D01*
X175974535Y-74800900D01*
X175984571Y-74800500D01*
X180097501Y-74800500D01*
X180165622Y-74820502D01*
G37*
G04 #@! TD.AperFunction*
G04 #@! TA.AperFunction,Conductor*
G36*
X141342090Y-103382944D02*
G01*
X141356399Y-103395254D01*
X141392595Y-103431450D01*
X141426621Y-103493762D01*
X141429500Y-103520545D01*
X141429500Y-105642242D01*
X141427949Y-105661951D01*
X141425677Y-105676297D01*
X141429327Y-105745934D01*
X141429500Y-105752529D01*
X141429500Y-105773504D01*
X141429844Y-105776776D01*
X141429844Y-105776778D01*
X141431692Y-105794364D01*
X141432209Y-105800938D01*
X141435460Y-105862958D01*
X141435859Y-105870578D01*
X141439618Y-105884607D01*
X141443221Y-105904049D01*
X141444738Y-105918482D01*
X141446778Y-105924760D01*
X141446778Y-105924761D01*
X141455432Y-105951394D01*
X141461293Y-105969432D01*
X141466285Y-105984797D01*
X141468157Y-105991115D01*
X141486212Y-106058497D01*
X141489208Y-106064377D01*
X141492805Y-106071437D01*
X141500370Y-106089700D01*
X141504856Y-106103508D01*
X141508156Y-106109224D01*
X141508157Y-106109226D01*
X141539734Y-106163919D01*
X141542882Y-106169717D01*
X141574535Y-106231840D01*
X141578690Y-106236972D01*
X141578692Y-106236974D01*
X141583674Y-106243127D01*
X141594867Y-106259412D01*
X141602130Y-106271992D01*
X141606550Y-106276901D01*
X141606553Y-106276905D01*
X141648796Y-106323821D01*
X141653080Y-106328836D01*
X141666275Y-106345130D01*
X141681090Y-106359945D01*
X141685631Y-106364729D01*
X141722511Y-106405688D01*
X141732308Y-106416569D01*
X141744064Y-106425110D01*
X141759092Y-106437947D01*
X145227595Y-109906450D01*
X145261621Y-109968762D01*
X145264500Y-109995545D01*
X145264500Y-110385655D01*
X145244498Y-110453776D01*
X145207585Y-110491027D01*
X145094764Y-110564996D01*
X145094759Y-110564999D01*
X145090851Y-110567562D01*
X145087359Y-110570679D01*
X145004734Y-110644424D01*
X144940593Y-110674862D01*
X144870178Y-110665790D01*
X144834500Y-110642196D01*
X144789670Y-110600024D01*
X144789667Y-110600022D01*
X144786269Y-110596825D01*
X144566385Y-110444286D01*
X144546383Y-110434422D01*
X144330559Y-110327989D01*
X144330556Y-110327988D01*
X144326371Y-110325924D01*
X144288740Y-110313878D01*
X144198934Y-110285131D01*
X144071497Y-110244338D01*
X143926134Y-110220665D01*
X143811976Y-110202073D01*
X143811975Y-110202073D01*
X143807364Y-110201322D01*
X143673569Y-110199570D01*
X143544451Y-110197880D01*
X143544448Y-110197880D01*
X143539774Y-110197819D01*
X143274605Y-110233907D01*
X143270118Y-110235215D01*
X143270117Y-110235215D01*
X143217762Y-110250475D01*
X143017683Y-110308792D01*
X143013430Y-110310752D01*
X143013429Y-110310753D01*
X142973987Y-110328936D01*
X142774652Y-110420831D01*
X142742030Y-110442219D01*
X142554764Y-110564996D01*
X142554759Y-110565000D01*
X142550851Y-110567562D01*
X142547359Y-110570679D01*
X142464734Y-110644424D01*
X142400593Y-110674862D01*
X142330178Y-110665790D01*
X142294500Y-110642196D01*
X142249677Y-110600031D01*
X142249678Y-110600031D01*
X142246269Y-110596825D01*
X142084568Y-110484649D01*
X142039999Y-110429387D01*
X142032410Y-110399528D01*
X142032326Y-110399546D01*
X142031871Y-110397404D01*
X142031079Y-110394289D01*
X142030952Y-110393085D01*
X142030262Y-110386518D01*
X142008713Y-110320196D01*
X142006841Y-110313878D01*
X141990496Y-110252877D01*
X141990496Y-110252876D01*
X141988788Y-110246503D01*
X141984205Y-110237508D01*
X141982195Y-110233563D01*
X141974630Y-110215299D01*
X141973373Y-110211431D01*
X141970144Y-110201492D01*
X141966843Y-110195774D01*
X141935266Y-110141081D01*
X141932118Y-110135283D01*
X141903463Y-110079044D01*
X141900465Y-110073160D01*
X141896308Y-110068026D01*
X141891326Y-110061873D01*
X141880131Y-110045585D01*
X141879029Y-110043676D01*
X141872870Y-110033008D01*
X141868450Y-110028099D01*
X141868447Y-110028095D01*
X141826204Y-109981179D01*
X141821920Y-109976164D01*
X141810801Y-109962434D01*
X141808725Y-109959870D01*
X141793910Y-109945055D01*
X141789369Y-109940271D01*
X141747107Y-109893334D01*
X141747105Y-109893333D01*
X141742692Y-109888431D01*
X141730938Y-109879891D01*
X141715909Y-109867053D01*
X139657405Y-107808550D01*
X139623380Y-107746238D01*
X139620500Y-107719455D01*
X139620499Y-106621246D01*
X139620499Y-106619664D01*
X139620179Y-106613327D01*
X139579459Y-106411377D01*
X139577095Y-106405698D01*
X139577092Y-106405688D01*
X139567205Y-106381938D01*
X139559492Y-106311362D01*
X139594434Y-106244421D01*
X140185909Y-105652946D01*
X140200941Y-105640107D01*
X140212692Y-105631569D01*
X140217914Y-105625770D01*
X140259369Y-105579729D01*
X140263910Y-105574945D01*
X140278725Y-105560130D01*
X140288541Y-105548008D01*
X140291920Y-105543836D01*
X140296204Y-105538821D01*
X140338447Y-105491905D01*
X140338450Y-105491901D01*
X140342870Y-105486992D01*
X140350133Y-105474412D01*
X140361326Y-105458127D01*
X140366308Y-105451974D01*
X140366310Y-105451972D01*
X140370465Y-105446840D01*
X140402118Y-105384717D01*
X140405266Y-105378919D01*
X140436843Y-105324226D01*
X140436844Y-105324224D01*
X140440144Y-105318508D01*
X140444630Y-105304700D01*
X140452195Y-105286437D01*
X140455792Y-105279377D01*
X140458788Y-105273497D01*
X140476843Y-105206115D01*
X140478715Y-105199797D01*
X140484529Y-105181905D01*
X140500262Y-105133482D01*
X140501779Y-105119049D01*
X140505382Y-105099607D01*
X140509141Y-105085578D01*
X140509711Y-105074717D01*
X140512791Y-105015938D01*
X140513308Y-105009364D01*
X140515156Y-104991778D01*
X140515156Y-104991776D01*
X140515500Y-104988504D01*
X140515500Y-104967536D01*
X140515673Y-104960942D01*
X140518978Y-104897889D01*
X140518978Y-104897884D01*
X140519323Y-104891297D01*
X140517051Y-104876951D01*
X140515500Y-104857242D01*
X140515500Y-104846676D01*
X140535502Y-104778555D01*
X140559670Y-104750865D01*
X140577846Y-104735342D01*
X140689759Y-104639759D01*
X140848259Y-104454179D01*
X140975777Y-104246089D01*
X141033605Y-104106480D01*
X141067280Y-104025181D01*
X141067282Y-104025175D01*
X141069172Y-104020612D01*
X141070327Y-104015804D01*
X141096377Y-103907298D01*
X141126146Y-103783302D01*
X141145294Y-103540000D01*
X141141692Y-103494234D01*
X141156288Y-103424755D01*
X141206130Y-103374196D01*
X141275395Y-103358609D01*
X141342090Y-103382944D01*
G37*
G04 #@! TD.AperFunction*
G04 #@! TA.AperFunction,Conductor*
G36*
X133110795Y-103842226D02*
G01*
X133167631Y-103884773D01*
X133189282Y-103930868D01*
X133209673Y-104015804D01*
X133209674Y-104015807D01*
X133210828Y-104020612D01*
X133212718Y-104025175D01*
X133212720Y-104025181D01*
X133246395Y-104106480D01*
X133304223Y-104246089D01*
X133431741Y-104454179D01*
X133590241Y-104639759D01*
X133721075Y-104751501D01*
X133742877Y-104770122D01*
X133780880Y-104826997D01*
X133801285Y-104889797D01*
X133803157Y-104896115D01*
X133821212Y-104963497D01*
X133824208Y-104969377D01*
X133827805Y-104976437D01*
X133835370Y-104994700D01*
X133839856Y-105008508D01*
X133843156Y-105014224D01*
X133843157Y-105014226D01*
X133874734Y-105068919D01*
X133877882Y-105074717D01*
X133909535Y-105136840D01*
X133913690Y-105141972D01*
X133913692Y-105141974D01*
X133918674Y-105148127D01*
X133929867Y-105164412D01*
X133937130Y-105176992D01*
X133941550Y-105181901D01*
X133941553Y-105181905D01*
X133983796Y-105228821D01*
X133988080Y-105233836D01*
X134001275Y-105250130D01*
X134016090Y-105264945D01*
X134020631Y-105269729D01*
X134058903Y-105312234D01*
X134067308Y-105321569D01*
X134079059Y-105330107D01*
X134094091Y-105342946D01*
X134916714Y-106165569D01*
X134950740Y-106227881D01*
X134943943Y-106303085D01*
X134892910Y-106425684D01*
X134892908Y-106425691D01*
X134890541Y-106431377D01*
X134849821Y-106633327D01*
X134849500Y-106639663D01*
X134849501Y-108140336D01*
X134849821Y-108146673D01*
X134850745Y-108151256D01*
X134850746Y-108151263D01*
X134884486Y-108318596D01*
X134878343Y-108389326D01*
X134834936Y-108445507D01*
X134760972Y-108469500D01*
X133190545Y-108469500D01*
X133122424Y-108449498D01*
X133101450Y-108432595D01*
X132372405Y-107703550D01*
X132338379Y-107641238D01*
X132335500Y-107614455D01*
X132335500Y-104565545D01*
X132355502Y-104497424D01*
X132372405Y-104476450D01*
X132977668Y-103871187D01*
X133039980Y-103837161D01*
X133110795Y-103842226D01*
G37*
G04 #@! TD.AperFunction*
G04 #@! TA.AperFunction,Conductor*
G36*
X164697089Y-97120502D02*
G01*
X164743582Y-97174158D01*
X164753686Y-97244432D01*
X164724192Y-97309012D01*
X164718063Y-97315595D01*
X163405075Y-98628583D01*
X163396865Y-98635515D01*
X163397069Y-98635751D01*
X163392532Y-98639667D01*
X163387640Y-98643137D01*
X163383496Y-98647466D01*
X163383489Y-98647472D01*
X163323993Y-98709623D01*
X163322070Y-98711588D01*
X163294728Y-98738930D01*
X163292821Y-98741239D01*
X163292812Y-98741249D01*
X163290066Y-98744574D01*
X163283936Y-98751467D01*
X163263326Y-98772997D01*
X163242425Y-98794831D01*
X163239175Y-98799865D01*
X163239173Y-98799867D01*
X163224413Y-98822727D01*
X163215713Y-98834613D01*
X163204052Y-98848733D01*
X163145252Y-98888521D01*
X163106900Y-98894500D01*
X161942956Y-98894501D01*
X161914664Y-98894501D01*
X161913108Y-98894580D01*
X161913091Y-98894580D01*
X161912997Y-98894585D01*
X161912995Y-98894585D01*
X161908327Y-98894821D01*
X161706377Y-98935541D01*
X161516183Y-99014711D01*
X161344989Y-99129316D01*
X161199316Y-99274989D01*
X161084711Y-99446183D01*
X161005541Y-99636377D01*
X160973641Y-99794584D01*
X160966416Y-99830419D01*
X160964821Y-99838327D01*
X160964500Y-99844663D01*
X160964501Y-100161345D01*
X160964501Y-100368500D01*
X160944499Y-100436621D01*
X160890844Y-100483114D01*
X160838501Y-100494500D01*
X156815259Y-100494500D01*
X156795550Y-100492949D01*
X156781204Y-100490677D01*
X156774617Y-100491022D01*
X156774612Y-100491022D01*
X156711559Y-100494327D01*
X156704965Y-100494500D01*
X156683996Y-100494500D01*
X156667577Y-100496226D01*
X156663139Y-100496692D01*
X156656564Y-100497209D01*
X156593516Y-100500513D01*
X156593512Y-100500514D01*
X156586922Y-100500859D01*
X156572893Y-100504618D01*
X156553451Y-100508221D01*
X156539018Y-100509738D01*
X156472696Y-100531287D01*
X156466385Y-100533157D01*
X156399003Y-100551212D01*
X156393123Y-100554208D01*
X156386063Y-100557805D01*
X156367800Y-100565370D01*
X156353992Y-100569856D01*
X156348276Y-100573156D01*
X156348274Y-100573157D01*
X156293581Y-100604734D01*
X156287783Y-100607882D01*
X156225660Y-100639535D01*
X156220528Y-100643690D01*
X156220526Y-100643692D01*
X156214373Y-100648674D01*
X156198088Y-100659867D01*
X156185508Y-100667130D01*
X156180599Y-100671550D01*
X156180595Y-100671553D01*
X156133679Y-100713796D01*
X156128664Y-100718080D01*
X156127590Y-100718950D01*
X156112370Y-100731275D01*
X156097555Y-100746090D01*
X156092771Y-100750631D01*
X156040931Y-100797308D01*
X156032390Y-100809064D01*
X156019553Y-100824092D01*
X155111050Y-101732595D01*
X155048738Y-101766621D01*
X155021955Y-101769500D01*
X154317597Y-101769501D01*
X154294664Y-101769501D01*
X154293108Y-101769580D01*
X154293091Y-101769580D01*
X154292997Y-101769585D01*
X154292995Y-101769585D01*
X154288327Y-101769821D01*
X154086377Y-101810541D01*
X153896183Y-101889711D01*
X153724989Y-102004316D01*
X153663175Y-102066130D01*
X153600863Y-102100156D01*
X153530048Y-102095091D01*
X153484987Y-102066132D01*
X153032946Y-101614091D01*
X153020109Y-101599062D01*
X153015447Y-101592646D01*
X153011569Y-101587308D01*
X152959729Y-101540631D01*
X152954945Y-101536090D01*
X152940130Y-101521275D01*
X152932475Y-101515076D01*
X152923836Y-101508080D01*
X152918821Y-101503796D01*
X152871905Y-101461553D01*
X152871901Y-101461550D01*
X152866992Y-101457130D01*
X152854412Y-101449867D01*
X152838127Y-101438674D01*
X152831974Y-101433692D01*
X152831972Y-101433690D01*
X152826840Y-101429535D01*
X152764717Y-101397882D01*
X152758919Y-101394734D01*
X152704226Y-101363157D01*
X152704224Y-101363156D01*
X152698508Y-101359856D01*
X152684700Y-101355370D01*
X152666437Y-101347805D01*
X152659377Y-101344208D01*
X152653497Y-101341212D01*
X152586115Y-101323157D01*
X152579804Y-101321287D01*
X152513482Y-101299738D01*
X152499049Y-101298221D01*
X152479607Y-101294618D01*
X152465578Y-101290859D01*
X152458986Y-101290514D01*
X152458983Y-101290513D01*
X152395938Y-101287209D01*
X152389364Y-101286692D01*
X152371778Y-101284844D01*
X152371776Y-101284844D01*
X152368504Y-101284500D01*
X152347536Y-101284500D01*
X152340943Y-101284327D01*
X152318655Y-101283159D01*
X152251675Y-101259619D01*
X152220328Y-101227098D01*
X152187463Y-101177672D01*
X152187456Y-101177662D01*
X152185500Y-101174721D01*
X152153735Y-101136931D01*
X152093949Y-101065807D01*
X152093343Y-101065086D01*
X152061099Y-101028988D01*
X152057669Y-101026102D01*
X152057665Y-101026098D01*
X151925772Y-100915118D01*
X151923072Y-100912846D01*
X151917218Y-100908949D01*
X151804629Y-100834003D01*
X151804604Y-100833987D01*
X151803847Y-100833483D01*
X151762771Y-100807887D01*
X151597694Y-100735153D01*
X151460988Y-100692443D01*
X151448037Y-100688820D01*
X151418694Y-100680612D01*
X151418692Y-100680611D01*
X151414382Y-100679406D01*
X151404775Y-100678145D01*
X151239034Y-100656386D01*
X151239027Y-100656385D01*
X151235527Y-100655926D01*
X151231997Y-100655861D01*
X151231993Y-100655861D01*
X151146430Y-100654293D01*
X151092328Y-100653301D01*
X151089784Y-100653331D01*
X151048428Y-100653815D01*
X151048421Y-100653816D01*
X151043947Y-100653868D01*
X151041950Y-100654178D01*
X151035747Y-100654435D01*
X150640000Y-100654435D01*
X150591772Y-100659869D01*
X150504107Y-100669746D01*
X150475893Y-100669746D01*
X150388228Y-100659869D01*
X150340000Y-100654435D01*
X149855354Y-100654435D01*
X149853045Y-100654414D01*
X149792329Y-100653301D01*
X149789824Y-100653330D01*
X149748406Y-100653816D01*
X149748400Y-100653816D01*
X149743926Y-100653869D01*
X149739507Y-100654555D01*
X149739505Y-100654555D01*
X149701519Y-100660450D01*
X149565671Y-100681533D01*
X149524631Y-100692722D01*
X149428429Y-100718950D01*
X149428412Y-100718955D01*
X149427491Y-100719206D01*
X149426592Y-100719480D01*
X149426569Y-100719487D01*
X149394747Y-100729199D01*
X149381205Y-100733332D01*
X149377151Y-100735233D01*
X149377148Y-100735234D01*
X149244764Y-100797308D01*
X149217879Y-100809914D01*
X149214869Y-100811762D01*
X149214860Y-100811767D01*
X149096634Y-100884358D01*
X149096610Y-100884373D01*
X149095827Y-100884854D01*
X149055364Y-100911404D01*
X148920096Y-101030747D01*
X148823982Y-101136931D01*
X148792591Y-101173779D01*
X148790202Y-101177562D01*
X148790200Y-101177564D01*
X148759740Y-101225788D01*
X148706450Y-101272700D01*
X148653211Y-101284500D01*
X148045545Y-101284500D01*
X147977424Y-101264498D01*
X147956450Y-101247595D01*
X147865174Y-101156319D01*
X147831148Y-101094007D01*
X147836213Y-101023192D01*
X147857395Y-100986654D01*
X147875890Y-100964417D01*
X147923031Y-100907736D01*
X147989908Y-100827326D01*
X147989910Y-100827323D01*
X147993602Y-100822884D01*
X148066496Y-100692722D01*
X148098586Y-100635422D01*
X148098587Y-100635420D01*
X148101410Y-100630379D01*
X148103266Y-100624912D01*
X148103268Y-100624907D01*
X148170475Y-100426921D01*
X148170476Y-100426916D01*
X148172331Y-100421452D01*
X148173159Y-100415743D01*
X148173160Y-100415738D01*
X148196990Y-100251385D01*
X148203991Y-100203098D01*
X148205643Y-100140000D01*
X148185454Y-99920289D01*
X148179173Y-99898016D01*
X148136619Y-99747130D01*
X148125565Y-99707936D01*
X148027980Y-99510053D01*
X147950542Y-99406351D01*
X147925810Y-99339801D01*
X147925500Y-99330962D01*
X147925500Y-98205646D01*
X147945502Y-98137525D01*
X147999158Y-98091032D01*
X148069432Y-98080928D01*
X148134012Y-98110422D01*
X148160620Y-98142648D01*
X148163465Y-98147575D01*
X148165883Y-98152821D01*
X148293222Y-98333002D01*
X148451264Y-98486961D01*
X148456060Y-98490166D01*
X148456063Y-98490168D01*
X148561612Y-98560693D01*
X148634717Y-98609540D01*
X148640020Y-98611818D01*
X148640023Y-98611820D01*
X148832129Y-98694355D01*
X148837436Y-98696635D01*
X148894835Y-98709623D01*
X149046995Y-98744054D01*
X149047001Y-98744055D01*
X149052632Y-98745329D01*
X149058403Y-98745556D01*
X149058405Y-98745556D01*
X149126211Y-98748220D01*
X149273098Y-98753991D01*
X149391627Y-98736805D01*
X149485738Y-98723160D01*
X149485743Y-98723159D01*
X149491452Y-98722331D01*
X149496916Y-98720476D01*
X149496921Y-98720475D01*
X149694907Y-98653268D01*
X149694912Y-98653266D01*
X149700379Y-98651410D01*
X149727707Y-98636106D01*
X149780875Y-98606330D01*
X149892884Y-98543602D01*
X149909772Y-98529557D01*
X150058086Y-98406204D01*
X150062518Y-98402518D01*
X150088684Y-98371057D01*
X150199908Y-98237326D01*
X150199910Y-98237323D01*
X150203602Y-98232884D01*
X150283418Y-98090362D01*
X150308586Y-98045422D01*
X150308587Y-98045420D01*
X150311410Y-98040379D01*
X150313266Y-98034912D01*
X150313268Y-98034907D01*
X150380472Y-97836929D01*
X150380472Y-97836927D01*
X150382331Y-97831452D01*
X150383161Y-97825729D01*
X150384508Y-97820117D01*
X150386085Y-97820496D01*
X150412494Y-97762864D01*
X150418517Y-97756404D01*
X151037516Y-97137405D01*
X151099828Y-97103379D01*
X151126611Y-97100500D01*
X164628968Y-97100500D01*
X164697089Y-97120502D01*
G37*
G04 #@! TD.AperFunction*
G04 #@! TA.AperFunction,Conductor*
G36*
X160520425Y-85770973D02*
G01*
X160561507Y-85804995D01*
X160576788Y-85824449D01*
X160582214Y-85831903D01*
X160613203Y-85877933D01*
X160613207Y-85877938D01*
X160615739Y-85881699D01*
X160619452Y-85885794D01*
X160639870Y-85906212D01*
X160649860Y-85917473D01*
X160669424Y-85942379D01*
X160673954Y-85946310D01*
X160673955Y-85946311D01*
X160716074Y-85982860D01*
X160722588Y-85988930D01*
X161758583Y-87024925D01*
X161765515Y-87033135D01*
X161765751Y-87032931D01*
X161769666Y-87037467D01*
X161773137Y-87042360D01*
X161777468Y-87046506D01*
X161839630Y-87106013D01*
X161841594Y-87107936D01*
X161868930Y-87135272D01*
X161871239Y-87137179D01*
X161871249Y-87137188D01*
X161874574Y-87139934D01*
X161881467Y-87146064D01*
X161924831Y-87187575D01*
X161929865Y-87190825D01*
X161929867Y-87190827D01*
X161952727Y-87205587D01*
X161964611Y-87214285D01*
X161990210Y-87235425D01*
X162042901Y-87264213D01*
X162050794Y-87268908D01*
X162101246Y-87301485D01*
X162106814Y-87303729D01*
X162106816Y-87303730D01*
X162132044Y-87313897D01*
X162145357Y-87320190D01*
X162169233Y-87333235D01*
X162169236Y-87333236D01*
X162174494Y-87336109D01*
X162180202Y-87337936D01*
X162180204Y-87337937D01*
X162231652Y-87354405D01*
X162240339Y-87357541D01*
X162296019Y-87379981D01*
X162301905Y-87381131D01*
X162301907Y-87381131D01*
X162316441Y-87383969D01*
X162328615Y-87386347D01*
X162342867Y-87390005D01*
X162374494Y-87400129D01*
X162380442Y-87400844D01*
X162380449Y-87400845D01*
X162434086Y-87407289D01*
X162443206Y-87408725D01*
X162488784Y-87417625D01*
X162502122Y-87420230D01*
X162507643Y-87420500D01*
X162536520Y-87420500D01*
X162551548Y-87421399D01*
X162577042Y-87424462D01*
X162577048Y-87424462D01*
X162582990Y-87425176D01*
X162588966Y-87424753D01*
X162588969Y-87424753D01*
X162644584Y-87420815D01*
X162653483Y-87420500D01*
X167447616Y-87420500D01*
X167515737Y-87440502D01*
X167562230Y-87494158D01*
X167572334Y-87564432D01*
X167542840Y-87629012D01*
X167500368Y-87660926D01*
X167424652Y-87695831D01*
X167420743Y-87698394D01*
X167204764Y-87839996D01*
X167204759Y-87840000D01*
X167200851Y-87842562D01*
X167001197Y-88020760D01*
X166998204Y-88024359D01*
X166848025Y-88204930D01*
X166830075Y-88226512D01*
X166827652Y-88230505D01*
X166694044Y-88450684D01*
X166691244Y-88455298D01*
X166689437Y-88459606D01*
X166689437Y-88459607D01*
X166631409Y-88597989D01*
X166587755Y-88702091D01*
X166586604Y-88706623D01*
X166586603Y-88706626D01*
X166523309Y-88955848D01*
X166521881Y-88961470D01*
X166495070Y-89227736D01*
X166507909Y-89495041D01*
X166560118Y-89757512D01*
X166561698Y-89761912D01*
X166561698Y-89761913D01*
X166566658Y-89775728D01*
X166650549Y-90009383D01*
X166682611Y-90069053D01*
X166756389Y-90206361D01*
X166777215Y-90245121D01*
X166780010Y-90248864D01*
X166780012Y-90248867D01*
X166919959Y-90436278D01*
X166937335Y-90459547D01*
X166940642Y-90462825D01*
X166940647Y-90462831D01*
X167099248Y-90620053D01*
X167127390Y-90647950D01*
X167248006Y-90736389D01*
X167291113Y-90792799D01*
X167299500Y-90838000D01*
X167299500Y-92633389D01*
X167279498Y-92701510D01*
X167262595Y-92722484D01*
X164922485Y-95062595D01*
X164860173Y-95096620D01*
X164833390Y-95099500D01*
X150676185Y-95099500D01*
X150672667Y-95099451D01*
X150592730Y-95097218D01*
X150592727Y-95097218D01*
X150586347Y-95097040D01*
X150544861Y-95104355D01*
X150526933Y-95107516D01*
X150517787Y-95108785D01*
X150464133Y-95114235D01*
X150464132Y-95114235D01*
X150457784Y-95114880D01*
X150430320Y-95123487D01*
X150414529Y-95127336D01*
X150392460Y-95131227D01*
X150392455Y-95131228D01*
X150386179Y-95132335D01*
X150380248Y-95134683D01*
X150380249Y-95134683D01*
X150330083Y-95154545D01*
X150321381Y-95157626D01*
X150263828Y-95175662D01*
X150238660Y-95189613D01*
X150223960Y-95196561D01*
X150203137Y-95204806D01*
X150203134Y-95204808D01*
X150197195Y-95207159D01*
X150191852Y-95210655D01*
X150191849Y-95210657D01*
X150146729Y-95240184D01*
X150138820Y-95244956D01*
X150091637Y-95271109D01*
X150091634Y-95271111D01*
X150086056Y-95274203D01*
X150064205Y-95292932D01*
X150051199Y-95302697D01*
X150027118Y-95318455D01*
X150022162Y-95322917D01*
X149983250Y-95361829D01*
X149976152Y-95368402D01*
X149931729Y-95406477D01*
X149927819Y-95411518D01*
X149927815Y-95411522D01*
X149912820Y-95430853D01*
X149902357Y-95442722D01*
X149446355Y-95898725D01*
X149000746Y-96344334D01*
X148932987Y-96379419D01*
X148903653Y-96384459D01*
X148903650Y-96384460D01*
X148897957Y-96385438D01*
X148690957Y-96461804D01*
X148685996Y-96464756D01*
X148685995Y-96464756D01*
X148587535Y-96523334D01*
X148501341Y-96574614D01*
X148335457Y-96720090D01*
X148198863Y-96893360D01*
X148145144Y-96995463D01*
X148134762Y-97015195D01*
X148085343Y-97066167D01*
X148016210Y-97082330D01*
X147949314Y-97058551D01*
X147905893Y-97002380D01*
X147903421Y-96995463D01*
X147888715Y-96950203D01*
X147886841Y-96943878D01*
X147870496Y-96882877D01*
X147870496Y-96882876D01*
X147868788Y-96876503D01*
X147862195Y-96863563D01*
X147854630Y-96845299D01*
X147850144Y-96831492D01*
X147846843Y-96825774D01*
X147815266Y-96771081D01*
X147812118Y-96765283D01*
X147783463Y-96709044D01*
X147780465Y-96703160D01*
X147776308Y-96698026D01*
X147771326Y-96691873D01*
X147760131Y-96675585D01*
X147752870Y-96663008D01*
X147748450Y-96658099D01*
X147748447Y-96658095D01*
X147706204Y-96611179D01*
X147701920Y-96606164D01*
X147690801Y-96592434D01*
X147688725Y-96589870D01*
X147673910Y-96575055D01*
X147669369Y-96570271D01*
X147627107Y-96523334D01*
X147627105Y-96523333D01*
X147622692Y-96518431D01*
X147610938Y-96509891D01*
X147595909Y-96497053D01*
X144219876Y-93121021D01*
X144185850Y-93058709D01*
X144190915Y-92987894D01*
X144233462Y-92931058D01*
X144252974Y-92919940D01*
X144252645Y-92919295D01*
X144257054Y-92917049D01*
X144261628Y-92915154D01*
X144483140Y-92779412D01*
X144680689Y-92610689D01*
X144683897Y-92606933D01*
X144683902Y-92606928D01*
X144684189Y-92606592D01*
X144684330Y-92606500D01*
X144687405Y-92603425D01*
X144688051Y-92604071D01*
X144743639Y-92567783D01*
X144814634Y-92567275D01*
X144871925Y-92604095D01*
X144872595Y-92603425D01*
X144875674Y-92606504D01*
X144875811Y-92606592D01*
X144876098Y-92606928D01*
X144876103Y-92606933D01*
X144879311Y-92610689D01*
X145076860Y-92779412D01*
X145298372Y-92915154D01*
X145302942Y-92917047D01*
X145302946Y-92917049D01*
X145532849Y-93012278D01*
X145538390Y-93014573D01*
X145626724Y-93035780D01*
X145786193Y-93074066D01*
X145786199Y-93074067D01*
X145791006Y-93075221D01*
X146050000Y-93095604D01*
X146308994Y-93075221D01*
X146313801Y-93074067D01*
X146313807Y-93074066D01*
X146473276Y-93035780D01*
X146561610Y-93014573D01*
X146567151Y-93012278D01*
X146797054Y-92917049D01*
X146797058Y-92917047D01*
X146801628Y-92915154D01*
X147023140Y-92779412D01*
X147220689Y-92610689D01*
X147223897Y-92606933D01*
X147223902Y-92606928D01*
X147224189Y-92606592D01*
X147224330Y-92606500D01*
X147227405Y-92603425D01*
X147228051Y-92604071D01*
X147283639Y-92567783D01*
X147354634Y-92567275D01*
X147411925Y-92604095D01*
X147412595Y-92603425D01*
X147415674Y-92606504D01*
X147415811Y-92606592D01*
X147416098Y-92606928D01*
X147416103Y-92606933D01*
X147419311Y-92610689D01*
X147616860Y-92779412D01*
X147838372Y-92915154D01*
X147842942Y-92917047D01*
X147842946Y-92917049D01*
X148072849Y-93012278D01*
X148078390Y-93014573D01*
X148166724Y-93035780D01*
X148326193Y-93074066D01*
X148326199Y-93074067D01*
X148331006Y-93075221D01*
X148590000Y-93095604D01*
X148848994Y-93075221D01*
X148853801Y-93074067D01*
X148853807Y-93074066D01*
X149013276Y-93035780D01*
X149101610Y-93014573D01*
X149107151Y-93012278D01*
X149337054Y-92917049D01*
X149337058Y-92917047D01*
X149341628Y-92915154D01*
X149563140Y-92779412D01*
X149760689Y-92610689D01*
X149763897Y-92606933D01*
X149763902Y-92606928D01*
X149764189Y-92606592D01*
X149764330Y-92606500D01*
X149767405Y-92603425D01*
X149768051Y-92604071D01*
X149823639Y-92567783D01*
X149894634Y-92567275D01*
X149951925Y-92604095D01*
X149952595Y-92603425D01*
X149955674Y-92606504D01*
X149955811Y-92606592D01*
X149956098Y-92606928D01*
X149956103Y-92606933D01*
X149959311Y-92610689D01*
X150156860Y-92779412D01*
X150378372Y-92915154D01*
X150382942Y-92917047D01*
X150382946Y-92917049D01*
X150612849Y-93012278D01*
X150618390Y-93014573D01*
X150706724Y-93035780D01*
X150866193Y-93074066D01*
X150866199Y-93074067D01*
X150871006Y-93075221D01*
X151130000Y-93095604D01*
X151388994Y-93075221D01*
X151393801Y-93074067D01*
X151393807Y-93074066D01*
X151553276Y-93035780D01*
X151641610Y-93014573D01*
X151647151Y-93012278D01*
X151877054Y-92917049D01*
X151877058Y-92917047D01*
X151881628Y-92915154D01*
X152103140Y-92779412D01*
X152300689Y-92610689D01*
X152303900Y-92606930D01*
X152303904Y-92606926D01*
X152308218Y-92601875D01*
X152367668Y-92563066D01*
X152438663Y-92562560D01*
X152492627Y-92594319D01*
X152494639Y-92596675D01*
X152692188Y-92765398D01*
X152913700Y-92901140D01*
X152918270Y-92903033D01*
X152918274Y-92903035D01*
X153122625Y-92987680D01*
X153153718Y-93000559D01*
X153216901Y-93015728D01*
X153401521Y-93060052D01*
X153401527Y-93060053D01*
X153406334Y-93061207D01*
X153665328Y-93081590D01*
X153924322Y-93061207D01*
X153929129Y-93060053D01*
X153929135Y-93060052D01*
X154113755Y-93015728D01*
X154176938Y-93000559D01*
X154208031Y-92987680D01*
X154412382Y-92903035D01*
X154412386Y-92903033D01*
X154416956Y-92901140D01*
X154638468Y-92765398D01*
X154771827Y-92651498D01*
X154832253Y-92599890D01*
X154832255Y-92599888D01*
X154836017Y-92596675D01*
X154839234Y-92592908D01*
X154842568Y-92589574D01*
X154904879Y-92555546D01*
X154975695Y-92560609D01*
X155027476Y-92596833D01*
X155036100Y-92606930D01*
X155039311Y-92610689D01*
X155236860Y-92779412D01*
X155458372Y-92915154D01*
X155462942Y-92917047D01*
X155462946Y-92917049D01*
X155692849Y-93012278D01*
X155698390Y-93014573D01*
X155786724Y-93035780D01*
X155946193Y-93074066D01*
X155946199Y-93074067D01*
X155951006Y-93075221D01*
X156210000Y-93095604D01*
X156468994Y-93075221D01*
X156473801Y-93074067D01*
X156473807Y-93074066D01*
X156633276Y-93035780D01*
X156721610Y-93014573D01*
X156727151Y-93012278D01*
X156957054Y-92917049D01*
X156957058Y-92917047D01*
X156961628Y-92915154D01*
X157183140Y-92779412D01*
X157380689Y-92610689D01*
X157383897Y-92606933D01*
X157383902Y-92606928D01*
X157384189Y-92606592D01*
X157384330Y-92606500D01*
X157387405Y-92603425D01*
X157388051Y-92604071D01*
X157443639Y-92567783D01*
X157514634Y-92567275D01*
X157571925Y-92604095D01*
X157572595Y-92603425D01*
X157575674Y-92606504D01*
X157575811Y-92606592D01*
X157576098Y-92606928D01*
X157576103Y-92606933D01*
X157579311Y-92610689D01*
X157776860Y-92779412D01*
X157998372Y-92915154D01*
X158002942Y-92917047D01*
X158002946Y-92917049D01*
X158232849Y-93012278D01*
X158238390Y-93014573D01*
X158326724Y-93035780D01*
X158486193Y-93074066D01*
X158486199Y-93074067D01*
X158491006Y-93075221D01*
X158750000Y-93095604D01*
X159008994Y-93075221D01*
X159013801Y-93074067D01*
X159013807Y-93074066D01*
X159173276Y-93035780D01*
X159261610Y-93014573D01*
X159267151Y-93012278D01*
X159497054Y-92917049D01*
X159497058Y-92917047D01*
X159501628Y-92915154D01*
X159723140Y-92779412D01*
X159920689Y-92610689D01*
X159923900Y-92606930D01*
X159987014Y-92533032D01*
X160089412Y-92413140D01*
X160225154Y-92191628D01*
X160233752Y-92170872D01*
X160322679Y-91956183D01*
X160322680Y-91956181D01*
X160324573Y-91951610D01*
X160348731Y-91850987D01*
X160384066Y-91703807D01*
X160384067Y-91703801D01*
X160385221Y-91698994D01*
X160405604Y-91440000D01*
X160385221Y-91181006D01*
X160384067Y-91176199D01*
X160384066Y-91176193D01*
X160325728Y-90933202D01*
X160324573Y-90928390D01*
X160289423Y-90843531D01*
X160227049Y-90692946D01*
X160227047Y-90692942D01*
X160225154Y-90688372D01*
X160089412Y-90466860D01*
X159920689Y-90269311D01*
X159916933Y-90266103D01*
X159916928Y-90266098D01*
X159916592Y-90265811D01*
X159916500Y-90265670D01*
X159913425Y-90262595D01*
X159914071Y-90261949D01*
X159877783Y-90206361D01*
X159877275Y-90135366D01*
X159914095Y-90078075D01*
X159913425Y-90077405D01*
X159916504Y-90074326D01*
X159916592Y-90074189D01*
X159916928Y-90073902D01*
X159916933Y-90073897D01*
X159920689Y-90070689D01*
X160089412Y-89873140D01*
X160225154Y-89651628D01*
X160232055Y-89634969D01*
X160322679Y-89416183D01*
X160322680Y-89416181D01*
X160324573Y-89411610D01*
X160358127Y-89271850D01*
X160384066Y-89163807D01*
X160384067Y-89163801D01*
X160385221Y-89158994D01*
X160405604Y-88900000D01*
X160385221Y-88641006D01*
X160384067Y-88636199D01*
X160384066Y-88636193D01*
X160339678Y-88451306D01*
X160324573Y-88388390D01*
X160322679Y-88383817D01*
X160227049Y-88152946D01*
X160227047Y-88152942D01*
X160225154Y-88148372D01*
X160089412Y-87926860D01*
X159920689Y-87729311D01*
X159916933Y-87726103D01*
X159916928Y-87726098D01*
X159916592Y-87725811D01*
X159916500Y-87725670D01*
X159913425Y-87722595D01*
X159914071Y-87721949D01*
X159877783Y-87666361D01*
X159877275Y-87595366D01*
X159914095Y-87538075D01*
X159913425Y-87537405D01*
X159916504Y-87534326D01*
X159916592Y-87534189D01*
X159916928Y-87533902D01*
X159916933Y-87533897D01*
X159920689Y-87530689D01*
X160089412Y-87333140D01*
X160225154Y-87111628D01*
X160227100Y-87106932D01*
X160322679Y-86876183D01*
X160322680Y-86876181D01*
X160324573Y-86871610D01*
X160361458Y-86717973D01*
X160384066Y-86623807D01*
X160384067Y-86623801D01*
X160385221Y-86618994D01*
X160405604Y-86360000D01*
X160385221Y-86101006D01*
X160384067Y-86096199D01*
X160384066Y-86096193D01*
X160339903Y-85912242D01*
X160343450Y-85841334D01*
X160384770Y-85783600D01*
X160450744Y-85757370D01*
X160520425Y-85770973D01*
G37*
G04 #@! TD.AperFunction*
G04 #@! TA.AperFunction,Conductor*
G36*
X141783458Y-83847050D02*
G01*
X141840294Y-83889597D01*
X141865038Y-83955220D01*
X141874779Y-84078994D01*
X141875933Y-84083801D01*
X141875934Y-84083807D01*
X141897532Y-84173766D01*
X141935427Y-84331610D01*
X141937320Y-84336181D01*
X141937321Y-84336183D01*
X142026018Y-84550315D01*
X142034846Y-84571628D01*
X142170588Y-84793140D01*
X142339311Y-84990689D01*
X142343067Y-84993897D01*
X142343072Y-84993902D01*
X142343408Y-84994189D01*
X142343500Y-84994330D01*
X142346575Y-84997405D01*
X142345929Y-84998051D01*
X142382217Y-85053639D01*
X142382725Y-85124634D01*
X142345905Y-85181925D01*
X142346575Y-85182595D01*
X142343496Y-85185674D01*
X142343408Y-85185811D01*
X142343072Y-85186098D01*
X142343067Y-85186103D01*
X142339311Y-85189311D01*
X142170588Y-85386860D01*
X142034846Y-85608372D01*
X142032953Y-85612942D01*
X142032951Y-85612946D01*
X141937321Y-85843817D01*
X141935427Y-85848390D01*
X141919661Y-85914060D01*
X141875934Y-86096193D01*
X141875933Y-86096199D01*
X141874779Y-86101006D01*
X141854396Y-86360000D01*
X141874779Y-86618994D01*
X141875933Y-86623801D01*
X141875934Y-86623807D01*
X141898542Y-86717973D01*
X141935427Y-86871610D01*
X141937320Y-86876181D01*
X141937321Y-86876183D01*
X142032901Y-87106932D01*
X142034846Y-87111628D01*
X142170588Y-87333140D01*
X142339311Y-87530689D01*
X142343067Y-87533897D01*
X142343072Y-87533902D01*
X142343408Y-87534189D01*
X142343500Y-87534330D01*
X142346575Y-87537405D01*
X142345929Y-87538051D01*
X142382217Y-87593639D01*
X142382725Y-87664634D01*
X142345905Y-87721925D01*
X142346575Y-87722595D01*
X142343496Y-87725674D01*
X142343408Y-87725811D01*
X142343072Y-87726098D01*
X142343067Y-87726103D01*
X142339311Y-87729311D01*
X142170588Y-87926860D01*
X142034846Y-88148372D01*
X142032953Y-88152942D01*
X142032951Y-88152946D01*
X141937321Y-88383817D01*
X141935427Y-88388390D01*
X141920322Y-88451306D01*
X141875934Y-88636193D01*
X141875933Y-88636199D01*
X141874779Y-88641006D01*
X141854396Y-88900000D01*
X141874779Y-89158994D01*
X141875933Y-89163801D01*
X141875934Y-89163807D01*
X141901873Y-89271850D01*
X141935427Y-89411610D01*
X141937320Y-89416181D01*
X141937321Y-89416183D01*
X142027946Y-89634969D01*
X142034846Y-89651628D01*
X142170588Y-89873140D01*
X142339311Y-90070689D01*
X142343067Y-90073897D01*
X142343072Y-90073902D01*
X142343408Y-90074189D01*
X142343500Y-90074330D01*
X142346575Y-90077405D01*
X142345929Y-90078051D01*
X142382217Y-90133639D01*
X142382725Y-90204634D01*
X142345905Y-90261925D01*
X142346575Y-90262595D01*
X142343496Y-90265674D01*
X142343408Y-90265811D01*
X142343072Y-90266098D01*
X142343067Y-90266103D01*
X142339311Y-90269311D01*
X142170588Y-90466860D01*
X142034846Y-90688372D01*
X142032953Y-90692942D01*
X142032951Y-90692946D01*
X141970577Y-90843531D01*
X141935427Y-90928390D01*
X141934272Y-90933202D01*
X141875934Y-91176193D01*
X141875933Y-91176199D01*
X141874779Y-91181006D01*
X141854396Y-91440000D01*
X141874779Y-91698994D01*
X141875933Y-91703801D01*
X141875934Y-91703807D01*
X141911269Y-91850987D01*
X141935427Y-91951610D01*
X141937320Y-91956181D01*
X141937321Y-91956183D01*
X141997009Y-92100282D01*
X142004598Y-92170872D01*
X141972819Y-92234359D01*
X141911761Y-92270586D01*
X141880600Y-92274500D01*
X141615545Y-92274500D01*
X141547424Y-92254498D01*
X141526450Y-92237595D01*
X141177405Y-91888550D01*
X141143379Y-91826238D01*
X141140500Y-91799455D01*
X141140499Y-90368957D01*
X141140499Y-90367164D01*
X141140226Y-90362411D01*
X141099827Y-90187423D01*
X141050053Y-90084459D01*
X141024731Y-90032078D01*
X141024730Y-90032077D01*
X141021664Y-90025734D01*
X140909620Y-89885380D01*
X140769266Y-89773336D01*
X140745637Y-89761913D01*
X140613919Y-89698239D01*
X140613920Y-89698239D01*
X140607577Y-89695173D01*
X140600716Y-89693589D01*
X140437788Y-89655974D01*
X140437785Y-89655974D01*
X140432589Y-89654774D01*
X140427837Y-89654500D01*
X140426013Y-89654500D01*
X140112319Y-89654501D01*
X139802164Y-89654501D01*
X139800397Y-89654602D01*
X139800379Y-89654603D01*
X139797411Y-89654774D01*
X139797349Y-89653697D01*
X139782651Y-89653696D01*
X139782589Y-89654774D01*
X139779660Y-89654605D01*
X139779656Y-89654605D01*
X139777837Y-89654500D01*
X139776013Y-89654500D01*
X139462319Y-89654501D01*
X139152164Y-89654501D01*
X139150397Y-89654602D01*
X139150379Y-89654603D01*
X139147411Y-89654774D01*
X139147349Y-89653697D01*
X139132651Y-89653696D01*
X139132589Y-89654774D01*
X139129660Y-89654605D01*
X139129656Y-89654605D01*
X139127837Y-89654500D01*
X139126013Y-89654500D01*
X138812319Y-89654501D01*
X138502164Y-89654501D01*
X138500397Y-89654602D01*
X138500379Y-89654603D01*
X138497411Y-89654774D01*
X138497349Y-89653697D01*
X138482651Y-89653696D01*
X138482589Y-89654774D01*
X138479660Y-89654605D01*
X138479656Y-89654605D01*
X138477837Y-89654500D01*
X138460587Y-89654500D01*
X137916500Y-89654501D01*
X137848379Y-89634499D01*
X137801886Y-89580843D01*
X137790500Y-89528501D01*
X137790500Y-89216499D01*
X137810502Y-89148378D01*
X137864158Y-89101885D01*
X137916500Y-89090499D01*
X138170336Y-89090499D01*
X138171892Y-89090420D01*
X138171909Y-89090420D01*
X138172003Y-89090415D01*
X138172005Y-89090415D01*
X138176673Y-89090179D01*
X138378623Y-89049459D01*
X138568817Y-88970289D01*
X138740011Y-88855684D01*
X138885684Y-88710011D01*
X139000289Y-88538817D01*
X139079459Y-88348623D01*
X139120179Y-88146673D01*
X139120500Y-88140337D01*
X139120499Y-86639664D01*
X139120179Y-86633327D01*
X139118968Y-86627321D01*
X139095415Y-86510507D01*
X139101558Y-86439777D01*
X139129834Y-86396508D01*
X141650331Y-83876011D01*
X141712643Y-83841985D01*
X141783458Y-83847050D01*
G37*
G04 #@! TD.AperFunction*
M02*
