G04 #@! TF.GenerationSoftware,KiCad,Pcbnew,(6.0.5)*
G04 #@! TF.CreationDate,2023-02-02T23:15:04-06:00*
G04 #@! TF.ProjectId,PIC18BT_MCE_Board,50494331-3842-4545-9f4d-43455f426f61,rev?*
G04 #@! TF.SameCoordinates,Original*
G04 #@! TF.FileFunction,Legend,Bot*
G04 #@! TF.FilePolarity,Positive*
%FSLAX46Y46*%
G04 Gerber Fmt 4.6, Leading zero omitted, Abs format (unit mm)*
G04 Created by KiCad (PCBNEW (6.0.5)) date 2023-02-02 23:15:04*
%MOMM*%
%LPD*%
G01*
G04 APERTURE LIST*
%ADD10C,0.150000*%
%ADD11R,1.600000X1.600000*%
%ADD12C,1.600000*%
%ADD13C,1.700000*%
%ADD14C,1.500000*%
%ADD15C,2.000000*%
%ADD16R,3.500000X3.500000*%
%ADD17R,1.700000X1.700000*%
%ADD18O,1.700000X1.700000*%
%ADD19R,1.000000X2.000000*%
%ADD20R,2.000000X1.000000*%
G04 APERTURE END LIST*
D10*
X183971904Y-90682380D02*
X183971904Y-91491904D01*
X183924285Y-91587142D01*
X183876666Y-91634761D01*
X183781428Y-91682380D01*
X183590952Y-91682380D01*
X183495714Y-91634761D01*
X183448095Y-91587142D01*
X183400476Y-91491904D01*
X183400476Y-90682380D01*
X182495714Y-91015714D02*
X182495714Y-91682380D01*
X182733809Y-90634761D02*
X182971904Y-91349047D01*
X182352857Y-91349047D01*
X184730000Y-106450000D02*
X181380000Y-106450000D01*
X184730000Y-106450000D02*
X184730000Y-93450000D01*
X184730000Y-93450000D02*
X184330000Y-93450000D01*
X181630000Y-104450000D02*
G75*
G03*
X181630000Y-104450000I-500000J0D01*
G01*
%LPC*%
D11*
X111752651Y-102400000D03*
D12*
X108252651Y-102400000D03*
D13*
X143510000Y-88900000D03*
X143510000Y-86360000D03*
X151130000Y-91440000D03*
X143510000Y-83820000D03*
X151130000Y-88900000D03*
X151130000Y-83820000D03*
X151130000Y-93980000D03*
X156210000Y-88900000D03*
X153670000Y-93980000D03*
X158750000Y-88900000D03*
X146050000Y-91440000D03*
X148590000Y-81280000D03*
X158750000Y-86360000D03*
X151130000Y-86360000D03*
D14*
X139590000Y-103540000D03*
X134690000Y-103540000D03*
D13*
X153665328Y-83805986D03*
X158750000Y-83820000D03*
X146050000Y-83820000D03*
X143510000Y-81280000D03*
X146050000Y-88900000D03*
X148590000Y-88900000D03*
X151130000Y-81280000D03*
X153665328Y-91425986D03*
D15*
X123330000Y-112000000D03*
X123330000Y-114540000D03*
X125870000Y-112000000D03*
X125870000Y-114540000D03*
X128410000Y-112000000D03*
X128410000Y-114540000D03*
X130950000Y-114540000D03*
X130950000Y-112000000D03*
X133490000Y-112000000D03*
X133490000Y-114540000D03*
X136030000Y-114540000D03*
X136030000Y-112000000D03*
X138570000Y-112000000D03*
X138570000Y-114540000D03*
X141110000Y-114540000D03*
X141110000Y-112000000D03*
X143650000Y-114540000D03*
X143650000Y-112000000D03*
X146190000Y-112000000D03*
X146190000Y-114540000D03*
X148730000Y-112000000D03*
X148730000Y-114540000D03*
X151270000Y-112000000D03*
X151270000Y-114540000D03*
X153810000Y-114540000D03*
X153810000Y-112000000D03*
X156350000Y-112000000D03*
X156350000Y-114540000D03*
X158890000Y-114540000D03*
X158890000Y-112000000D03*
X161430000Y-112000000D03*
X161430000Y-114540000D03*
X163970000Y-114540000D03*
X163970000Y-112000000D03*
X166510000Y-114540000D03*
X166510000Y-112000000D03*
X169050000Y-112000000D03*
X169050000Y-114540000D03*
X171590000Y-112000000D03*
X171590000Y-114540000D03*
X174130000Y-112000000D03*
X174130000Y-114540000D03*
X176670000Y-112000000D03*
X176670000Y-114540000D03*
X176670000Y-75460000D03*
X176670000Y-78000000D03*
X174130000Y-78000000D03*
X174130000Y-75460000D03*
X171590000Y-75460000D03*
X171590000Y-78000000D03*
X169050000Y-78000000D03*
X169050000Y-75460000D03*
X166510000Y-75460000D03*
X166510000Y-78000000D03*
X163970000Y-78000000D03*
X163970000Y-75460000D03*
X161430000Y-78000000D03*
X161430000Y-75460000D03*
X158890000Y-75460000D03*
X158890000Y-78000000D03*
X156350000Y-75460000D03*
X156350000Y-78000000D03*
X153810000Y-78000000D03*
X153810000Y-75460000D03*
X151270000Y-75460000D03*
X151270000Y-78000000D03*
X148730000Y-75460000D03*
X148730000Y-78000000D03*
X146190000Y-75460000D03*
X146190000Y-78000000D03*
X143650000Y-78000000D03*
X143650000Y-75460000D03*
X141110000Y-75460000D03*
X141110000Y-78000000D03*
X138570000Y-75460000D03*
X138570000Y-78000000D03*
X136030000Y-78000000D03*
X136030000Y-75460000D03*
X133490000Y-78000000D03*
X133490000Y-75460000D03*
X130950000Y-78000000D03*
X130950000Y-75460000D03*
X128410000Y-78000000D03*
X128410000Y-75460000D03*
X125870000Y-75460000D03*
X125870000Y-78000000D03*
X123330000Y-78000000D03*
X123330000Y-75460000D03*
D11*
X111634651Y-93726000D03*
D12*
X108134651Y-93726000D03*
D13*
X158750000Y-81280000D03*
X156210000Y-86360000D03*
X148590000Y-83820000D03*
X156210000Y-93980000D03*
X156210000Y-91440000D03*
X146050000Y-93980000D03*
X153665328Y-86345986D03*
D16*
X114600000Y-82200000D03*
X107600000Y-82200000D03*
X111600000Y-86900000D03*
D13*
X146050000Y-81280000D03*
X148590000Y-91440000D03*
X153670000Y-81280000D03*
X143510000Y-91440000D03*
X156210000Y-81280000D03*
D15*
X163800000Y-82775000D03*
X163800000Y-89275000D03*
X168300000Y-89275000D03*
X168300000Y-82775000D03*
D13*
X148590000Y-86360000D03*
X153665328Y-88885986D03*
D17*
X111835000Y-76120000D03*
D18*
X109295000Y-76120000D03*
D13*
X148590000Y-93980000D03*
X158750000Y-91440000D03*
X146050000Y-86360000D03*
X156210000Y-83820000D03*
D17*
X178370000Y-83120000D03*
D18*
X180910000Y-83120000D03*
X178370000Y-85660000D03*
X180910000Y-85660000D03*
X178370000Y-88200000D03*
X180910000Y-88200000D03*
D19*
X180630000Y-106450000D03*
X179130000Y-106450000D03*
X165630000Y-106450000D03*
X164130000Y-106450000D03*
X162630000Y-106450000D03*
D20*
X160880000Y-94700000D03*
D19*
X162630000Y-93450000D03*
X177630000Y-93450000D03*
X179130000Y-93450000D03*
X180630000Y-93450000D03*
X182130000Y-93450000D03*
X183630000Y-93450000D03*
M02*
